G04 #@! TF.GenerationSoftware,KiCad,Pcbnew,(5.1.2)-2*
G04 #@! TF.CreationDate,2020-05-29T08:27:19+02:00*
G04 #@! TF.ProjectId,Hauptplatine_Arduino,48617570-7470-46c6-9174-696e655f4172,rev?*
G04 #@! TF.SameCoordinates,Original*
G04 #@! TF.FileFunction,Soldermask,Bot*
G04 #@! TF.FilePolarity,Negative*
%FSLAX46Y46*%
G04 Gerber Fmt 4.6, Leading zero omitted, Abs format (unit mm)*
G04 Created by KiCad (PCBNEW (5.1.2)-2) date 2020-05-29 08:27:19*
%MOMM*%
%LPD*%
G04 APERTURE LIST*
%ADD10C,0.100000*%
G04 APERTURE END LIST*
D10*
G36*
X186725331Y-117368211D02*
G01*
X187053092Y-117503974D01*
X187348070Y-117701072D01*
X187598928Y-117951930D01*
X187796026Y-118246908D01*
X187931789Y-118574669D01*
X188001000Y-118922616D01*
X188001000Y-119277384D01*
X187931789Y-119625331D01*
X187796026Y-119953092D01*
X187598928Y-120248070D01*
X187348070Y-120498928D01*
X187053092Y-120696026D01*
X186725331Y-120831789D01*
X186377384Y-120901000D01*
X186022616Y-120901000D01*
X185674669Y-120831789D01*
X185346908Y-120696026D01*
X185051930Y-120498928D01*
X184801072Y-120248070D01*
X184603974Y-119953092D01*
X184468211Y-119625331D01*
X184399000Y-119277384D01*
X184399000Y-118922616D01*
X184468211Y-118574669D01*
X184603974Y-118246908D01*
X184801072Y-117951930D01*
X185051930Y-117701072D01*
X185346908Y-117503974D01*
X185674669Y-117368211D01*
X186022616Y-117299000D01*
X186377384Y-117299000D01*
X186725331Y-117368211D01*
X186725331Y-117368211D01*
G37*
G36*
X93725331Y-117368211D02*
G01*
X94053092Y-117503974D01*
X94348070Y-117701072D01*
X94598928Y-117951930D01*
X94796026Y-118246908D01*
X94931789Y-118574669D01*
X95001000Y-118922616D01*
X95001000Y-119277384D01*
X94931789Y-119625331D01*
X94796026Y-119953092D01*
X94598928Y-120248070D01*
X94348070Y-120498928D01*
X94053092Y-120696026D01*
X93725331Y-120831789D01*
X93377384Y-120901000D01*
X93022616Y-120901000D01*
X92674669Y-120831789D01*
X92346908Y-120696026D01*
X92051930Y-120498928D01*
X91801072Y-120248070D01*
X91603974Y-119953092D01*
X91468211Y-119625331D01*
X91399000Y-119277384D01*
X91399000Y-118922616D01*
X91468211Y-118574669D01*
X91603974Y-118246908D01*
X91801072Y-117951930D01*
X92051930Y-117701072D01*
X92346908Y-117503974D01*
X92674669Y-117368211D01*
X93022616Y-117299000D01*
X93377384Y-117299000D01*
X93725331Y-117368211D01*
X93725331Y-117368211D01*
G37*
G36*
X102801000Y-113001000D02*
G01*
X100999000Y-113001000D01*
X100999000Y-111199000D01*
X102801000Y-111199000D01*
X102801000Y-113001000D01*
X102801000Y-113001000D01*
G37*
G36*
X107090443Y-111205519D02*
G01*
X107156627Y-111212037D01*
X107326466Y-111263557D01*
X107482991Y-111347222D01*
X107518729Y-111376552D01*
X107620186Y-111459814D01*
X107703448Y-111561271D01*
X107732778Y-111597009D01*
X107816443Y-111753534D01*
X107867963Y-111923373D01*
X107885359Y-112100000D01*
X107867963Y-112276627D01*
X107816443Y-112446466D01*
X107732778Y-112602991D01*
X107703448Y-112638729D01*
X107620186Y-112740186D01*
X107518729Y-112823448D01*
X107482991Y-112852778D01*
X107326466Y-112936443D01*
X107156627Y-112987963D01*
X107090443Y-112994481D01*
X107024260Y-113001000D01*
X106935740Y-113001000D01*
X106869557Y-112994481D01*
X106803373Y-112987963D01*
X106633534Y-112936443D01*
X106477009Y-112852778D01*
X106441271Y-112823448D01*
X106339814Y-112740186D01*
X106256552Y-112638729D01*
X106227222Y-112602991D01*
X106143557Y-112446466D01*
X106092037Y-112276627D01*
X106074641Y-112100000D01*
X106092037Y-111923373D01*
X106143557Y-111753534D01*
X106227222Y-111597009D01*
X106256552Y-111561271D01*
X106339814Y-111459814D01*
X106441271Y-111376552D01*
X106477009Y-111347222D01*
X106633534Y-111263557D01*
X106803373Y-111212037D01*
X106869557Y-111205519D01*
X106935740Y-111199000D01*
X107024260Y-111199000D01*
X107090443Y-111205519D01*
X107090443Y-111205519D01*
G37*
G36*
X104550443Y-111205519D02*
G01*
X104616627Y-111212037D01*
X104786466Y-111263557D01*
X104942991Y-111347222D01*
X104978729Y-111376552D01*
X105080186Y-111459814D01*
X105163448Y-111561271D01*
X105192778Y-111597009D01*
X105276443Y-111753534D01*
X105327963Y-111923373D01*
X105345359Y-112100000D01*
X105327963Y-112276627D01*
X105276443Y-112446466D01*
X105192778Y-112602991D01*
X105163448Y-112638729D01*
X105080186Y-112740186D01*
X104978729Y-112823448D01*
X104942991Y-112852778D01*
X104786466Y-112936443D01*
X104616627Y-112987963D01*
X104550443Y-112994481D01*
X104484260Y-113001000D01*
X104395740Y-113001000D01*
X104329557Y-112994481D01*
X104263373Y-112987963D01*
X104093534Y-112936443D01*
X103937009Y-112852778D01*
X103901271Y-112823448D01*
X103799814Y-112740186D01*
X103716552Y-112638729D01*
X103687222Y-112602991D01*
X103603557Y-112446466D01*
X103552037Y-112276627D01*
X103534641Y-112100000D01*
X103552037Y-111923373D01*
X103603557Y-111753534D01*
X103687222Y-111597009D01*
X103716552Y-111561271D01*
X103799814Y-111459814D01*
X103901271Y-111376552D01*
X103937009Y-111347222D01*
X104093534Y-111263557D01*
X104263373Y-111212037D01*
X104329557Y-111205519D01*
X104395740Y-111199000D01*
X104484260Y-111199000D01*
X104550443Y-111205519D01*
X104550443Y-111205519D01*
G37*
G36*
X114761000Y-109971000D02*
G01*
X113059000Y-109971000D01*
X113059000Y-108269000D01*
X114761000Y-108269000D01*
X114761000Y-109971000D01*
X114761000Y-109971000D01*
G37*
G36*
X114158228Y-105801703D02*
G01*
X114313100Y-105865853D01*
X114452481Y-105958985D01*
X114571015Y-106077519D01*
X114664147Y-106216900D01*
X114728297Y-106371772D01*
X114761000Y-106536184D01*
X114761000Y-106703816D01*
X114728297Y-106868228D01*
X114664147Y-107023100D01*
X114571015Y-107162481D01*
X114452481Y-107281015D01*
X114313100Y-107374147D01*
X114158228Y-107438297D01*
X113993816Y-107471000D01*
X113826184Y-107471000D01*
X113661772Y-107438297D01*
X113506900Y-107374147D01*
X113367519Y-107281015D01*
X113248985Y-107162481D01*
X113155853Y-107023100D01*
X113091703Y-106868228D01*
X113059000Y-106703816D01*
X113059000Y-106536184D01*
X113091703Y-106371772D01*
X113155853Y-106216900D01*
X113248985Y-106077519D01*
X113367519Y-105958985D01*
X113506900Y-105865853D01*
X113661772Y-105801703D01*
X113826184Y-105769000D01*
X113993816Y-105769000D01*
X114158228Y-105801703D01*
X114158228Y-105801703D01*
G37*
G36*
X169291000Y-106831000D02*
G01*
X167489000Y-106831000D01*
X167489000Y-105029000D01*
X169291000Y-105029000D01*
X169291000Y-106831000D01*
X169291000Y-106831000D01*
G37*
G36*
X144770442Y-103705518D02*
G01*
X144836627Y-103712037D01*
X145006466Y-103763557D01*
X145162991Y-103847222D01*
X145198729Y-103876552D01*
X145300186Y-103959814D01*
X145383448Y-104061271D01*
X145412778Y-104097009D01*
X145496443Y-104253534D01*
X145547963Y-104423373D01*
X145565359Y-104600000D01*
X145547963Y-104776627D01*
X145496443Y-104946466D01*
X145412778Y-105102991D01*
X145383448Y-105138729D01*
X145300186Y-105240186D01*
X145198729Y-105323448D01*
X145162991Y-105352778D01*
X145006466Y-105436443D01*
X144836627Y-105487963D01*
X144770442Y-105494482D01*
X144704260Y-105501000D01*
X144615740Y-105501000D01*
X144549557Y-105494481D01*
X144483373Y-105487963D01*
X144313534Y-105436443D01*
X144157009Y-105352778D01*
X144121271Y-105323448D01*
X144019814Y-105240186D01*
X143936552Y-105138729D01*
X143907222Y-105102991D01*
X143823557Y-104946466D01*
X143772037Y-104776627D01*
X143754641Y-104600000D01*
X143772037Y-104423373D01*
X143823557Y-104253534D01*
X143907222Y-104097009D01*
X143936552Y-104061271D01*
X144019814Y-103959814D01*
X144121271Y-103876552D01*
X144157009Y-103847222D01*
X144313534Y-103763557D01*
X144483373Y-103712037D01*
X144549557Y-103705519D01*
X144615740Y-103699000D01*
X144704260Y-103699000D01*
X144770442Y-103705518D01*
X144770442Y-103705518D01*
G37*
G36*
X147310442Y-103705518D02*
G01*
X147376627Y-103712037D01*
X147546466Y-103763557D01*
X147702991Y-103847222D01*
X147738729Y-103876552D01*
X147840186Y-103959814D01*
X147923448Y-104061271D01*
X147952778Y-104097009D01*
X148036443Y-104253534D01*
X148087963Y-104423373D01*
X148105359Y-104600000D01*
X148087963Y-104776627D01*
X148036443Y-104946466D01*
X147952778Y-105102991D01*
X147923448Y-105138729D01*
X147840186Y-105240186D01*
X147738729Y-105323448D01*
X147702991Y-105352778D01*
X147546466Y-105436443D01*
X147376627Y-105487963D01*
X147310442Y-105494482D01*
X147244260Y-105501000D01*
X147155740Y-105501000D01*
X147089557Y-105494481D01*
X147023373Y-105487963D01*
X146853534Y-105436443D01*
X146697009Y-105352778D01*
X146661271Y-105323448D01*
X146559814Y-105240186D01*
X146476552Y-105138729D01*
X146447222Y-105102991D01*
X146363557Y-104946466D01*
X146312037Y-104776627D01*
X146294641Y-104600000D01*
X146312037Y-104423373D01*
X146363557Y-104253534D01*
X146447222Y-104097009D01*
X146476552Y-104061271D01*
X146559814Y-103959814D01*
X146661271Y-103876552D01*
X146697009Y-103847222D01*
X146853534Y-103763557D01*
X147023373Y-103712037D01*
X147089557Y-103705519D01*
X147155740Y-103699000D01*
X147244260Y-103699000D01*
X147310442Y-103705518D01*
X147310442Y-103705518D01*
G37*
G36*
X149850442Y-103705518D02*
G01*
X149916627Y-103712037D01*
X150086466Y-103763557D01*
X150242991Y-103847222D01*
X150278729Y-103876552D01*
X150380186Y-103959814D01*
X150463448Y-104061271D01*
X150492778Y-104097009D01*
X150576443Y-104253534D01*
X150627963Y-104423373D01*
X150645359Y-104600000D01*
X150627963Y-104776627D01*
X150576443Y-104946466D01*
X150492778Y-105102991D01*
X150463448Y-105138729D01*
X150380186Y-105240186D01*
X150278729Y-105323448D01*
X150242991Y-105352778D01*
X150086466Y-105436443D01*
X149916627Y-105487963D01*
X149850442Y-105494482D01*
X149784260Y-105501000D01*
X149695740Y-105501000D01*
X149629557Y-105494481D01*
X149563373Y-105487963D01*
X149393534Y-105436443D01*
X149237009Y-105352778D01*
X149201271Y-105323448D01*
X149099814Y-105240186D01*
X149016552Y-105138729D01*
X148987222Y-105102991D01*
X148903557Y-104946466D01*
X148852037Y-104776627D01*
X148834641Y-104600000D01*
X148852037Y-104423373D01*
X148903557Y-104253534D01*
X148987222Y-104097009D01*
X149016552Y-104061271D01*
X149099814Y-103959814D01*
X149201271Y-103876552D01*
X149237009Y-103847222D01*
X149393534Y-103763557D01*
X149563373Y-103712037D01*
X149629557Y-103705519D01*
X149695740Y-103699000D01*
X149784260Y-103699000D01*
X149850442Y-103705518D01*
X149850442Y-103705518D01*
G37*
G36*
X152390442Y-103705518D02*
G01*
X152456627Y-103712037D01*
X152626466Y-103763557D01*
X152782991Y-103847222D01*
X152818729Y-103876552D01*
X152920186Y-103959814D01*
X153003448Y-104061271D01*
X153032778Y-104097009D01*
X153116443Y-104253534D01*
X153167963Y-104423373D01*
X153185359Y-104600000D01*
X153167963Y-104776627D01*
X153116443Y-104946466D01*
X153032778Y-105102991D01*
X153003448Y-105138729D01*
X152920186Y-105240186D01*
X152818729Y-105323448D01*
X152782991Y-105352778D01*
X152626466Y-105436443D01*
X152456627Y-105487963D01*
X152390442Y-105494482D01*
X152324260Y-105501000D01*
X152235740Y-105501000D01*
X152169557Y-105494481D01*
X152103373Y-105487963D01*
X151933534Y-105436443D01*
X151777009Y-105352778D01*
X151741271Y-105323448D01*
X151639814Y-105240186D01*
X151556552Y-105138729D01*
X151527222Y-105102991D01*
X151443557Y-104946466D01*
X151392037Y-104776627D01*
X151374641Y-104600000D01*
X151392037Y-104423373D01*
X151443557Y-104253534D01*
X151527222Y-104097009D01*
X151556552Y-104061271D01*
X151639814Y-103959814D01*
X151741271Y-103876552D01*
X151777009Y-103847222D01*
X151933534Y-103763557D01*
X152103373Y-103712037D01*
X152169557Y-103705519D01*
X152235740Y-103699000D01*
X152324260Y-103699000D01*
X152390442Y-103705518D01*
X152390442Y-103705518D01*
G37*
G36*
X157470442Y-103705518D02*
G01*
X157536627Y-103712037D01*
X157706466Y-103763557D01*
X157862991Y-103847222D01*
X157898729Y-103876552D01*
X158000186Y-103959814D01*
X158083448Y-104061271D01*
X158112778Y-104097009D01*
X158196443Y-104253534D01*
X158247963Y-104423373D01*
X158265359Y-104600000D01*
X158247963Y-104776627D01*
X158196443Y-104946466D01*
X158112778Y-105102991D01*
X158083448Y-105138729D01*
X158000186Y-105240186D01*
X157898729Y-105323448D01*
X157862991Y-105352778D01*
X157706466Y-105436443D01*
X157536627Y-105487963D01*
X157470442Y-105494482D01*
X157404260Y-105501000D01*
X157315740Y-105501000D01*
X157249557Y-105494481D01*
X157183373Y-105487963D01*
X157013534Y-105436443D01*
X156857009Y-105352778D01*
X156821271Y-105323448D01*
X156719814Y-105240186D01*
X156636552Y-105138729D01*
X156607222Y-105102991D01*
X156523557Y-104946466D01*
X156472037Y-104776627D01*
X156454641Y-104600000D01*
X156472037Y-104423373D01*
X156523557Y-104253534D01*
X156607222Y-104097009D01*
X156636552Y-104061271D01*
X156719814Y-103959814D01*
X156821271Y-103876552D01*
X156857009Y-103847222D01*
X157013534Y-103763557D01*
X157183373Y-103712037D01*
X157249557Y-103705519D01*
X157315740Y-103699000D01*
X157404260Y-103699000D01*
X157470442Y-103705518D01*
X157470442Y-103705518D01*
G37*
G36*
X160801000Y-105501000D02*
G01*
X158999000Y-105501000D01*
X158999000Y-103699000D01*
X160801000Y-103699000D01*
X160801000Y-105501000D01*
X160801000Y-105501000D01*
G37*
G36*
X142230442Y-103705518D02*
G01*
X142296627Y-103712037D01*
X142466466Y-103763557D01*
X142622991Y-103847222D01*
X142658729Y-103876552D01*
X142760186Y-103959814D01*
X142843448Y-104061271D01*
X142872778Y-104097009D01*
X142956443Y-104253534D01*
X143007963Y-104423373D01*
X143025359Y-104600000D01*
X143007963Y-104776627D01*
X142956443Y-104946466D01*
X142872778Y-105102991D01*
X142843448Y-105138729D01*
X142760186Y-105240186D01*
X142658729Y-105323448D01*
X142622991Y-105352778D01*
X142466466Y-105436443D01*
X142296627Y-105487963D01*
X142230442Y-105494482D01*
X142164260Y-105501000D01*
X142075740Y-105501000D01*
X142009557Y-105494481D01*
X141943373Y-105487963D01*
X141773534Y-105436443D01*
X141617009Y-105352778D01*
X141581271Y-105323448D01*
X141479814Y-105240186D01*
X141396552Y-105138729D01*
X141367222Y-105102991D01*
X141283557Y-104946466D01*
X141232037Y-104776627D01*
X141214641Y-104600000D01*
X141232037Y-104423373D01*
X141283557Y-104253534D01*
X141367222Y-104097009D01*
X141396552Y-104061271D01*
X141479814Y-103959814D01*
X141581271Y-103876552D01*
X141617009Y-103847222D01*
X141773534Y-103763557D01*
X141943373Y-103712037D01*
X142009557Y-103705519D01*
X142075740Y-103699000D01*
X142164260Y-103699000D01*
X142230442Y-103705518D01*
X142230442Y-103705518D01*
G37*
G36*
X154930442Y-103705518D02*
G01*
X154996627Y-103712037D01*
X155166466Y-103763557D01*
X155322991Y-103847222D01*
X155358729Y-103876552D01*
X155460186Y-103959814D01*
X155543448Y-104061271D01*
X155572778Y-104097009D01*
X155656443Y-104253534D01*
X155707963Y-104423373D01*
X155725359Y-104600000D01*
X155707963Y-104776627D01*
X155656443Y-104946466D01*
X155572778Y-105102991D01*
X155543448Y-105138729D01*
X155460186Y-105240186D01*
X155358729Y-105323448D01*
X155322991Y-105352778D01*
X155166466Y-105436443D01*
X154996627Y-105487963D01*
X154930442Y-105494482D01*
X154864260Y-105501000D01*
X154775740Y-105501000D01*
X154709557Y-105494481D01*
X154643373Y-105487963D01*
X154473534Y-105436443D01*
X154317009Y-105352778D01*
X154281271Y-105323448D01*
X154179814Y-105240186D01*
X154096552Y-105138729D01*
X154067222Y-105102991D01*
X153983557Y-104946466D01*
X153932037Y-104776627D01*
X153914641Y-104600000D01*
X153932037Y-104423373D01*
X153983557Y-104253534D01*
X154067222Y-104097009D01*
X154096552Y-104061271D01*
X154179814Y-103959814D01*
X154281271Y-103876552D01*
X154317009Y-103847222D01*
X154473534Y-103763557D01*
X154643373Y-103712037D01*
X154709557Y-103705519D01*
X154775740Y-103699000D01*
X154864260Y-103699000D01*
X154930442Y-103705518D01*
X154930442Y-103705518D01*
G37*
G36*
X99670442Y-102925518D02*
G01*
X99736627Y-102932037D01*
X99906466Y-102983557D01*
X100062991Y-103067222D01*
X100098729Y-103096552D01*
X100200186Y-103179814D01*
X100283448Y-103281271D01*
X100312778Y-103317009D01*
X100396443Y-103473534D01*
X100447963Y-103643373D01*
X100465359Y-103820000D01*
X100447963Y-103996627D01*
X100396443Y-104166466D01*
X100312778Y-104322991D01*
X100283448Y-104358729D01*
X100200186Y-104460186D01*
X100098729Y-104543448D01*
X100062991Y-104572778D01*
X99906466Y-104656443D01*
X99736627Y-104707963D01*
X99670443Y-104714481D01*
X99604260Y-104721000D01*
X99515740Y-104721000D01*
X99449557Y-104714481D01*
X99383373Y-104707963D01*
X99213534Y-104656443D01*
X99057009Y-104572778D01*
X99021271Y-104543448D01*
X98919814Y-104460186D01*
X98836552Y-104358729D01*
X98807222Y-104322991D01*
X98723557Y-104166466D01*
X98672037Y-103996627D01*
X98654641Y-103820000D01*
X98672037Y-103643373D01*
X98723557Y-103473534D01*
X98807222Y-103317009D01*
X98836552Y-103281271D01*
X98919814Y-103179814D01*
X99021271Y-103096552D01*
X99057009Y-103067222D01*
X99213534Y-102983557D01*
X99383373Y-102932037D01*
X99449557Y-102925519D01*
X99515740Y-102919000D01*
X99604260Y-102919000D01*
X99670442Y-102925518D01*
X99670442Y-102925518D01*
G37*
G36*
X102210442Y-102925518D02*
G01*
X102276627Y-102932037D01*
X102446466Y-102983557D01*
X102602991Y-103067222D01*
X102638729Y-103096552D01*
X102740186Y-103179814D01*
X102823448Y-103281271D01*
X102852778Y-103317009D01*
X102936443Y-103473534D01*
X102987963Y-103643373D01*
X103005359Y-103820000D01*
X102987963Y-103996627D01*
X102936443Y-104166466D01*
X102852778Y-104322991D01*
X102823448Y-104358729D01*
X102740186Y-104460186D01*
X102638729Y-104543448D01*
X102602991Y-104572778D01*
X102446466Y-104656443D01*
X102276627Y-104707963D01*
X102210443Y-104714481D01*
X102144260Y-104721000D01*
X102055740Y-104721000D01*
X101989557Y-104714481D01*
X101923373Y-104707963D01*
X101753534Y-104656443D01*
X101597009Y-104572778D01*
X101561271Y-104543448D01*
X101459814Y-104460186D01*
X101376552Y-104358729D01*
X101347222Y-104322991D01*
X101263557Y-104166466D01*
X101212037Y-103996627D01*
X101194641Y-103820000D01*
X101212037Y-103643373D01*
X101263557Y-103473534D01*
X101347222Y-103317009D01*
X101376552Y-103281271D01*
X101459814Y-103179814D01*
X101561271Y-103096552D01*
X101597009Y-103067222D01*
X101753534Y-102983557D01*
X101923373Y-102932037D01*
X101989557Y-102925519D01*
X102055740Y-102919000D01*
X102144260Y-102919000D01*
X102210442Y-102925518D01*
X102210442Y-102925518D01*
G37*
G36*
X104750442Y-102925518D02*
G01*
X104816627Y-102932037D01*
X104986466Y-102983557D01*
X105142991Y-103067222D01*
X105178729Y-103096552D01*
X105280186Y-103179814D01*
X105363448Y-103281271D01*
X105392778Y-103317009D01*
X105476443Y-103473534D01*
X105527963Y-103643373D01*
X105545359Y-103820000D01*
X105527963Y-103996627D01*
X105476443Y-104166466D01*
X105392778Y-104322991D01*
X105363448Y-104358729D01*
X105280186Y-104460186D01*
X105178729Y-104543448D01*
X105142991Y-104572778D01*
X104986466Y-104656443D01*
X104816627Y-104707963D01*
X104750443Y-104714481D01*
X104684260Y-104721000D01*
X104595740Y-104721000D01*
X104529557Y-104714481D01*
X104463373Y-104707963D01*
X104293534Y-104656443D01*
X104137009Y-104572778D01*
X104101271Y-104543448D01*
X103999814Y-104460186D01*
X103916552Y-104358729D01*
X103887222Y-104322991D01*
X103803557Y-104166466D01*
X103752037Y-103996627D01*
X103734641Y-103820000D01*
X103752037Y-103643373D01*
X103803557Y-103473534D01*
X103887222Y-103317009D01*
X103916552Y-103281271D01*
X103999814Y-103179814D01*
X104101271Y-103096552D01*
X104137009Y-103067222D01*
X104293534Y-102983557D01*
X104463373Y-102932037D01*
X104529557Y-102925519D01*
X104595740Y-102919000D01*
X104684260Y-102919000D01*
X104750442Y-102925518D01*
X104750442Y-102925518D01*
G37*
G36*
X108081000Y-104721000D02*
G01*
X106279000Y-104721000D01*
X106279000Y-102919000D01*
X108081000Y-102919000D01*
X108081000Y-104721000D01*
X108081000Y-104721000D01*
G37*
G36*
X168500442Y-102495518D02*
G01*
X168566627Y-102502037D01*
X168736466Y-102553557D01*
X168892991Y-102637222D01*
X168928729Y-102666552D01*
X169030186Y-102749814D01*
X169113448Y-102851271D01*
X169142778Y-102887009D01*
X169226443Y-103043534D01*
X169277963Y-103213373D01*
X169295359Y-103390000D01*
X169277963Y-103566627D01*
X169226443Y-103736466D01*
X169142778Y-103892991D01*
X169113448Y-103928729D01*
X169030186Y-104030186D01*
X168948758Y-104097011D01*
X168892991Y-104142778D01*
X168736466Y-104226443D01*
X168566627Y-104277963D01*
X168500443Y-104284481D01*
X168434260Y-104291000D01*
X168345740Y-104291000D01*
X168279558Y-104284482D01*
X168213373Y-104277963D01*
X168043534Y-104226443D01*
X167887009Y-104142778D01*
X167831242Y-104097011D01*
X167749814Y-104030186D01*
X167666552Y-103928729D01*
X167637222Y-103892991D01*
X167553557Y-103736466D01*
X167502037Y-103566627D01*
X167484641Y-103390000D01*
X167502037Y-103213373D01*
X167553557Y-103043534D01*
X167637222Y-102887009D01*
X167666552Y-102851271D01*
X167749814Y-102749814D01*
X167851271Y-102666552D01*
X167887009Y-102637222D01*
X168043534Y-102553557D01*
X168213373Y-102502037D01*
X168279557Y-102495519D01*
X168345740Y-102489000D01*
X168434260Y-102489000D01*
X168500442Y-102495518D01*
X168500442Y-102495518D01*
G37*
G36*
X168500443Y-99955519D02*
G01*
X168566627Y-99962037D01*
X168736466Y-100013557D01*
X168892991Y-100097222D01*
X168928729Y-100126552D01*
X169030186Y-100209814D01*
X169113448Y-100311271D01*
X169142778Y-100347009D01*
X169226443Y-100503534D01*
X169277963Y-100673373D01*
X169295359Y-100850000D01*
X169277963Y-101026627D01*
X169226443Y-101196466D01*
X169142778Y-101352991D01*
X169113448Y-101388729D01*
X169030186Y-101490186D01*
X168928729Y-101573448D01*
X168892991Y-101602778D01*
X168736466Y-101686443D01*
X168566627Y-101737963D01*
X168500443Y-101744481D01*
X168434260Y-101751000D01*
X168345740Y-101751000D01*
X168279557Y-101744481D01*
X168213373Y-101737963D01*
X168043534Y-101686443D01*
X167887009Y-101602778D01*
X167851271Y-101573448D01*
X167749814Y-101490186D01*
X167666552Y-101388729D01*
X167637222Y-101352991D01*
X167553557Y-101196466D01*
X167502037Y-101026627D01*
X167484641Y-100850000D01*
X167502037Y-100673373D01*
X167553557Y-100503534D01*
X167637222Y-100347009D01*
X167666552Y-100311271D01*
X167749814Y-100209814D01*
X167851271Y-100126552D01*
X167887009Y-100097222D01*
X168043534Y-100013557D01*
X168213373Y-99962037D01*
X168279558Y-99955518D01*
X168345740Y-99949000D01*
X168434260Y-99949000D01*
X168500443Y-99955519D01*
X168500443Y-99955519D01*
G37*
G36*
X127490443Y-95105519D02*
G01*
X127556627Y-95112037D01*
X127726466Y-95163557D01*
X127882991Y-95247222D01*
X127918729Y-95276552D01*
X128020186Y-95359814D01*
X128103448Y-95461271D01*
X128132778Y-95497009D01*
X128216443Y-95653534D01*
X128267963Y-95823373D01*
X128285359Y-96000000D01*
X128267963Y-96176627D01*
X128216443Y-96346466D01*
X128132778Y-96502991D01*
X128103448Y-96538729D01*
X128020186Y-96640186D01*
X127918729Y-96723448D01*
X127882991Y-96752778D01*
X127726466Y-96836443D01*
X127556627Y-96887963D01*
X127490443Y-96894481D01*
X127424260Y-96901000D01*
X127335740Y-96901000D01*
X127269558Y-96894482D01*
X127203373Y-96887963D01*
X127033534Y-96836443D01*
X126877009Y-96752778D01*
X126841271Y-96723448D01*
X126739814Y-96640186D01*
X126656552Y-96538729D01*
X126627222Y-96502991D01*
X126543557Y-96346466D01*
X126492037Y-96176627D01*
X126474641Y-96000000D01*
X126492037Y-95823373D01*
X126543557Y-95653534D01*
X126627222Y-95497009D01*
X126656552Y-95461271D01*
X126739814Y-95359814D01*
X126841271Y-95276552D01*
X126877009Y-95247222D01*
X127033534Y-95163557D01*
X127203373Y-95112037D01*
X127269558Y-95105518D01*
X127335740Y-95099000D01*
X127424260Y-95099000D01*
X127490443Y-95105519D01*
X127490443Y-95105519D01*
G37*
G36*
X107170443Y-95105519D02*
G01*
X107236627Y-95112037D01*
X107406466Y-95163557D01*
X107562991Y-95247222D01*
X107598729Y-95276552D01*
X107700186Y-95359814D01*
X107783448Y-95461271D01*
X107812778Y-95497009D01*
X107896443Y-95653534D01*
X107947963Y-95823373D01*
X107965359Y-96000000D01*
X107947963Y-96176627D01*
X107896443Y-96346466D01*
X107812778Y-96502991D01*
X107783448Y-96538729D01*
X107700186Y-96640186D01*
X107598729Y-96723448D01*
X107562991Y-96752778D01*
X107406466Y-96836443D01*
X107236627Y-96887963D01*
X107170443Y-96894481D01*
X107104260Y-96901000D01*
X107015740Y-96901000D01*
X106949558Y-96894482D01*
X106883373Y-96887963D01*
X106713534Y-96836443D01*
X106557009Y-96752778D01*
X106521271Y-96723448D01*
X106419814Y-96640186D01*
X106336552Y-96538729D01*
X106307222Y-96502991D01*
X106223557Y-96346466D01*
X106172037Y-96176627D01*
X106154641Y-96000000D01*
X106172037Y-95823373D01*
X106223557Y-95653534D01*
X106307222Y-95497009D01*
X106336552Y-95461271D01*
X106419814Y-95359814D01*
X106521271Y-95276552D01*
X106557009Y-95247222D01*
X106713534Y-95163557D01*
X106883373Y-95112037D01*
X106949557Y-95105519D01*
X107015740Y-95099000D01*
X107104260Y-95099000D01*
X107170443Y-95105519D01*
X107170443Y-95105519D01*
G37*
G36*
X109710443Y-95105519D02*
G01*
X109776627Y-95112037D01*
X109946466Y-95163557D01*
X110102991Y-95247222D01*
X110138729Y-95276552D01*
X110240186Y-95359814D01*
X110323448Y-95461271D01*
X110352778Y-95497009D01*
X110436443Y-95653534D01*
X110487963Y-95823373D01*
X110505359Y-96000000D01*
X110487963Y-96176627D01*
X110436443Y-96346466D01*
X110352778Y-96502991D01*
X110323448Y-96538729D01*
X110240186Y-96640186D01*
X110138729Y-96723448D01*
X110102991Y-96752778D01*
X109946466Y-96836443D01*
X109776627Y-96887963D01*
X109710443Y-96894481D01*
X109644260Y-96901000D01*
X109555740Y-96901000D01*
X109489558Y-96894482D01*
X109423373Y-96887963D01*
X109253534Y-96836443D01*
X109097009Y-96752778D01*
X109061271Y-96723448D01*
X108959814Y-96640186D01*
X108876552Y-96538729D01*
X108847222Y-96502991D01*
X108763557Y-96346466D01*
X108712037Y-96176627D01*
X108694641Y-96000000D01*
X108712037Y-95823373D01*
X108763557Y-95653534D01*
X108847222Y-95497009D01*
X108876552Y-95461271D01*
X108959814Y-95359814D01*
X109061271Y-95276552D01*
X109097009Y-95247222D01*
X109253534Y-95163557D01*
X109423373Y-95112037D01*
X109489558Y-95105518D01*
X109555740Y-95099000D01*
X109644260Y-95099000D01*
X109710443Y-95105519D01*
X109710443Y-95105519D01*
G37*
G36*
X112250443Y-95105519D02*
G01*
X112316627Y-95112037D01*
X112486466Y-95163557D01*
X112642991Y-95247222D01*
X112678729Y-95276552D01*
X112780186Y-95359814D01*
X112863448Y-95461271D01*
X112892778Y-95497009D01*
X112976443Y-95653534D01*
X113027963Y-95823373D01*
X113045359Y-96000000D01*
X113027963Y-96176627D01*
X112976443Y-96346466D01*
X112892778Y-96502991D01*
X112863448Y-96538729D01*
X112780186Y-96640186D01*
X112678729Y-96723448D01*
X112642991Y-96752778D01*
X112486466Y-96836443D01*
X112316627Y-96887963D01*
X112250443Y-96894481D01*
X112184260Y-96901000D01*
X112095740Y-96901000D01*
X112029558Y-96894482D01*
X111963373Y-96887963D01*
X111793534Y-96836443D01*
X111637009Y-96752778D01*
X111601271Y-96723448D01*
X111499814Y-96640186D01*
X111416552Y-96538729D01*
X111387222Y-96502991D01*
X111303557Y-96346466D01*
X111252037Y-96176627D01*
X111234641Y-96000000D01*
X111252037Y-95823373D01*
X111303557Y-95653534D01*
X111387222Y-95497009D01*
X111416552Y-95461271D01*
X111499814Y-95359814D01*
X111601271Y-95276552D01*
X111637009Y-95247222D01*
X111793534Y-95163557D01*
X111963373Y-95112037D01*
X112029558Y-95105518D01*
X112095740Y-95099000D01*
X112184260Y-95099000D01*
X112250443Y-95105519D01*
X112250443Y-95105519D01*
G37*
G36*
X114790443Y-95105519D02*
G01*
X114856627Y-95112037D01*
X115026466Y-95163557D01*
X115182991Y-95247222D01*
X115218729Y-95276552D01*
X115320186Y-95359814D01*
X115403448Y-95461271D01*
X115432778Y-95497009D01*
X115516443Y-95653534D01*
X115567963Y-95823373D01*
X115585359Y-96000000D01*
X115567963Y-96176627D01*
X115516443Y-96346466D01*
X115432778Y-96502991D01*
X115403448Y-96538729D01*
X115320186Y-96640186D01*
X115218729Y-96723448D01*
X115182991Y-96752778D01*
X115026466Y-96836443D01*
X114856627Y-96887963D01*
X114790443Y-96894481D01*
X114724260Y-96901000D01*
X114635740Y-96901000D01*
X114569558Y-96894482D01*
X114503373Y-96887963D01*
X114333534Y-96836443D01*
X114177009Y-96752778D01*
X114141271Y-96723448D01*
X114039814Y-96640186D01*
X113956552Y-96538729D01*
X113927222Y-96502991D01*
X113843557Y-96346466D01*
X113792037Y-96176627D01*
X113774641Y-96000000D01*
X113792037Y-95823373D01*
X113843557Y-95653534D01*
X113927222Y-95497009D01*
X113956552Y-95461271D01*
X114039814Y-95359814D01*
X114141271Y-95276552D01*
X114177009Y-95247222D01*
X114333534Y-95163557D01*
X114503373Y-95112037D01*
X114569558Y-95105518D01*
X114635740Y-95099000D01*
X114724260Y-95099000D01*
X114790443Y-95105519D01*
X114790443Y-95105519D01*
G37*
G36*
X117330443Y-95105519D02*
G01*
X117396627Y-95112037D01*
X117566466Y-95163557D01*
X117722991Y-95247222D01*
X117758729Y-95276552D01*
X117860186Y-95359814D01*
X117943448Y-95461271D01*
X117972778Y-95497009D01*
X118056443Y-95653534D01*
X118107963Y-95823373D01*
X118125359Y-96000000D01*
X118107963Y-96176627D01*
X118056443Y-96346466D01*
X117972778Y-96502991D01*
X117943448Y-96538729D01*
X117860186Y-96640186D01*
X117758729Y-96723448D01*
X117722991Y-96752778D01*
X117566466Y-96836443D01*
X117396627Y-96887963D01*
X117330443Y-96894481D01*
X117264260Y-96901000D01*
X117175740Y-96901000D01*
X117109558Y-96894482D01*
X117043373Y-96887963D01*
X116873534Y-96836443D01*
X116717009Y-96752778D01*
X116681271Y-96723448D01*
X116579814Y-96640186D01*
X116496552Y-96538729D01*
X116467222Y-96502991D01*
X116383557Y-96346466D01*
X116332037Y-96176627D01*
X116314641Y-96000000D01*
X116332037Y-95823373D01*
X116383557Y-95653534D01*
X116467222Y-95497009D01*
X116496552Y-95461271D01*
X116579814Y-95359814D01*
X116681271Y-95276552D01*
X116717009Y-95247222D01*
X116873534Y-95163557D01*
X117043373Y-95112037D01*
X117109558Y-95105518D01*
X117175740Y-95099000D01*
X117264260Y-95099000D01*
X117330443Y-95105519D01*
X117330443Y-95105519D01*
G37*
G36*
X119870443Y-95105519D02*
G01*
X119936627Y-95112037D01*
X120106466Y-95163557D01*
X120262991Y-95247222D01*
X120298729Y-95276552D01*
X120400186Y-95359814D01*
X120483448Y-95461271D01*
X120512778Y-95497009D01*
X120596443Y-95653534D01*
X120647963Y-95823373D01*
X120665359Y-96000000D01*
X120647963Y-96176627D01*
X120596443Y-96346466D01*
X120512778Y-96502991D01*
X120483448Y-96538729D01*
X120400186Y-96640186D01*
X120298729Y-96723448D01*
X120262991Y-96752778D01*
X120106466Y-96836443D01*
X119936627Y-96887963D01*
X119870443Y-96894481D01*
X119804260Y-96901000D01*
X119715740Y-96901000D01*
X119649558Y-96894482D01*
X119583373Y-96887963D01*
X119413534Y-96836443D01*
X119257009Y-96752778D01*
X119221271Y-96723448D01*
X119119814Y-96640186D01*
X119036552Y-96538729D01*
X119007222Y-96502991D01*
X118923557Y-96346466D01*
X118872037Y-96176627D01*
X118854641Y-96000000D01*
X118872037Y-95823373D01*
X118923557Y-95653534D01*
X119007222Y-95497009D01*
X119036552Y-95461271D01*
X119119814Y-95359814D01*
X119221271Y-95276552D01*
X119257009Y-95247222D01*
X119413534Y-95163557D01*
X119583373Y-95112037D01*
X119649558Y-95105518D01*
X119715740Y-95099000D01*
X119804260Y-95099000D01*
X119870443Y-95105519D01*
X119870443Y-95105519D01*
G37*
G36*
X122410443Y-95105519D02*
G01*
X122476627Y-95112037D01*
X122646466Y-95163557D01*
X122802991Y-95247222D01*
X122838729Y-95276552D01*
X122940186Y-95359814D01*
X123023448Y-95461271D01*
X123052778Y-95497009D01*
X123136443Y-95653534D01*
X123187963Y-95823373D01*
X123205359Y-96000000D01*
X123187963Y-96176627D01*
X123136443Y-96346466D01*
X123052778Y-96502991D01*
X123023448Y-96538729D01*
X122940186Y-96640186D01*
X122838729Y-96723448D01*
X122802991Y-96752778D01*
X122646466Y-96836443D01*
X122476627Y-96887963D01*
X122410443Y-96894481D01*
X122344260Y-96901000D01*
X122255740Y-96901000D01*
X122189558Y-96894482D01*
X122123373Y-96887963D01*
X121953534Y-96836443D01*
X121797009Y-96752778D01*
X121761271Y-96723448D01*
X121659814Y-96640186D01*
X121576552Y-96538729D01*
X121547222Y-96502991D01*
X121463557Y-96346466D01*
X121412037Y-96176627D01*
X121394641Y-96000000D01*
X121412037Y-95823373D01*
X121463557Y-95653534D01*
X121547222Y-95497009D01*
X121576552Y-95461271D01*
X121659814Y-95359814D01*
X121761271Y-95276552D01*
X121797009Y-95247222D01*
X121953534Y-95163557D01*
X122123373Y-95112037D01*
X122189558Y-95105518D01*
X122255740Y-95099000D01*
X122344260Y-95099000D01*
X122410443Y-95105519D01*
X122410443Y-95105519D01*
G37*
G36*
X124950443Y-95105519D02*
G01*
X125016627Y-95112037D01*
X125186466Y-95163557D01*
X125342991Y-95247222D01*
X125378729Y-95276552D01*
X125480186Y-95359814D01*
X125563448Y-95461271D01*
X125592778Y-95497009D01*
X125676443Y-95653534D01*
X125727963Y-95823373D01*
X125745359Y-96000000D01*
X125727963Y-96176627D01*
X125676443Y-96346466D01*
X125592778Y-96502991D01*
X125563448Y-96538729D01*
X125480186Y-96640186D01*
X125378729Y-96723448D01*
X125342991Y-96752778D01*
X125186466Y-96836443D01*
X125016627Y-96887963D01*
X124950443Y-96894481D01*
X124884260Y-96901000D01*
X124795740Y-96901000D01*
X124729558Y-96894482D01*
X124663373Y-96887963D01*
X124493534Y-96836443D01*
X124337009Y-96752778D01*
X124301271Y-96723448D01*
X124199814Y-96640186D01*
X124116552Y-96538729D01*
X124087222Y-96502991D01*
X124003557Y-96346466D01*
X123952037Y-96176627D01*
X123934641Y-96000000D01*
X123952037Y-95823373D01*
X124003557Y-95653534D01*
X124087222Y-95497009D01*
X124116552Y-95461271D01*
X124199814Y-95359814D01*
X124301271Y-95276552D01*
X124337009Y-95247222D01*
X124493534Y-95163557D01*
X124663373Y-95112037D01*
X124729558Y-95105518D01*
X124795740Y-95099000D01*
X124884260Y-95099000D01*
X124950443Y-95105519D01*
X124950443Y-95105519D01*
G37*
G36*
X130030443Y-95105519D02*
G01*
X130096627Y-95112037D01*
X130266466Y-95163557D01*
X130422991Y-95247222D01*
X130458729Y-95276552D01*
X130560186Y-95359814D01*
X130643448Y-95461271D01*
X130672778Y-95497009D01*
X130756443Y-95653534D01*
X130807963Y-95823373D01*
X130825359Y-96000000D01*
X130807963Y-96176627D01*
X130756443Y-96346466D01*
X130672778Y-96502991D01*
X130643448Y-96538729D01*
X130560186Y-96640186D01*
X130458729Y-96723448D01*
X130422991Y-96752778D01*
X130266466Y-96836443D01*
X130096627Y-96887963D01*
X130030443Y-96894481D01*
X129964260Y-96901000D01*
X129875740Y-96901000D01*
X129809558Y-96894482D01*
X129743373Y-96887963D01*
X129573534Y-96836443D01*
X129417009Y-96752778D01*
X129381271Y-96723448D01*
X129279814Y-96640186D01*
X129196552Y-96538729D01*
X129167222Y-96502991D01*
X129083557Y-96346466D01*
X129032037Y-96176627D01*
X129014641Y-96000000D01*
X129032037Y-95823373D01*
X129083557Y-95653534D01*
X129167222Y-95497009D01*
X129196552Y-95461271D01*
X129279814Y-95359814D01*
X129381271Y-95276552D01*
X129417009Y-95247222D01*
X129573534Y-95163557D01*
X129743373Y-95112037D01*
X129809558Y-95105518D01*
X129875740Y-95099000D01*
X129964260Y-95099000D01*
X130030443Y-95105519D01*
X130030443Y-95105519D01*
G37*
G36*
X132570443Y-95105519D02*
G01*
X132636627Y-95112037D01*
X132806466Y-95163557D01*
X132962991Y-95247222D01*
X132998729Y-95276552D01*
X133100186Y-95359814D01*
X133183448Y-95461271D01*
X133212778Y-95497009D01*
X133296443Y-95653534D01*
X133347963Y-95823373D01*
X133365359Y-96000000D01*
X133347963Y-96176627D01*
X133296443Y-96346466D01*
X133212778Y-96502991D01*
X133183448Y-96538729D01*
X133100186Y-96640186D01*
X132998729Y-96723448D01*
X132962991Y-96752778D01*
X132806466Y-96836443D01*
X132636627Y-96887963D01*
X132570443Y-96894481D01*
X132504260Y-96901000D01*
X132415740Y-96901000D01*
X132349558Y-96894482D01*
X132283373Y-96887963D01*
X132113534Y-96836443D01*
X131957009Y-96752778D01*
X131921271Y-96723448D01*
X131819814Y-96640186D01*
X131736552Y-96538729D01*
X131707222Y-96502991D01*
X131623557Y-96346466D01*
X131572037Y-96176627D01*
X131554641Y-96000000D01*
X131572037Y-95823373D01*
X131623557Y-95653534D01*
X131707222Y-95497009D01*
X131736552Y-95461271D01*
X131819814Y-95359814D01*
X131921271Y-95276552D01*
X131957009Y-95247222D01*
X132113534Y-95163557D01*
X132283373Y-95112037D01*
X132349558Y-95105518D01*
X132415740Y-95099000D01*
X132504260Y-95099000D01*
X132570443Y-95105519D01*
X132570443Y-95105519D01*
G37*
G36*
X135110443Y-95105519D02*
G01*
X135176627Y-95112037D01*
X135346466Y-95163557D01*
X135502991Y-95247222D01*
X135538729Y-95276552D01*
X135640186Y-95359814D01*
X135723448Y-95461271D01*
X135752778Y-95497009D01*
X135836443Y-95653534D01*
X135887963Y-95823373D01*
X135905359Y-96000000D01*
X135887963Y-96176627D01*
X135836443Y-96346466D01*
X135752778Y-96502991D01*
X135723448Y-96538729D01*
X135640186Y-96640186D01*
X135538729Y-96723448D01*
X135502991Y-96752778D01*
X135346466Y-96836443D01*
X135176627Y-96887963D01*
X135110443Y-96894481D01*
X135044260Y-96901000D01*
X134955740Y-96901000D01*
X134889558Y-96894482D01*
X134823373Y-96887963D01*
X134653534Y-96836443D01*
X134497009Y-96752778D01*
X134461271Y-96723448D01*
X134359814Y-96640186D01*
X134276552Y-96538729D01*
X134247222Y-96502991D01*
X134163557Y-96346466D01*
X134112037Y-96176627D01*
X134094641Y-96000000D01*
X134112037Y-95823373D01*
X134163557Y-95653534D01*
X134247222Y-95497009D01*
X134276552Y-95461271D01*
X134359814Y-95359814D01*
X134461271Y-95276552D01*
X134497009Y-95247222D01*
X134653534Y-95163557D01*
X134823373Y-95112037D01*
X134889558Y-95105518D01*
X134955740Y-95099000D01*
X135044260Y-95099000D01*
X135110443Y-95105519D01*
X135110443Y-95105519D01*
G37*
G36*
X104630443Y-95105519D02*
G01*
X104696627Y-95112037D01*
X104866466Y-95163557D01*
X105022991Y-95247222D01*
X105058729Y-95276552D01*
X105160186Y-95359814D01*
X105243448Y-95461271D01*
X105272778Y-95497009D01*
X105356443Y-95653534D01*
X105407963Y-95823373D01*
X105425359Y-96000000D01*
X105407963Y-96176627D01*
X105356443Y-96346466D01*
X105272778Y-96502991D01*
X105243448Y-96538729D01*
X105160186Y-96640186D01*
X105058729Y-96723448D01*
X105022991Y-96752778D01*
X104866466Y-96836443D01*
X104696627Y-96887963D01*
X104630443Y-96894481D01*
X104564260Y-96901000D01*
X104475740Y-96901000D01*
X104409558Y-96894482D01*
X104343373Y-96887963D01*
X104173534Y-96836443D01*
X104017009Y-96752778D01*
X103981271Y-96723448D01*
X103879814Y-96640186D01*
X103796552Y-96538729D01*
X103767222Y-96502991D01*
X103683557Y-96346466D01*
X103632037Y-96176627D01*
X103614641Y-96000000D01*
X103632037Y-95823373D01*
X103683557Y-95653534D01*
X103767222Y-95497009D01*
X103796552Y-95461271D01*
X103879814Y-95359814D01*
X103981271Y-95276552D01*
X104017009Y-95247222D01*
X104173534Y-95163557D01*
X104343373Y-95112037D01*
X104409557Y-95105519D01*
X104475740Y-95099000D01*
X104564260Y-95099000D01*
X104630443Y-95105519D01*
X104630443Y-95105519D01*
G37*
G36*
X102090443Y-95105519D02*
G01*
X102156627Y-95112037D01*
X102326466Y-95163557D01*
X102482991Y-95247222D01*
X102518729Y-95276552D01*
X102620186Y-95359814D01*
X102703448Y-95461271D01*
X102732778Y-95497009D01*
X102816443Y-95653534D01*
X102867963Y-95823373D01*
X102885359Y-96000000D01*
X102867963Y-96176627D01*
X102816443Y-96346466D01*
X102732778Y-96502991D01*
X102703448Y-96538729D01*
X102620186Y-96640186D01*
X102518729Y-96723448D01*
X102482991Y-96752778D01*
X102326466Y-96836443D01*
X102156627Y-96887963D01*
X102090443Y-96894481D01*
X102024260Y-96901000D01*
X101935740Y-96901000D01*
X101869558Y-96894482D01*
X101803373Y-96887963D01*
X101633534Y-96836443D01*
X101477009Y-96752778D01*
X101441271Y-96723448D01*
X101339814Y-96640186D01*
X101256552Y-96538729D01*
X101227222Y-96502991D01*
X101143557Y-96346466D01*
X101092037Y-96176627D01*
X101074641Y-96000000D01*
X101092037Y-95823373D01*
X101143557Y-95653534D01*
X101227222Y-95497009D01*
X101256552Y-95461271D01*
X101339814Y-95359814D01*
X101441271Y-95276552D01*
X101477009Y-95247222D01*
X101633534Y-95163557D01*
X101803373Y-95112037D01*
X101869557Y-95105519D01*
X101935740Y-95099000D01*
X102024260Y-95099000D01*
X102090443Y-95105519D01*
X102090443Y-95105519D01*
G37*
G36*
X100341000Y-96901000D02*
G01*
X98539000Y-96901000D01*
X98539000Y-95099000D01*
X100341000Y-95099000D01*
X100341000Y-96901000D01*
X100341000Y-96901000D01*
G37*
G36*
X122466823Y-90161313D02*
G01*
X122627242Y-90209976D01*
X122759906Y-90280886D01*
X122775078Y-90288996D01*
X122904659Y-90395341D01*
X123011004Y-90524922D01*
X123011005Y-90524924D01*
X123090024Y-90672758D01*
X123138687Y-90833177D01*
X123155117Y-91000000D01*
X123138687Y-91166823D01*
X123090024Y-91327242D01*
X123019114Y-91459906D01*
X123011004Y-91475078D01*
X122904659Y-91604659D01*
X122775078Y-91711004D01*
X122775076Y-91711005D01*
X122627242Y-91790024D01*
X122466823Y-91838687D01*
X122341804Y-91851000D01*
X122258196Y-91851000D01*
X122133177Y-91838687D01*
X121972758Y-91790024D01*
X121824924Y-91711005D01*
X121824922Y-91711004D01*
X121695341Y-91604659D01*
X121588996Y-91475078D01*
X121580886Y-91459906D01*
X121509976Y-91327242D01*
X121461313Y-91166823D01*
X121444883Y-91000000D01*
X121461313Y-90833177D01*
X121509976Y-90672758D01*
X121588995Y-90524924D01*
X121588996Y-90524922D01*
X121695341Y-90395341D01*
X121824922Y-90288996D01*
X121840094Y-90280886D01*
X121972758Y-90209976D01*
X122133177Y-90161313D01*
X122258196Y-90149000D01*
X122341804Y-90149000D01*
X122466823Y-90161313D01*
X122466823Y-90161313D01*
G37*
G36*
X135166823Y-90161313D02*
G01*
X135327242Y-90209976D01*
X135459906Y-90280886D01*
X135475078Y-90288996D01*
X135604659Y-90395341D01*
X135711004Y-90524922D01*
X135711005Y-90524924D01*
X135790024Y-90672758D01*
X135838687Y-90833177D01*
X135855117Y-91000000D01*
X135838687Y-91166823D01*
X135790024Y-91327242D01*
X135719114Y-91459906D01*
X135711004Y-91475078D01*
X135604659Y-91604659D01*
X135475078Y-91711004D01*
X135475076Y-91711005D01*
X135327242Y-91790024D01*
X135166823Y-91838687D01*
X135041804Y-91851000D01*
X134958196Y-91851000D01*
X134833177Y-91838687D01*
X134672758Y-91790024D01*
X134524924Y-91711005D01*
X134524922Y-91711004D01*
X134395341Y-91604659D01*
X134288996Y-91475078D01*
X134280886Y-91459906D01*
X134209976Y-91327242D01*
X134161313Y-91166823D01*
X134144883Y-91000000D01*
X134161313Y-90833177D01*
X134209976Y-90672758D01*
X134288995Y-90524924D01*
X134288996Y-90524922D01*
X134395341Y-90395341D01*
X134524922Y-90288996D01*
X134540094Y-90280886D01*
X134672758Y-90209976D01*
X134833177Y-90161313D01*
X134958196Y-90149000D01*
X135041804Y-90149000D01*
X135166823Y-90161313D01*
X135166823Y-90161313D01*
G37*
G36*
X132626823Y-90161313D02*
G01*
X132787242Y-90209976D01*
X132919906Y-90280886D01*
X132935078Y-90288996D01*
X133064659Y-90395341D01*
X133171004Y-90524922D01*
X133171005Y-90524924D01*
X133250024Y-90672758D01*
X133298687Y-90833177D01*
X133315117Y-91000000D01*
X133298687Y-91166823D01*
X133250024Y-91327242D01*
X133179114Y-91459906D01*
X133171004Y-91475078D01*
X133064659Y-91604659D01*
X132935078Y-91711004D01*
X132935076Y-91711005D01*
X132787242Y-91790024D01*
X132626823Y-91838687D01*
X132501804Y-91851000D01*
X132418196Y-91851000D01*
X132293177Y-91838687D01*
X132132758Y-91790024D01*
X131984924Y-91711005D01*
X131984922Y-91711004D01*
X131855341Y-91604659D01*
X131748996Y-91475078D01*
X131740886Y-91459906D01*
X131669976Y-91327242D01*
X131621313Y-91166823D01*
X131604883Y-91000000D01*
X131621313Y-90833177D01*
X131669976Y-90672758D01*
X131748995Y-90524924D01*
X131748996Y-90524922D01*
X131855341Y-90395341D01*
X131984922Y-90288996D01*
X132000094Y-90280886D01*
X132132758Y-90209976D01*
X132293177Y-90161313D01*
X132418196Y-90149000D01*
X132501804Y-90149000D01*
X132626823Y-90161313D01*
X132626823Y-90161313D01*
G37*
G36*
X130086823Y-90161313D02*
G01*
X130247242Y-90209976D01*
X130379906Y-90280886D01*
X130395078Y-90288996D01*
X130524659Y-90395341D01*
X130631004Y-90524922D01*
X130631005Y-90524924D01*
X130710024Y-90672758D01*
X130758687Y-90833177D01*
X130775117Y-91000000D01*
X130758687Y-91166823D01*
X130710024Y-91327242D01*
X130639114Y-91459906D01*
X130631004Y-91475078D01*
X130524659Y-91604659D01*
X130395078Y-91711004D01*
X130395076Y-91711005D01*
X130247242Y-91790024D01*
X130086823Y-91838687D01*
X129961804Y-91851000D01*
X129878196Y-91851000D01*
X129753177Y-91838687D01*
X129592758Y-91790024D01*
X129444924Y-91711005D01*
X129444922Y-91711004D01*
X129315341Y-91604659D01*
X129208996Y-91475078D01*
X129200886Y-91459906D01*
X129129976Y-91327242D01*
X129081313Y-91166823D01*
X129064883Y-91000000D01*
X129081313Y-90833177D01*
X129129976Y-90672758D01*
X129208995Y-90524924D01*
X129208996Y-90524922D01*
X129315341Y-90395341D01*
X129444922Y-90288996D01*
X129460094Y-90280886D01*
X129592758Y-90209976D01*
X129753177Y-90161313D01*
X129878196Y-90149000D01*
X129961804Y-90149000D01*
X130086823Y-90161313D01*
X130086823Y-90161313D01*
G37*
G36*
X125006823Y-90161313D02*
G01*
X125167242Y-90209976D01*
X125299906Y-90280886D01*
X125315078Y-90288996D01*
X125444659Y-90395341D01*
X125551004Y-90524922D01*
X125551005Y-90524924D01*
X125630024Y-90672758D01*
X125678687Y-90833177D01*
X125695117Y-91000000D01*
X125678687Y-91166823D01*
X125630024Y-91327242D01*
X125559114Y-91459906D01*
X125551004Y-91475078D01*
X125444659Y-91604659D01*
X125315078Y-91711004D01*
X125315076Y-91711005D01*
X125167242Y-91790024D01*
X125006823Y-91838687D01*
X124881804Y-91851000D01*
X124798196Y-91851000D01*
X124673177Y-91838687D01*
X124512758Y-91790024D01*
X124364924Y-91711005D01*
X124364922Y-91711004D01*
X124235341Y-91604659D01*
X124128996Y-91475078D01*
X124120886Y-91459906D01*
X124049976Y-91327242D01*
X124001313Y-91166823D01*
X123984883Y-91000000D01*
X124001313Y-90833177D01*
X124049976Y-90672758D01*
X124128995Y-90524924D01*
X124128996Y-90524922D01*
X124235341Y-90395341D01*
X124364922Y-90288996D01*
X124380094Y-90280886D01*
X124512758Y-90209976D01*
X124673177Y-90161313D01*
X124798196Y-90149000D01*
X124881804Y-90149000D01*
X125006823Y-90161313D01*
X125006823Y-90161313D01*
G37*
G36*
X127546823Y-90161313D02*
G01*
X127707242Y-90209976D01*
X127839906Y-90280886D01*
X127855078Y-90288996D01*
X127984659Y-90395341D01*
X128091004Y-90524922D01*
X128091005Y-90524924D01*
X128170024Y-90672758D01*
X128218687Y-90833177D01*
X128235117Y-91000000D01*
X128218687Y-91166823D01*
X128170024Y-91327242D01*
X128099114Y-91459906D01*
X128091004Y-91475078D01*
X127984659Y-91604659D01*
X127855078Y-91711004D01*
X127855076Y-91711005D01*
X127707242Y-91790024D01*
X127546823Y-91838687D01*
X127421804Y-91851000D01*
X127338196Y-91851000D01*
X127213177Y-91838687D01*
X127052758Y-91790024D01*
X126904924Y-91711005D01*
X126904922Y-91711004D01*
X126775341Y-91604659D01*
X126668996Y-91475078D01*
X126660886Y-91459906D01*
X126589976Y-91327242D01*
X126541313Y-91166823D01*
X126524883Y-91000000D01*
X126541313Y-90833177D01*
X126589976Y-90672758D01*
X126668995Y-90524924D01*
X126668996Y-90524922D01*
X126775341Y-90395341D01*
X126904922Y-90288996D01*
X126920094Y-90280886D01*
X127052758Y-90209976D01*
X127213177Y-90161313D01*
X127338196Y-90149000D01*
X127421804Y-90149000D01*
X127546823Y-90161313D01*
X127546823Y-90161313D01*
G37*
G36*
X100291000Y-91851000D02*
G01*
X98589000Y-91851000D01*
X98589000Y-90149000D01*
X100291000Y-90149000D01*
X100291000Y-91851000D01*
X100291000Y-91851000D01*
G37*
G36*
X104686823Y-90161313D02*
G01*
X104847242Y-90209976D01*
X104979906Y-90280886D01*
X104995078Y-90288996D01*
X105124659Y-90395341D01*
X105231004Y-90524922D01*
X105231005Y-90524924D01*
X105310024Y-90672758D01*
X105358687Y-90833177D01*
X105375117Y-91000000D01*
X105358687Y-91166823D01*
X105310024Y-91327242D01*
X105239114Y-91459906D01*
X105231004Y-91475078D01*
X105124659Y-91604659D01*
X104995078Y-91711004D01*
X104995076Y-91711005D01*
X104847242Y-91790024D01*
X104686823Y-91838687D01*
X104561804Y-91851000D01*
X104478196Y-91851000D01*
X104353177Y-91838687D01*
X104192758Y-91790024D01*
X104044924Y-91711005D01*
X104044922Y-91711004D01*
X103915341Y-91604659D01*
X103808996Y-91475078D01*
X103800886Y-91459906D01*
X103729976Y-91327242D01*
X103681313Y-91166823D01*
X103664883Y-91000000D01*
X103681313Y-90833177D01*
X103729976Y-90672758D01*
X103808995Y-90524924D01*
X103808996Y-90524922D01*
X103915341Y-90395341D01*
X104044922Y-90288996D01*
X104060094Y-90280886D01*
X104192758Y-90209976D01*
X104353177Y-90161313D01*
X104478196Y-90149000D01*
X104561804Y-90149000D01*
X104686823Y-90161313D01*
X104686823Y-90161313D01*
G37*
G36*
X102146823Y-90161313D02*
G01*
X102307242Y-90209976D01*
X102439906Y-90280886D01*
X102455078Y-90288996D01*
X102584659Y-90395341D01*
X102691004Y-90524922D01*
X102691005Y-90524924D01*
X102770024Y-90672758D01*
X102818687Y-90833177D01*
X102835117Y-91000000D01*
X102818687Y-91166823D01*
X102770024Y-91327242D01*
X102699114Y-91459906D01*
X102691004Y-91475078D01*
X102584659Y-91604659D01*
X102455078Y-91711004D01*
X102455076Y-91711005D01*
X102307242Y-91790024D01*
X102146823Y-91838687D01*
X102021804Y-91851000D01*
X101938196Y-91851000D01*
X101813177Y-91838687D01*
X101652758Y-91790024D01*
X101504924Y-91711005D01*
X101504922Y-91711004D01*
X101375341Y-91604659D01*
X101268996Y-91475078D01*
X101260886Y-91459906D01*
X101189976Y-91327242D01*
X101141313Y-91166823D01*
X101124883Y-91000000D01*
X101141313Y-90833177D01*
X101189976Y-90672758D01*
X101268995Y-90524924D01*
X101268996Y-90524922D01*
X101375341Y-90395341D01*
X101504922Y-90288996D01*
X101520094Y-90280886D01*
X101652758Y-90209976D01*
X101813177Y-90161313D01*
X101938196Y-90149000D01*
X102021804Y-90149000D01*
X102146823Y-90161313D01*
X102146823Y-90161313D01*
G37*
G36*
X119926823Y-90161313D02*
G01*
X120087242Y-90209976D01*
X120219906Y-90280886D01*
X120235078Y-90288996D01*
X120364659Y-90395341D01*
X120471004Y-90524922D01*
X120471005Y-90524924D01*
X120550024Y-90672758D01*
X120598687Y-90833177D01*
X120615117Y-91000000D01*
X120598687Y-91166823D01*
X120550024Y-91327242D01*
X120479114Y-91459906D01*
X120471004Y-91475078D01*
X120364659Y-91604659D01*
X120235078Y-91711004D01*
X120235076Y-91711005D01*
X120087242Y-91790024D01*
X119926823Y-91838687D01*
X119801804Y-91851000D01*
X119718196Y-91851000D01*
X119593177Y-91838687D01*
X119432758Y-91790024D01*
X119284924Y-91711005D01*
X119284922Y-91711004D01*
X119155341Y-91604659D01*
X119048996Y-91475078D01*
X119040886Y-91459906D01*
X118969976Y-91327242D01*
X118921313Y-91166823D01*
X118904883Y-91000000D01*
X118921313Y-90833177D01*
X118969976Y-90672758D01*
X119048995Y-90524924D01*
X119048996Y-90524922D01*
X119155341Y-90395341D01*
X119284922Y-90288996D01*
X119300094Y-90280886D01*
X119432758Y-90209976D01*
X119593177Y-90161313D01*
X119718196Y-90149000D01*
X119801804Y-90149000D01*
X119926823Y-90161313D01*
X119926823Y-90161313D01*
G37*
G36*
X117386823Y-90161313D02*
G01*
X117547242Y-90209976D01*
X117679906Y-90280886D01*
X117695078Y-90288996D01*
X117824659Y-90395341D01*
X117931004Y-90524922D01*
X117931005Y-90524924D01*
X118010024Y-90672758D01*
X118058687Y-90833177D01*
X118075117Y-91000000D01*
X118058687Y-91166823D01*
X118010024Y-91327242D01*
X117939114Y-91459906D01*
X117931004Y-91475078D01*
X117824659Y-91604659D01*
X117695078Y-91711004D01*
X117695076Y-91711005D01*
X117547242Y-91790024D01*
X117386823Y-91838687D01*
X117261804Y-91851000D01*
X117178196Y-91851000D01*
X117053177Y-91838687D01*
X116892758Y-91790024D01*
X116744924Y-91711005D01*
X116744922Y-91711004D01*
X116615341Y-91604659D01*
X116508996Y-91475078D01*
X116500886Y-91459906D01*
X116429976Y-91327242D01*
X116381313Y-91166823D01*
X116364883Y-91000000D01*
X116381313Y-90833177D01*
X116429976Y-90672758D01*
X116508995Y-90524924D01*
X116508996Y-90524922D01*
X116615341Y-90395341D01*
X116744922Y-90288996D01*
X116760094Y-90280886D01*
X116892758Y-90209976D01*
X117053177Y-90161313D01*
X117178196Y-90149000D01*
X117261804Y-90149000D01*
X117386823Y-90161313D01*
X117386823Y-90161313D01*
G37*
G36*
X114846823Y-90161313D02*
G01*
X115007242Y-90209976D01*
X115139906Y-90280886D01*
X115155078Y-90288996D01*
X115284659Y-90395341D01*
X115391004Y-90524922D01*
X115391005Y-90524924D01*
X115470024Y-90672758D01*
X115518687Y-90833177D01*
X115535117Y-91000000D01*
X115518687Y-91166823D01*
X115470024Y-91327242D01*
X115399114Y-91459906D01*
X115391004Y-91475078D01*
X115284659Y-91604659D01*
X115155078Y-91711004D01*
X115155076Y-91711005D01*
X115007242Y-91790024D01*
X114846823Y-91838687D01*
X114721804Y-91851000D01*
X114638196Y-91851000D01*
X114513177Y-91838687D01*
X114352758Y-91790024D01*
X114204924Y-91711005D01*
X114204922Y-91711004D01*
X114075341Y-91604659D01*
X113968996Y-91475078D01*
X113960886Y-91459906D01*
X113889976Y-91327242D01*
X113841313Y-91166823D01*
X113824883Y-91000000D01*
X113841313Y-90833177D01*
X113889976Y-90672758D01*
X113968995Y-90524924D01*
X113968996Y-90524922D01*
X114075341Y-90395341D01*
X114204922Y-90288996D01*
X114220094Y-90280886D01*
X114352758Y-90209976D01*
X114513177Y-90161313D01*
X114638196Y-90149000D01*
X114721804Y-90149000D01*
X114846823Y-90161313D01*
X114846823Y-90161313D01*
G37*
G36*
X109766823Y-90161313D02*
G01*
X109927242Y-90209976D01*
X110059906Y-90280886D01*
X110075078Y-90288996D01*
X110204659Y-90395341D01*
X110311004Y-90524922D01*
X110311005Y-90524924D01*
X110390024Y-90672758D01*
X110438687Y-90833177D01*
X110455117Y-91000000D01*
X110438687Y-91166823D01*
X110390024Y-91327242D01*
X110319114Y-91459906D01*
X110311004Y-91475078D01*
X110204659Y-91604659D01*
X110075078Y-91711004D01*
X110075076Y-91711005D01*
X109927242Y-91790024D01*
X109766823Y-91838687D01*
X109641804Y-91851000D01*
X109558196Y-91851000D01*
X109433177Y-91838687D01*
X109272758Y-91790024D01*
X109124924Y-91711005D01*
X109124922Y-91711004D01*
X108995341Y-91604659D01*
X108888996Y-91475078D01*
X108880886Y-91459906D01*
X108809976Y-91327242D01*
X108761313Y-91166823D01*
X108744883Y-91000000D01*
X108761313Y-90833177D01*
X108809976Y-90672758D01*
X108888995Y-90524924D01*
X108888996Y-90524922D01*
X108995341Y-90395341D01*
X109124922Y-90288996D01*
X109140094Y-90280886D01*
X109272758Y-90209976D01*
X109433177Y-90161313D01*
X109558196Y-90149000D01*
X109641804Y-90149000D01*
X109766823Y-90161313D01*
X109766823Y-90161313D01*
G37*
G36*
X107226823Y-90161313D02*
G01*
X107387242Y-90209976D01*
X107519906Y-90280886D01*
X107535078Y-90288996D01*
X107664659Y-90395341D01*
X107771004Y-90524922D01*
X107771005Y-90524924D01*
X107850024Y-90672758D01*
X107898687Y-90833177D01*
X107915117Y-91000000D01*
X107898687Y-91166823D01*
X107850024Y-91327242D01*
X107779114Y-91459906D01*
X107771004Y-91475078D01*
X107664659Y-91604659D01*
X107535078Y-91711004D01*
X107535076Y-91711005D01*
X107387242Y-91790024D01*
X107226823Y-91838687D01*
X107101804Y-91851000D01*
X107018196Y-91851000D01*
X106893177Y-91838687D01*
X106732758Y-91790024D01*
X106584924Y-91711005D01*
X106584922Y-91711004D01*
X106455341Y-91604659D01*
X106348996Y-91475078D01*
X106340886Y-91459906D01*
X106269976Y-91327242D01*
X106221313Y-91166823D01*
X106204883Y-91000000D01*
X106221313Y-90833177D01*
X106269976Y-90672758D01*
X106348995Y-90524924D01*
X106348996Y-90524922D01*
X106455341Y-90395341D01*
X106584922Y-90288996D01*
X106600094Y-90280886D01*
X106732758Y-90209976D01*
X106893177Y-90161313D01*
X107018196Y-90149000D01*
X107101804Y-90149000D01*
X107226823Y-90161313D01*
X107226823Y-90161313D01*
G37*
G36*
X112306823Y-90161313D02*
G01*
X112467242Y-90209976D01*
X112599906Y-90280886D01*
X112615078Y-90288996D01*
X112744659Y-90395341D01*
X112851004Y-90524922D01*
X112851005Y-90524924D01*
X112930024Y-90672758D01*
X112978687Y-90833177D01*
X112995117Y-91000000D01*
X112978687Y-91166823D01*
X112930024Y-91327242D01*
X112859114Y-91459906D01*
X112851004Y-91475078D01*
X112744659Y-91604659D01*
X112615078Y-91711004D01*
X112615076Y-91711005D01*
X112467242Y-91790024D01*
X112306823Y-91838687D01*
X112181804Y-91851000D01*
X112098196Y-91851000D01*
X111973177Y-91838687D01*
X111812758Y-91790024D01*
X111664924Y-91711005D01*
X111664922Y-91711004D01*
X111535341Y-91604659D01*
X111428996Y-91475078D01*
X111420886Y-91459906D01*
X111349976Y-91327242D01*
X111301313Y-91166823D01*
X111284883Y-91000000D01*
X111301313Y-90833177D01*
X111349976Y-90672758D01*
X111428995Y-90524924D01*
X111428996Y-90524922D01*
X111535341Y-90395341D01*
X111664922Y-90288996D01*
X111680094Y-90280886D01*
X111812758Y-90209976D01*
X111973177Y-90161313D01*
X112098196Y-90149000D01*
X112181804Y-90149000D01*
X112306823Y-90161313D01*
X112306823Y-90161313D01*
G37*
G36*
X185310442Y-75325518D02*
G01*
X185376627Y-75332037D01*
X185546466Y-75383557D01*
X185702991Y-75467222D01*
X185738729Y-75496552D01*
X185840186Y-75579814D01*
X185923448Y-75681271D01*
X185952778Y-75717009D01*
X186036443Y-75873534D01*
X186087963Y-76043373D01*
X186105359Y-76220000D01*
X186087963Y-76396627D01*
X186036443Y-76566466D01*
X185952778Y-76722991D01*
X185923448Y-76758729D01*
X185840186Y-76860186D01*
X185738729Y-76943448D01*
X185702991Y-76972778D01*
X185546466Y-77056443D01*
X185376627Y-77107963D01*
X185310442Y-77114482D01*
X185244260Y-77121000D01*
X185155740Y-77121000D01*
X185089558Y-77114482D01*
X185023373Y-77107963D01*
X184853534Y-77056443D01*
X184697009Y-76972778D01*
X184661271Y-76943448D01*
X184559814Y-76860186D01*
X184476552Y-76758729D01*
X184447222Y-76722991D01*
X184363557Y-76566466D01*
X184312037Y-76396627D01*
X184294641Y-76220000D01*
X184312037Y-76043373D01*
X184363557Y-75873534D01*
X184447222Y-75717009D01*
X184476552Y-75681271D01*
X184559814Y-75579814D01*
X184661271Y-75496552D01*
X184697009Y-75467222D01*
X184853534Y-75383557D01*
X185023373Y-75332037D01*
X185089558Y-75325518D01*
X185155740Y-75319000D01*
X185244260Y-75319000D01*
X185310442Y-75325518D01*
X185310442Y-75325518D01*
G37*
G36*
X112306823Y-74921313D02*
G01*
X112467242Y-74969976D01*
X112599906Y-75040886D01*
X112615078Y-75048996D01*
X112744659Y-75155341D01*
X112851004Y-75284922D01*
X112851005Y-75284924D01*
X112930024Y-75432758D01*
X112978687Y-75593177D01*
X112995117Y-75760000D01*
X112978687Y-75926823D01*
X112930024Y-76087242D01*
X112859114Y-76219906D01*
X112851004Y-76235078D01*
X112744659Y-76364659D01*
X112615078Y-76471004D01*
X112615076Y-76471005D01*
X112467242Y-76550024D01*
X112306823Y-76598687D01*
X112181804Y-76611000D01*
X112098196Y-76611000D01*
X111973177Y-76598687D01*
X111812758Y-76550024D01*
X111664924Y-76471005D01*
X111664922Y-76471004D01*
X111535341Y-76364659D01*
X111428996Y-76235078D01*
X111420886Y-76219906D01*
X111349976Y-76087242D01*
X111301313Y-75926823D01*
X111284883Y-75760000D01*
X111301313Y-75593177D01*
X111349976Y-75432758D01*
X111428995Y-75284924D01*
X111428996Y-75284922D01*
X111535341Y-75155341D01*
X111664922Y-75048996D01*
X111680094Y-75040886D01*
X111812758Y-74969976D01*
X111973177Y-74921313D01*
X112098196Y-74909000D01*
X112181804Y-74909000D01*
X112306823Y-74921313D01*
X112306823Y-74921313D01*
G37*
G36*
X135166823Y-74921313D02*
G01*
X135327242Y-74969976D01*
X135459906Y-75040886D01*
X135475078Y-75048996D01*
X135604659Y-75155341D01*
X135711004Y-75284922D01*
X135711005Y-75284924D01*
X135790024Y-75432758D01*
X135838687Y-75593177D01*
X135855117Y-75760000D01*
X135838687Y-75926823D01*
X135790024Y-76087242D01*
X135719114Y-76219906D01*
X135711004Y-76235078D01*
X135604659Y-76364659D01*
X135475078Y-76471004D01*
X135475076Y-76471005D01*
X135327242Y-76550024D01*
X135166823Y-76598687D01*
X135041804Y-76611000D01*
X134958196Y-76611000D01*
X134833177Y-76598687D01*
X134672758Y-76550024D01*
X134524924Y-76471005D01*
X134524922Y-76471004D01*
X134395341Y-76364659D01*
X134288996Y-76235078D01*
X134280886Y-76219906D01*
X134209976Y-76087242D01*
X134161313Y-75926823D01*
X134144883Y-75760000D01*
X134161313Y-75593177D01*
X134209976Y-75432758D01*
X134288995Y-75284924D01*
X134288996Y-75284922D01*
X134395341Y-75155341D01*
X134524922Y-75048996D01*
X134540094Y-75040886D01*
X134672758Y-74969976D01*
X134833177Y-74921313D01*
X134958196Y-74909000D01*
X135041804Y-74909000D01*
X135166823Y-74921313D01*
X135166823Y-74921313D01*
G37*
G36*
X132626823Y-74921313D02*
G01*
X132787242Y-74969976D01*
X132919906Y-75040886D01*
X132935078Y-75048996D01*
X133064659Y-75155341D01*
X133171004Y-75284922D01*
X133171005Y-75284924D01*
X133250024Y-75432758D01*
X133298687Y-75593177D01*
X133315117Y-75760000D01*
X133298687Y-75926823D01*
X133250024Y-76087242D01*
X133179114Y-76219906D01*
X133171004Y-76235078D01*
X133064659Y-76364659D01*
X132935078Y-76471004D01*
X132935076Y-76471005D01*
X132787242Y-76550024D01*
X132626823Y-76598687D01*
X132501804Y-76611000D01*
X132418196Y-76611000D01*
X132293177Y-76598687D01*
X132132758Y-76550024D01*
X131984924Y-76471005D01*
X131984922Y-76471004D01*
X131855341Y-76364659D01*
X131748996Y-76235078D01*
X131740886Y-76219906D01*
X131669976Y-76087242D01*
X131621313Y-75926823D01*
X131604883Y-75760000D01*
X131621313Y-75593177D01*
X131669976Y-75432758D01*
X131748995Y-75284924D01*
X131748996Y-75284922D01*
X131855341Y-75155341D01*
X131984922Y-75048996D01*
X132000094Y-75040886D01*
X132132758Y-74969976D01*
X132293177Y-74921313D01*
X132418196Y-74909000D01*
X132501804Y-74909000D01*
X132626823Y-74921313D01*
X132626823Y-74921313D01*
G37*
G36*
X127546823Y-74921313D02*
G01*
X127707242Y-74969976D01*
X127839906Y-75040886D01*
X127855078Y-75048996D01*
X127984659Y-75155341D01*
X128091004Y-75284922D01*
X128091005Y-75284924D01*
X128170024Y-75432758D01*
X128218687Y-75593177D01*
X128235117Y-75760000D01*
X128218687Y-75926823D01*
X128170024Y-76087242D01*
X128099114Y-76219906D01*
X128091004Y-76235078D01*
X127984659Y-76364659D01*
X127855078Y-76471004D01*
X127855076Y-76471005D01*
X127707242Y-76550024D01*
X127546823Y-76598687D01*
X127421804Y-76611000D01*
X127338196Y-76611000D01*
X127213177Y-76598687D01*
X127052758Y-76550024D01*
X126904924Y-76471005D01*
X126904922Y-76471004D01*
X126775341Y-76364659D01*
X126668996Y-76235078D01*
X126660886Y-76219906D01*
X126589976Y-76087242D01*
X126541313Y-75926823D01*
X126524883Y-75760000D01*
X126541313Y-75593177D01*
X126589976Y-75432758D01*
X126668995Y-75284924D01*
X126668996Y-75284922D01*
X126775341Y-75155341D01*
X126904922Y-75048996D01*
X126920094Y-75040886D01*
X127052758Y-74969976D01*
X127213177Y-74921313D01*
X127338196Y-74909000D01*
X127421804Y-74909000D01*
X127546823Y-74921313D01*
X127546823Y-74921313D01*
G37*
G36*
X114846823Y-74921313D02*
G01*
X115007242Y-74969976D01*
X115139906Y-75040886D01*
X115155078Y-75048996D01*
X115284659Y-75155341D01*
X115391004Y-75284922D01*
X115391005Y-75284924D01*
X115470024Y-75432758D01*
X115518687Y-75593177D01*
X115535117Y-75760000D01*
X115518687Y-75926823D01*
X115470024Y-76087242D01*
X115399114Y-76219906D01*
X115391004Y-76235078D01*
X115284659Y-76364659D01*
X115155078Y-76471004D01*
X115155076Y-76471005D01*
X115007242Y-76550024D01*
X114846823Y-76598687D01*
X114721804Y-76611000D01*
X114638196Y-76611000D01*
X114513177Y-76598687D01*
X114352758Y-76550024D01*
X114204924Y-76471005D01*
X114204922Y-76471004D01*
X114075341Y-76364659D01*
X113968996Y-76235078D01*
X113960886Y-76219906D01*
X113889976Y-76087242D01*
X113841313Y-75926823D01*
X113824883Y-75760000D01*
X113841313Y-75593177D01*
X113889976Y-75432758D01*
X113968995Y-75284924D01*
X113968996Y-75284922D01*
X114075341Y-75155341D01*
X114204922Y-75048996D01*
X114220094Y-75040886D01*
X114352758Y-74969976D01*
X114513177Y-74921313D01*
X114638196Y-74909000D01*
X114721804Y-74909000D01*
X114846823Y-74921313D01*
X114846823Y-74921313D01*
G37*
G36*
X130086823Y-74921313D02*
G01*
X130247242Y-74969976D01*
X130379906Y-75040886D01*
X130395078Y-75048996D01*
X130524659Y-75155341D01*
X130631004Y-75284922D01*
X130631005Y-75284924D01*
X130710024Y-75432758D01*
X130758687Y-75593177D01*
X130775117Y-75760000D01*
X130758687Y-75926823D01*
X130710024Y-76087242D01*
X130639114Y-76219906D01*
X130631004Y-76235078D01*
X130524659Y-76364659D01*
X130395078Y-76471004D01*
X130395076Y-76471005D01*
X130247242Y-76550024D01*
X130086823Y-76598687D01*
X129961804Y-76611000D01*
X129878196Y-76611000D01*
X129753177Y-76598687D01*
X129592758Y-76550024D01*
X129444924Y-76471005D01*
X129444922Y-76471004D01*
X129315341Y-76364659D01*
X129208996Y-76235078D01*
X129200886Y-76219906D01*
X129129976Y-76087242D01*
X129081313Y-75926823D01*
X129064883Y-75760000D01*
X129081313Y-75593177D01*
X129129976Y-75432758D01*
X129208995Y-75284924D01*
X129208996Y-75284922D01*
X129315341Y-75155341D01*
X129444922Y-75048996D01*
X129460094Y-75040886D01*
X129592758Y-74969976D01*
X129753177Y-74921313D01*
X129878196Y-74909000D01*
X129961804Y-74909000D01*
X130086823Y-74921313D01*
X130086823Y-74921313D01*
G37*
G36*
X122466823Y-74921313D02*
G01*
X122627242Y-74969976D01*
X122759906Y-75040886D01*
X122775078Y-75048996D01*
X122904659Y-75155341D01*
X123011004Y-75284922D01*
X123011005Y-75284924D01*
X123090024Y-75432758D01*
X123138687Y-75593177D01*
X123155117Y-75760000D01*
X123138687Y-75926823D01*
X123090024Y-76087242D01*
X123019114Y-76219906D01*
X123011004Y-76235078D01*
X122904659Y-76364659D01*
X122775078Y-76471004D01*
X122775076Y-76471005D01*
X122627242Y-76550024D01*
X122466823Y-76598687D01*
X122341804Y-76611000D01*
X122258196Y-76611000D01*
X122133177Y-76598687D01*
X121972758Y-76550024D01*
X121824924Y-76471005D01*
X121824922Y-76471004D01*
X121695341Y-76364659D01*
X121588996Y-76235078D01*
X121580886Y-76219906D01*
X121509976Y-76087242D01*
X121461313Y-75926823D01*
X121444883Y-75760000D01*
X121461313Y-75593177D01*
X121509976Y-75432758D01*
X121588995Y-75284924D01*
X121588996Y-75284922D01*
X121695341Y-75155341D01*
X121824922Y-75048996D01*
X121840094Y-75040886D01*
X121972758Y-74969976D01*
X122133177Y-74921313D01*
X122258196Y-74909000D01*
X122341804Y-74909000D01*
X122466823Y-74921313D01*
X122466823Y-74921313D01*
G37*
G36*
X119926823Y-74921313D02*
G01*
X120087242Y-74969976D01*
X120219906Y-75040886D01*
X120235078Y-75048996D01*
X120364659Y-75155341D01*
X120471004Y-75284922D01*
X120471005Y-75284924D01*
X120550024Y-75432758D01*
X120598687Y-75593177D01*
X120615117Y-75760000D01*
X120598687Y-75926823D01*
X120550024Y-76087242D01*
X120479114Y-76219906D01*
X120471004Y-76235078D01*
X120364659Y-76364659D01*
X120235078Y-76471004D01*
X120235076Y-76471005D01*
X120087242Y-76550024D01*
X119926823Y-76598687D01*
X119801804Y-76611000D01*
X119718196Y-76611000D01*
X119593177Y-76598687D01*
X119432758Y-76550024D01*
X119284924Y-76471005D01*
X119284922Y-76471004D01*
X119155341Y-76364659D01*
X119048996Y-76235078D01*
X119040886Y-76219906D01*
X118969976Y-76087242D01*
X118921313Y-75926823D01*
X118904883Y-75760000D01*
X118921313Y-75593177D01*
X118969976Y-75432758D01*
X119048995Y-75284924D01*
X119048996Y-75284922D01*
X119155341Y-75155341D01*
X119284922Y-75048996D01*
X119300094Y-75040886D01*
X119432758Y-74969976D01*
X119593177Y-74921313D01*
X119718196Y-74909000D01*
X119801804Y-74909000D01*
X119926823Y-74921313D01*
X119926823Y-74921313D01*
G37*
G36*
X117386823Y-74921313D02*
G01*
X117547242Y-74969976D01*
X117679906Y-75040886D01*
X117695078Y-75048996D01*
X117824659Y-75155341D01*
X117931004Y-75284922D01*
X117931005Y-75284924D01*
X118010024Y-75432758D01*
X118058687Y-75593177D01*
X118075117Y-75760000D01*
X118058687Y-75926823D01*
X118010024Y-76087242D01*
X117939114Y-76219906D01*
X117931004Y-76235078D01*
X117824659Y-76364659D01*
X117695078Y-76471004D01*
X117695076Y-76471005D01*
X117547242Y-76550024D01*
X117386823Y-76598687D01*
X117261804Y-76611000D01*
X117178196Y-76611000D01*
X117053177Y-76598687D01*
X116892758Y-76550024D01*
X116744924Y-76471005D01*
X116744922Y-76471004D01*
X116615341Y-76364659D01*
X116508996Y-76235078D01*
X116500886Y-76219906D01*
X116429976Y-76087242D01*
X116381313Y-75926823D01*
X116364883Y-75760000D01*
X116381313Y-75593177D01*
X116429976Y-75432758D01*
X116508995Y-75284924D01*
X116508996Y-75284922D01*
X116615341Y-75155341D01*
X116744922Y-75048996D01*
X116760094Y-75040886D01*
X116892758Y-74969976D01*
X117053177Y-74921313D01*
X117178196Y-74909000D01*
X117261804Y-74909000D01*
X117386823Y-74921313D01*
X117386823Y-74921313D01*
G37*
G36*
X109766823Y-74921313D02*
G01*
X109927242Y-74969976D01*
X110059906Y-75040886D01*
X110075078Y-75048996D01*
X110204659Y-75155341D01*
X110311004Y-75284922D01*
X110311005Y-75284924D01*
X110390024Y-75432758D01*
X110438687Y-75593177D01*
X110455117Y-75760000D01*
X110438687Y-75926823D01*
X110390024Y-76087242D01*
X110319114Y-76219906D01*
X110311004Y-76235078D01*
X110204659Y-76364659D01*
X110075078Y-76471004D01*
X110075076Y-76471005D01*
X109927242Y-76550024D01*
X109766823Y-76598687D01*
X109641804Y-76611000D01*
X109558196Y-76611000D01*
X109433177Y-76598687D01*
X109272758Y-76550024D01*
X109124924Y-76471005D01*
X109124922Y-76471004D01*
X108995341Y-76364659D01*
X108888996Y-76235078D01*
X108880886Y-76219906D01*
X108809976Y-76087242D01*
X108761313Y-75926823D01*
X108744883Y-75760000D01*
X108761313Y-75593177D01*
X108809976Y-75432758D01*
X108888995Y-75284924D01*
X108888996Y-75284922D01*
X108995341Y-75155341D01*
X109124922Y-75048996D01*
X109140094Y-75040886D01*
X109272758Y-74969976D01*
X109433177Y-74921313D01*
X109558196Y-74909000D01*
X109641804Y-74909000D01*
X109766823Y-74921313D01*
X109766823Y-74921313D01*
G37*
G36*
X107226823Y-74921313D02*
G01*
X107387242Y-74969976D01*
X107519906Y-75040886D01*
X107535078Y-75048996D01*
X107664659Y-75155341D01*
X107771004Y-75284922D01*
X107771005Y-75284924D01*
X107850024Y-75432758D01*
X107898687Y-75593177D01*
X107915117Y-75760000D01*
X107898687Y-75926823D01*
X107850024Y-76087242D01*
X107779114Y-76219906D01*
X107771004Y-76235078D01*
X107664659Y-76364659D01*
X107535078Y-76471004D01*
X107535076Y-76471005D01*
X107387242Y-76550024D01*
X107226823Y-76598687D01*
X107101804Y-76611000D01*
X107018196Y-76611000D01*
X106893177Y-76598687D01*
X106732758Y-76550024D01*
X106584924Y-76471005D01*
X106584922Y-76471004D01*
X106455341Y-76364659D01*
X106348996Y-76235078D01*
X106340886Y-76219906D01*
X106269976Y-76087242D01*
X106221313Y-75926823D01*
X106204883Y-75760000D01*
X106221313Y-75593177D01*
X106269976Y-75432758D01*
X106348995Y-75284924D01*
X106348996Y-75284922D01*
X106455341Y-75155341D01*
X106584922Y-75048996D01*
X106600094Y-75040886D01*
X106732758Y-74969976D01*
X106893177Y-74921313D01*
X107018196Y-74909000D01*
X107101804Y-74909000D01*
X107226823Y-74921313D01*
X107226823Y-74921313D01*
G37*
G36*
X104686823Y-74921313D02*
G01*
X104847242Y-74969976D01*
X104979906Y-75040886D01*
X104995078Y-75048996D01*
X105124659Y-75155341D01*
X105231004Y-75284922D01*
X105231005Y-75284924D01*
X105310024Y-75432758D01*
X105358687Y-75593177D01*
X105375117Y-75760000D01*
X105358687Y-75926823D01*
X105310024Y-76087242D01*
X105239114Y-76219906D01*
X105231004Y-76235078D01*
X105124659Y-76364659D01*
X104995078Y-76471004D01*
X104995076Y-76471005D01*
X104847242Y-76550024D01*
X104686823Y-76598687D01*
X104561804Y-76611000D01*
X104478196Y-76611000D01*
X104353177Y-76598687D01*
X104192758Y-76550024D01*
X104044924Y-76471005D01*
X104044922Y-76471004D01*
X103915341Y-76364659D01*
X103808996Y-76235078D01*
X103800886Y-76219906D01*
X103729976Y-76087242D01*
X103681313Y-75926823D01*
X103664883Y-75760000D01*
X103681313Y-75593177D01*
X103729976Y-75432758D01*
X103808995Y-75284924D01*
X103808996Y-75284922D01*
X103915341Y-75155341D01*
X104044922Y-75048996D01*
X104060094Y-75040886D01*
X104192758Y-74969976D01*
X104353177Y-74921313D01*
X104478196Y-74909000D01*
X104561804Y-74909000D01*
X104686823Y-74921313D01*
X104686823Y-74921313D01*
G37*
G36*
X102146823Y-74921313D02*
G01*
X102307242Y-74969976D01*
X102439906Y-75040886D01*
X102455078Y-75048996D01*
X102584659Y-75155341D01*
X102691004Y-75284922D01*
X102691005Y-75284924D01*
X102770024Y-75432758D01*
X102818687Y-75593177D01*
X102835117Y-75760000D01*
X102818687Y-75926823D01*
X102770024Y-76087242D01*
X102699114Y-76219906D01*
X102691004Y-76235078D01*
X102584659Y-76364659D01*
X102455078Y-76471004D01*
X102455076Y-76471005D01*
X102307242Y-76550024D01*
X102146823Y-76598687D01*
X102021804Y-76611000D01*
X101938196Y-76611000D01*
X101813177Y-76598687D01*
X101652758Y-76550024D01*
X101504924Y-76471005D01*
X101504922Y-76471004D01*
X101375341Y-76364659D01*
X101268996Y-76235078D01*
X101260886Y-76219906D01*
X101189976Y-76087242D01*
X101141313Y-75926823D01*
X101124883Y-75760000D01*
X101141313Y-75593177D01*
X101189976Y-75432758D01*
X101268995Y-75284924D01*
X101268996Y-75284922D01*
X101375341Y-75155341D01*
X101504922Y-75048996D01*
X101520094Y-75040886D01*
X101652758Y-74969976D01*
X101813177Y-74921313D01*
X101938196Y-74909000D01*
X102021804Y-74909000D01*
X102146823Y-74921313D01*
X102146823Y-74921313D01*
G37*
G36*
X99606823Y-74921313D02*
G01*
X99767242Y-74969976D01*
X99899906Y-75040886D01*
X99915078Y-75048996D01*
X100044659Y-75155341D01*
X100151004Y-75284922D01*
X100151005Y-75284924D01*
X100230024Y-75432758D01*
X100278687Y-75593177D01*
X100295117Y-75760000D01*
X100278687Y-75926823D01*
X100230024Y-76087242D01*
X100159114Y-76219906D01*
X100151004Y-76235078D01*
X100044659Y-76364659D01*
X99915078Y-76471004D01*
X99915076Y-76471005D01*
X99767242Y-76550024D01*
X99606823Y-76598687D01*
X99481804Y-76611000D01*
X99398196Y-76611000D01*
X99273177Y-76598687D01*
X99112758Y-76550024D01*
X98964924Y-76471005D01*
X98964922Y-76471004D01*
X98835341Y-76364659D01*
X98728996Y-76235078D01*
X98720886Y-76219906D01*
X98649976Y-76087242D01*
X98601313Y-75926823D01*
X98584883Y-75760000D01*
X98601313Y-75593177D01*
X98649976Y-75432758D01*
X98728995Y-75284924D01*
X98728996Y-75284922D01*
X98835341Y-75155341D01*
X98964922Y-75048996D01*
X98980094Y-75040886D01*
X99112758Y-74969976D01*
X99273177Y-74921313D01*
X99398196Y-74909000D01*
X99481804Y-74909000D01*
X99606823Y-74921313D01*
X99606823Y-74921313D01*
G37*
G36*
X125006823Y-74921313D02*
G01*
X125167242Y-74969976D01*
X125299906Y-75040886D01*
X125315078Y-75048996D01*
X125444659Y-75155341D01*
X125551004Y-75284922D01*
X125551005Y-75284924D01*
X125630024Y-75432758D01*
X125678687Y-75593177D01*
X125695117Y-75760000D01*
X125678687Y-75926823D01*
X125630024Y-76087242D01*
X125559114Y-76219906D01*
X125551004Y-76235078D01*
X125444659Y-76364659D01*
X125315078Y-76471004D01*
X125315076Y-76471005D01*
X125167242Y-76550024D01*
X125006823Y-76598687D01*
X124881804Y-76611000D01*
X124798196Y-76611000D01*
X124673177Y-76598687D01*
X124512758Y-76550024D01*
X124364924Y-76471005D01*
X124364922Y-76471004D01*
X124235341Y-76364659D01*
X124128996Y-76235078D01*
X124120886Y-76219906D01*
X124049976Y-76087242D01*
X124001313Y-75926823D01*
X123984883Y-75760000D01*
X124001313Y-75593177D01*
X124049976Y-75432758D01*
X124128995Y-75284924D01*
X124128996Y-75284922D01*
X124235341Y-75155341D01*
X124364922Y-75048996D01*
X124380094Y-75040886D01*
X124512758Y-74969976D01*
X124673177Y-74921313D01*
X124798196Y-74909000D01*
X124881804Y-74909000D01*
X125006823Y-74921313D01*
X125006823Y-74921313D01*
G37*
G36*
X185310442Y-72785518D02*
G01*
X185376627Y-72792037D01*
X185546466Y-72843557D01*
X185702991Y-72927222D01*
X185738729Y-72956552D01*
X185840186Y-73039814D01*
X185923448Y-73141271D01*
X185952778Y-73177009D01*
X186036443Y-73333534D01*
X186087963Y-73503373D01*
X186105359Y-73680000D01*
X186087963Y-73856627D01*
X186036443Y-74026466D01*
X185952778Y-74182991D01*
X185923448Y-74218729D01*
X185840186Y-74320186D01*
X185738729Y-74403448D01*
X185702991Y-74432778D01*
X185546466Y-74516443D01*
X185376627Y-74567963D01*
X185310443Y-74574481D01*
X185244260Y-74581000D01*
X185155740Y-74581000D01*
X185089557Y-74574481D01*
X185023373Y-74567963D01*
X184853534Y-74516443D01*
X184697009Y-74432778D01*
X184661271Y-74403448D01*
X184559814Y-74320186D01*
X184476552Y-74218729D01*
X184447222Y-74182991D01*
X184363557Y-74026466D01*
X184312037Y-73856627D01*
X184294641Y-73680000D01*
X184312037Y-73503373D01*
X184363557Y-73333534D01*
X184447222Y-73177009D01*
X184476552Y-73141271D01*
X184559814Y-73039814D01*
X184661271Y-72956552D01*
X184697009Y-72927222D01*
X184853534Y-72843557D01*
X185023373Y-72792037D01*
X185089558Y-72785518D01*
X185155740Y-72779000D01*
X185244260Y-72779000D01*
X185310442Y-72785518D01*
X185310442Y-72785518D01*
G37*
G36*
X185310443Y-70245519D02*
G01*
X185376627Y-70252037D01*
X185546466Y-70303557D01*
X185702991Y-70387222D01*
X185738729Y-70416552D01*
X185840186Y-70499814D01*
X185923448Y-70601271D01*
X185952778Y-70637009D01*
X186036443Y-70793534D01*
X186087963Y-70963373D01*
X186105359Y-71140000D01*
X186087963Y-71316627D01*
X186036443Y-71486466D01*
X185952778Y-71642991D01*
X185923448Y-71678729D01*
X185840186Y-71780186D01*
X185738729Y-71863448D01*
X185702991Y-71892778D01*
X185546466Y-71976443D01*
X185376627Y-72027963D01*
X185310442Y-72034482D01*
X185244260Y-72041000D01*
X185155740Y-72041000D01*
X185089558Y-72034482D01*
X185023373Y-72027963D01*
X184853534Y-71976443D01*
X184697009Y-71892778D01*
X184661271Y-71863448D01*
X184559814Y-71780186D01*
X184476552Y-71678729D01*
X184447222Y-71642991D01*
X184363557Y-71486466D01*
X184312037Y-71316627D01*
X184294641Y-71140000D01*
X184312037Y-70963373D01*
X184363557Y-70793534D01*
X184447222Y-70637009D01*
X184476552Y-70601271D01*
X184559814Y-70499814D01*
X184661271Y-70416552D01*
X184697009Y-70387222D01*
X184853534Y-70303557D01*
X185023373Y-70252037D01*
X185089557Y-70245519D01*
X185155740Y-70239000D01*
X185244260Y-70239000D01*
X185310443Y-70245519D01*
X185310443Y-70245519D01*
G37*
G36*
X119870442Y-70105518D02*
G01*
X119936627Y-70112037D01*
X120106466Y-70163557D01*
X120262991Y-70247222D01*
X120298729Y-70276552D01*
X120400186Y-70359814D01*
X120483448Y-70461271D01*
X120512778Y-70497009D01*
X120596443Y-70653534D01*
X120647963Y-70823373D01*
X120665359Y-71000000D01*
X120647963Y-71176627D01*
X120596443Y-71346466D01*
X120512778Y-71502991D01*
X120483448Y-71538729D01*
X120400186Y-71640186D01*
X120298729Y-71723448D01*
X120262991Y-71752778D01*
X120106466Y-71836443D01*
X119936627Y-71887963D01*
X119870443Y-71894481D01*
X119804260Y-71901000D01*
X119715740Y-71901000D01*
X119649557Y-71894481D01*
X119583373Y-71887963D01*
X119413534Y-71836443D01*
X119257009Y-71752778D01*
X119221271Y-71723448D01*
X119119814Y-71640186D01*
X119036552Y-71538729D01*
X119007222Y-71502991D01*
X118923557Y-71346466D01*
X118872037Y-71176627D01*
X118854641Y-71000000D01*
X118872037Y-70823373D01*
X118923557Y-70653534D01*
X119007222Y-70497009D01*
X119036552Y-70461271D01*
X119119814Y-70359814D01*
X119221271Y-70276552D01*
X119257009Y-70247222D01*
X119413534Y-70163557D01*
X119583373Y-70112037D01*
X119649558Y-70105518D01*
X119715740Y-70099000D01*
X119804260Y-70099000D01*
X119870442Y-70105518D01*
X119870442Y-70105518D01*
G37*
G36*
X135901000Y-71901000D02*
G01*
X134099000Y-71901000D01*
X134099000Y-70099000D01*
X135901000Y-70099000D01*
X135901000Y-71901000D01*
X135901000Y-71901000D01*
G37*
G36*
X132570442Y-70105518D02*
G01*
X132636627Y-70112037D01*
X132806466Y-70163557D01*
X132962991Y-70247222D01*
X132998729Y-70276552D01*
X133100186Y-70359814D01*
X133183448Y-70461271D01*
X133212778Y-70497009D01*
X133296443Y-70653534D01*
X133347963Y-70823373D01*
X133365359Y-71000000D01*
X133347963Y-71176627D01*
X133296443Y-71346466D01*
X133212778Y-71502991D01*
X133183448Y-71538729D01*
X133100186Y-71640186D01*
X132998729Y-71723448D01*
X132962991Y-71752778D01*
X132806466Y-71836443D01*
X132636627Y-71887963D01*
X132570443Y-71894481D01*
X132504260Y-71901000D01*
X132415740Y-71901000D01*
X132349557Y-71894481D01*
X132283373Y-71887963D01*
X132113534Y-71836443D01*
X131957009Y-71752778D01*
X131921271Y-71723448D01*
X131819814Y-71640186D01*
X131736552Y-71538729D01*
X131707222Y-71502991D01*
X131623557Y-71346466D01*
X131572037Y-71176627D01*
X131554641Y-71000000D01*
X131572037Y-70823373D01*
X131623557Y-70653534D01*
X131707222Y-70497009D01*
X131736552Y-70461271D01*
X131819814Y-70359814D01*
X131921271Y-70276552D01*
X131957009Y-70247222D01*
X132113534Y-70163557D01*
X132283373Y-70112037D01*
X132349558Y-70105518D01*
X132415740Y-70099000D01*
X132504260Y-70099000D01*
X132570442Y-70105518D01*
X132570442Y-70105518D01*
G37*
G36*
X130030442Y-70105518D02*
G01*
X130096627Y-70112037D01*
X130266466Y-70163557D01*
X130422991Y-70247222D01*
X130458729Y-70276552D01*
X130560186Y-70359814D01*
X130643448Y-70461271D01*
X130672778Y-70497009D01*
X130756443Y-70653534D01*
X130807963Y-70823373D01*
X130825359Y-71000000D01*
X130807963Y-71176627D01*
X130756443Y-71346466D01*
X130672778Y-71502991D01*
X130643448Y-71538729D01*
X130560186Y-71640186D01*
X130458729Y-71723448D01*
X130422991Y-71752778D01*
X130266466Y-71836443D01*
X130096627Y-71887963D01*
X130030443Y-71894481D01*
X129964260Y-71901000D01*
X129875740Y-71901000D01*
X129809557Y-71894481D01*
X129743373Y-71887963D01*
X129573534Y-71836443D01*
X129417009Y-71752778D01*
X129381271Y-71723448D01*
X129279814Y-71640186D01*
X129196552Y-71538729D01*
X129167222Y-71502991D01*
X129083557Y-71346466D01*
X129032037Y-71176627D01*
X129014641Y-71000000D01*
X129032037Y-70823373D01*
X129083557Y-70653534D01*
X129167222Y-70497009D01*
X129196552Y-70461271D01*
X129279814Y-70359814D01*
X129381271Y-70276552D01*
X129417009Y-70247222D01*
X129573534Y-70163557D01*
X129743373Y-70112037D01*
X129809558Y-70105518D01*
X129875740Y-70099000D01*
X129964260Y-70099000D01*
X130030442Y-70105518D01*
X130030442Y-70105518D01*
G37*
G36*
X124950442Y-70105518D02*
G01*
X125016627Y-70112037D01*
X125186466Y-70163557D01*
X125342991Y-70247222D01*
X125378729Y-70276552D01*
X125480186Y-70359814D01*
X125563448Y-70461271D01*
X125592778Y-70497009D01*
X125676443Y-70653534D01*
X125727963Y-70823373D01*
X125745359Y-71000000D01*
X125727963Y-71176627D01*
X125676443Y-71346466D01*
X125592778Y-71502991D01*
X125563448Y-71538729D01*
X125480186Y-71640186D01*
X125378729Y-71723448D01*
X125342991Y-71752778D01*
X125186466Y-71836443D01*
X125016627Y-71887963D01*
X124950443Y-71894481D01*
X124884260Y-71901000D01*
X124795740Y-71901000D01*
X124729557Y-71894481D01*
X124663373Y-71887963D01*
X124493534Y-71836443D01*
X124337009Y-71752778D01*
X124301271Y-71723448D01*
X124199814Y-71640186D01*
X124116552Y-71538729D01*
X124087222Y-71502991D01*
X124003557Y-71346466D01*
X123952037Y-71176627D01*
X123934641Y-71000000D01*
X123952037Y-70823373D01*
X124003557Y-70653534D01*
X124087222Y-70497009D01*
X124116552Y-70461271D01*
X124199814Y-70359814D01*
X124301271Y-70276552D01*
X124337009Y-70247222D01*
X124493534Y-70163557D01*
X124663373Y-70112037D01*
X124729558Y-70105518D01*
X124795740Y-70099000D01*
X124884260Y-70099000D01*
X124950442Y-70105518D01*
X124950442Y-70105518D01*
G37*
G36*
X127490442Y-70105518D02*
G01*
X127556627Y-70112037D01*
X127726466Y-70163557D01*
X127882991Y-70247222D01*
X127918729Y-70276552D01*
X128020186Y-70359814D01*
X128103448Y-70461271D01*
X128132778Y-70497009D01*
X128216443Y-70653534D01*
X128267963Y-70823373D01*
X128285359Y-71000000D01*
X128267963Y-71176627D01*
X128216443Y-71346466D01*
X128132778Y-71502991D01*
X128103448Y-71538729D01*
X128020186Y-71640186D01*
X127918729Y-71723448D01*
X127882991Y-71752778D01*
X127726466Y-71836443D01*
X127556627Y-71887963D01*
X127490443Y-71894481D01*
X127424260Y-71901000D01*
X127335740Y-71901000D01*
X127269557Y-71894481D01*
X127203373Y-71887963D01*
X127033534Y-71836443D01*
X126877009Y-71752778D01*
X126841271Y-71723448D01*
X126739814Y-71640186D01*
X126656552Y-71538729D01*
X126627222Y-71502991D01*
X126543557Y-71346466D01*
X126492037Y-71176627D01*
X126474641Y-71000000D01*
X126492037Y-70823373D01*
X126543557Y-70653534D01*
X126627222Y-70497009D01*
X126656552Y-70461271D01*
X126739814Y-70359814D01*
X126841271Y-70276552D01*
X126877009Y-70247222D01*
X127033534Y-70163557D01*
X127203373Y-70112037D01*
X127269558Y-70105518D01*
X127335740Y-70099000D01*
X127424260Y-70099000D01*
X127490442Y-70105518D01*
X127490442Y-70105518D01*
G37*
G36*
X122410442Y-70105518D02*
G01*
X122476627Y-70112037D01*
X122646466Y-70163557D01*
X122802991Y-70247222D01*
X122838729Y-70276552D01*
X122940186Y-70359814D01*
X123023448Y-70461271D01*
X123052778Y-70497009D01*
X123136443Y-70653534D01*
X123187963Y-70823373D01*
X123205359Y-71000000D01*
X123187963Y-71176627D01*
X123136443Y-71346466D01*
X123052778Y-71502991D01*
X123023448Y-71538729D01*
X122940186Y-71640186D01*
X122838729Y-71723448D01*
X122802991Y-71752778D01*
X122646466Y-71836443D01*
X122476627Y-71887963D01*
X122410443Y-71894481D01*
X122344260Y-71901000D01*
X122255740Y-71901000D01*
X122189557Y-71894481D01*
X122123373Y-71887963D01*
X121953534Y-71836443D01*
X121797009Y-71752778D01*
X121761271Y-71723448D01*
X121659814Y-71640186D01*
X121576552Y-71538729D01*
X121547222Y-71502991D01*
X121463557Y-71346466D01*
X121412037Y-71176627D01*
X121394641Y-71000000D01*
X121412037Y-70823373D01*
X121463557Y-70653534D01*
X121547222Y-70497009D01*
X121576552Y-70461271D01*
X121659814Y-70359814D01*
X121761271Y-70276552D01*
X121797009Y-70247222D01*
X121953534Y-70163557D01*
X122123373Y-70112037D01*
X122189558Y-70105518D01*
X122255740Y-70099000D01*
X122344260Y-70099000D01*
X122410442Y-70105518D01*
X122410442Y-70105518D01*
G37*
G36*
X117330442Y-70105518D02*
G01*
X117396627Y-70112037D01*
X117566466Y-70163557D01*
X117722991Y-70247222D01*
X117758729Y-70276552D01*
X117860186Y-70359814D01*
X117943448Y-70461271D01*
X117972778Y-70497009D01*
X118056443Y-70653534D01*
X118107963Y-70823373D01*
X118125359Y-71000000D01*
X118107963Y-71176627D01*
X118056443Y-71346466D01*
X117972778Y-71502991D01*
X117943448Y-71538729D01*
X117860186Y-71640186D01*
X117758729Y-71723448D01*
X117722991Y-71752778D01*
X117566466Y-71836443D01*
X117396627Y-71887963D01*
X117330443Y-71894481D01*
X117264260Y-71901000D01*
X117175740Y-71901000D01*
X117109557Y-71894481D01*
X117043373Y-71887963D01*
X116873534Y-71836443D01*
X116717009Y-71752778D01*
X116681271Y-71723448D01*
X116579814Y-71640186D01*
X116496552Y-71538729D01*
X116467222Y-71502991D01*
X116383557Y-71346466D01*
X116332037Y-71176627D01*
X116314641Y-71000000D01*
X116332037Y-70823373D01*
X116383557Y-70653534D01*
X116467222Y-70497009D01*
X116496552Y-70461271D01*
X116579814Y-70359814D01*
X116681271Y-70276552D01*
X116717009Y-70247222D01*
X116873534Y-70163557D01*
X117043373Y-70112037D01*
X117109558Y-70105518D01*
X117175740Y-70099000D01*
X117264260Y-70099000D01*
X117330442Y-70105518D01*
X117330442Y-70105518D01*
G37*
G36*
X114790442Y-70105518D02*
G01*
X114856627Y-70112037D01*
X115026466Y-70163557D01*
X115182991Y-70247222D01*
X115218729Y-70276552D01*
X115320186Y-70359814D01*
X115403448Y-70461271D01*
X115432778Y-70497009D01*
X115516443Y-70653534D01*
X115567963Y-70823373D01*
X115585359Y-71000000D01*
X115567963Y-71176627D01*
X115516443Y-71346466D01*
X115432778Y-71502991D01*
X115403448Y-71538729D01*
X115320186Y-71640186D01*
X115218729Y-71723448D01*
X115182991Y-71752778D01*
X115026466Y-71836443D01*
X114856627Y-71887963D01*
X114790443Y-71894481D01*
X114724260Y-71901000D01*
X114635740Y-71901000D01*
X114569557Y-71894481D01*
X114503373Y-71887963D01*
X114333534Y-71836443D01*
X114177009Y-71752778D01*
X114141271Y-71723448D01*
X114039814Y-71640186D01*
X113956552Y-71538729D01*
X113927222Y-71502991D01*
X113843557Y-71346466D01*
X113792037Y-71176627D01*
X113774641Y-71000000D01*
X113792037Y-70823373D01*
X113843557Y-70653534D01*
X113927222Y-70497009D01*
X113956552Y-70461271D01*
X114039814Y-70359814D01*
X114141271Y-70276552D01*
X114177009Y-70247222D01*
X114333534Y-70163557D01*
X114503373Y-70112037D01*
X114569558Y-70105518D01*
X114635740Y-70099000D01*
X114724260Y-70099000D01*
X114790442Y-70105518D01*
X114790442Y-70105518D01*
G37*
G36*
X112250442Y-70105518D02*
G01*
X112316627Y-70112037D01*
X112486466Y-70163557D01*
X112642991Y-70247222D01*
X112678729Y-70276552D01*
X112780186Y-70359814D01*
X112863448Y-70461271D01*
X112892778Y-70497009D01*
X112976443Y-70653534D01*
X113027963Y-70823373D01*
X113045359Y-71000000D01*
X113027963Y-71176627D01*
X112976443Y-71346466D01*
X112892778Y-71502991D01*
X112863448Y-71538729D01*
X112780186Y-71640186D01*
X112678729Y-71723448D01*
X112642991Y-71752778D01*
X112486466Y-71836443D01*
X112316627Y-71887963D01*
X112250443Y-71894481D01*
X112184260Y-71901000D01*
X112095740Y-71901000D01*
X112029557Y-71894481D01*
X111963373Y-71887963D01*
X111793534Y-71836443D01*
X111637009Y-71752778D01*
X111601271Y-71723448D01*
X111499814Y-71640186D01*
X111416552Y-71538729D01*
X111387222Y-71502991D01*
X111303557Y-71346466D01*
X111252037Y-71176627D01*
X111234641Y-71000000D01*
X111252037Y-70823373D01*
X111303557Y-70653534D01*
X111387222Y-70497009D01*
X111416552Y-70461271D01*
X111499814Y-70359814D01*
X111601271Y-70276552D01*
X111637009Y-70247222D01*
X111793534Y-70163557D01*
X111963373Y-70112037D01*
X112029558Y-70105518D01*
X112095740Y-70099000D01*
X112184260Y-70099000D01*
X112250442Y-70105518D01*
X112250442Y-70105518D01*
G37*
G36*
X109710442Y-70105518D02*
G01*
X109776627Y-70112037D01*
X109946466Y-70163557D01*
X110102991Y-70247222D01*
X110138729Y-70276552D01*
X110240186Y-70359814D01*
X110323448Y-70461271D01*
X110352778Y-70497009D01*
X110436443Y-70653534D01*
X110487963Y-70823373D01*
X110505359Y-71000000D01*
X110487963Y-71176627D01*
X110436443Y-71346466D01*
X110352778Y-71502991D01*
X110323448Y-71538729D01*
X110240186Y-71640186D01*
X110138729Y-71723448D01*
X110102991Y-71752778D01*
X109946466Y-71836443D01*
X109776627Y-71887963D01*
X109710443Y-71894481D01*
X109644260Y-71901000D01*
X109555740Y-71901000D01*
X109489557Y-71894481D01*
X109423373Y-71887963D01*
X109253534Y-71836443D01*
X109097009Y-71752778D01*
X109061271Y-71723448D01*
X108959814Y-71640186D01*
X108876552Y-71538729D01*
X108847222Y-71502991D01*
X108763557Y-71346466D01*
X108712037Y-71176627D01*
X108694641Y-71000000D01*
X108712037Y-70823373D01*
X108763557Y-70653534D01*
X108847222Y-70497009D01*
X108876552Y-70461271D01*
X108959814Y-70359814D01*
X109061271Y-70276552D01*
X109097009Y-70247222D01*
X109253534Y-70163557D01*
X109423373Y-70112037D01*
X109489558Y-70105518D01*
X109555740Y-70099000D01*
X109644260Y-70099000D01*
X109710442Y-70105518D01*
X109710442Y-70105518D01*
G37*
G36*
X107170442Y-70105518D02*
G01*
X107236627Y-70112037D01*
X107406466Y-70163557D01*
X107562991Y-70247222D01*
X107598729Y-70276552D01*
X107700186Y-70359814D01*
X107783448Y-70461271D01*
X107812778Y-70497009D01*
X107896443Y-70653534D01*
X107947963Y-70823373D01*
X107965359Y-71000000D01*
X107947963Y-71176627D01*
X107896443Y-71346466D01*
X107812778Y-71502991D01*
X107783448Y-71538729D01*
X107700186Y-71640186D01*
X107598729Y-71723448D01*
X107562991Y-71752778D01*
X107406466Y-71836443D01*
X107236627Y-71887963D01*
X107170443Y-71894481D01*
X107104260Y-71901000D01*
X107015740Y-71901000D01*
X106949557Y-71894481D01*
X106883373Y-71887963D01*
X106713534Y-71836443D01*
X106557009Y-71752778D01*
X106521271Y-71723448D01*
X106419814Y-71640186D01*
X106336552Y-71538729D01*
X106307222Y-71502991D01*
X106223557Y-71346466D01*
X106172037Y-71176627D01*
X106154641Y-71000000D01*
X106172037Y-70823373D01*
X106223557Y-70653534D01*
X106307222Y-70497009D01*
X106336552Y-70461271D01*
X106419814Y-70359814D01*
X106521271Y-70276552D01*
X106557009Y-70247222D01*
X106713534Y-70163557D01*
X106883373Y-70112037D01*
X106949558Y-70105518D01*
X107015740Y-70099000D01*
X107104260Y-70099000D01*
X107170442Y-70105518D01*
X107170442Y-70105518D01*
G37*
G36*
X104630442Y-70105518D02*
G01*
X104696627Y-70112037D01*
X104866466Y-70163557D01*
X105022991Y-70247222D01*
X105058729Y-70276552D01*
X105160186Y-70359814D01*
X105243448Y-70461271D01*
X105272778Y-70497009D01*
X105356443Y-70653534D01*
X105407963Y-70823373D01*
X105425359Y-71000000D01*
X105407963Y-71176627D01*
X105356443Y-71346466D01*
X105272778Y-71502991D01*
X105243448Y-71538729D01*
X105160186Y-71640186D01*
X105058729Y-71723448D01*
X105022991Y-71752778D01*
X104866466Y-71836443D01*
X104696627Y-71887963D01*
X104630443Y-71894481D01*
X104564260Y-71901000D01*
X104475740Y-71901000D01*
X104409557Y-71894481D01*
X104343373Y-71887963D01*
X104173534Y-71836443D01*
X104017009Y-71752778D01*
X103981271Y-71723448D01*
X103879814Y-71640186D01*
X103796552Y-71538729D01*
X103767222Y-71502991D01*
X103683557Y-71346466D01*
X103632037Y-71176627D01*
X103614641Y-71000000D01*
X103632037Y-70823373D01*
X103683557Y-70653534D01*
X103767222Y-70497009D01*
X103796552Y-70461271D01*
X103879814Y-70359814D01*
X103981271Y-70276552D01*
X104017009Y-70247222D01*
X104173534Y-70163557D01*
X104343373Y-70112037D01*
X104409558Y-70105518D01*
X104475740Y-70099000D01*
X104564260Y-70099000D01*
X104630442Y-70105518D01*
X104630442Y-70105518D01*
G37*
G36*
X102090442Y-70105518D02*
G01*
X102156627Y-70112037D01*
X102326466Y-70163557D01*
X102482991Y-70247222D01*
X102518729Y-70276552D01*
X102620186Y-70359814D01*
X102703448Y-70461271D01*
X102732778Y-70497009D01*
X102816443Y-70653534D01*
X102867963Y-70823373D01*
X102885359Y-71000000D01*
X102867963Y-71176627D01*
X102816443Y-71346466D01*
X102732778Y-71502991D01*
X102703448Y-71538729D01*
X102620186Y-71640186D01*
X102518729Y-71723448D01*
X102482991Y-71752778D01*
X102326466Y-71836443D01*
X102156627Y-71887963D01*
X102090443Y-71894481D01*
X102024260Y-71901000D01*
X101935740Y-71901000D01*
X101869557Y-71894481D01*
X101803373Y-71887963D01*
X101633534Y-71836443D01*
X101477009Y-71752778D01*
X101441271Y-71723448D01*
X101339814Y-71640186D01*
X101256552Y-71538729D01*
X101227222Y-71502991D01*
X101143557Y-71346466D01*
X101092037Y-71176627D01*
X101074641Y-71000000D01*
X101092037Y-70823373D01*
X101143557Y-70653534D01*
X101227222Y-70497009D01*
X101256552Y-70461271D01*
X101339814Y-70359814D01*
X101441271Y-70276552D01*
X101477009Y-70247222D01*
X101633534Y-70163557D01*
X101803373Y-70112037D01*
X101869558Y-70105518D01*
X101935740Y-70099000D01*
X102024260Y-70099000D01*
X102090442Y-70105518D01*
X102090442Y-70105518D01*
G37*
G36*
X99550442Y-70105518D02*
G01*
X99616627Y-70112037D01*
X99786466Y-70163557D01*
X99942991Y-70247222D01*
X99978729Y-70276552D01*
X100080186Y-70359814D01*
X100163448Y-70461271D01*
X100192778Y-70497009D01*
X100276443Y-70653534D01*
X100327963Y-70823373D01*
X100345359Y-71000000D01*
X100327963Y-71176627D01*
X100276443Y-71346466D01*
X100192778Y-71502991D01*
X100163448Y-71538729D01*
X100080186Y-71640186D01*
X99978729Y-71723448D01*
X99942991Y-71752778D01*
X99786466Y-71836443D01*
X99616627Y-71887963D01*
X99550443Y-71894481D01*
X99484260Y-71901000D01*
X99395740Y-71901000D01*
X99329557Y-71894481D01*
X99263373Y-71887963D01*
X99093534Y-71836443D01*
X98937009Y-71752778D01*
X98901271Y-71723448D01*
X98799814Y-71640186D01*
X98716552Y-71538729D01*
X98687222Y-71502991D01*
X98603557Y-71346466D01*
X98552037Y-71176627D01*
X98534641Y-71000000D01*
X98552037Y-70823373D01*
X98603557Y-70653534D01*
X98687222Y-70497009D01*
X98716552Y-70461271D01*
X98799814Y-70359814D01*
X98901271Y-70276552D01*
X98937009Y-70247222D01*
X99093534Y-70163557D01*
X99263373Y-70112037D01*
X99329558Y-70105518D01*
X99395740Y-70099000D01*
X99484260Y-70099000D01*
X99550442Y-70105518D01*
X99550442Y-70105518D01*
G37*
G36*
X186101000Y-69501000D02*
G01*
X184299000Y-69501000D01*
X184299000Y-67699000D01*
X186101000Y-67699000D01*
X186101000Y-69501000D01*
X186101000Y-69501000D01*
G37*
G36*
X107419059Y-65377860D02*
G01*
X107555732Y-65434472D01*
X107678735Y-65516660D01*
X107783340Y-65621265D01*
X107865528Y-65744268D01*
X107922140Y-65880941D01*
X107951000Y-66026033D01*
X107951000Y-66173967D01*
X107922140Y-66319059D01*
X107865528Y-66455732D01*
X107783340Y-66578735D01*
X107678735Y-66683340D01*
X107555732Y-66765528D01*
X107555731Y-66765529D01*
X107555730Y-66765529D01*
X107419059Y-66822140D01*
X107273968Y-66851000D01*
X107126032Y-66851000D01*
X106980941Y-66822140D01*
X106844270Y-66765529D01*
X106844269Y-66765529D01*
X106844268Y-66765528D01*
X106721265Y-66683340D01*
X106616660Y-66578735D01*
X106534472Y-66455732D01*
X106477860Y-66319059D01*
X106449000Y-66173967D01*
X106449000Y-66026033D01*
X106477860Y-65880941D01*
X106534472Y-65744268D01*
X106616660Y-65621265D01*
X106721265Y-65516660D01*
X106844268Y-65434472D01*
X106980941Y-65377860D01*
X107126032Y-65349000D01*
X107273968Y-65349000D01*
X107419059Y-65377860D01*
X107419059Y-65377860D01*
G37*
G36*
X104919059Y-65377860D02*
G01*
X105055732Y-65434472D01*
X105178735Y-65516660D01*
X105283340Y-65621265D01*
X105365528Y-65744268D01*
X105422140Y-65880941D01*
X105451000Y-66026033D01*
X105451000Y-66173967D01*
X105422140Y-66319059D01*
X105365528Y-66455732D01*
X105283340Y-66578735D01*
X105178735Y-66683340D01*
X105055732Y-66765528D01*
X105055731Y-66765529D01*
X105055730Y-66765529D01*
X104919059Y-66822140D01*
X104773968Y-66851000D01*
X104626032Y-66851000D01*
X104480941Y-66822140D01*
X104344270Y-66765529D01*
X104344269Y-66765529D01*
X104344268Y-66765528D01*
X104221265Y-66683340D01*
X104116660Y-66578735D01*
X104034472Y-66455732D01*
X103977860Y-66319059D01*
X103949000Y-66173967D01*
X103949000Y-66026033D01*
X103977860Y-65880941D01*
X104034472Y-65744268D01*
X104116660Y-65621265D01*
X104221265Y-65516660D01*
X104344268Y-65434472D01*
X104480941Y-65377860D01*
X104626032Y-65349000D01*
X104773968Y-65349000D01*
X104919059Y-65377860D01*
X104919059Y-65377860D01*
G37*
G36*
X102019059Y-65377860D02*
G01*
X102155732Y-65434472D01*
X102278735Y-65516660D01*
X102383340Y-65621265D01*
X102465528Y-65744268D01*
X102522140Y-65880941D01*
X102551000Y-66026033D01*
X102551000Y-66173967D01*
X102522140Y-66319059D01*
X102465528Y-66455732D01*
X102383340Y-66578735D01*
X102278735Y-66683340D01*
X102155732Y-66765528D01*
X102155731Y-66765529D01*
X102155730Y-66765529D01*
X102019059Y-66822140D01*
X101873968Y-66851000D01*
X101726032Y-66851000D01*
X101580941Y-66822140D01*
X101444270Y-66765529D01*
X101444269Y-66765529D01*
X101444268Y-66765528D01*
X101321265Y-66683340D01*
X101216660Y-66578735D01*
X101134472Y-66455732D01*
X101077860Y-66319059D01*
X101049000Y-66173967D01*
X101049000Y-66026033D01*
X101077860Y-65880941D01*
X101134472Y-65744268D01*
X101216660Y-65621265D01*
X101321265Y-65516660D01*
X101444268Y-65434472D01*
X101580941Y-65377860D01*
X101726032Y-65349000D01*
X101873968Y-65349000D01*
X102019059Y-65377860D01*
X102019059Y-65377860D01*
G37*
G36*
X99519059Y-65377860D02*
G01*
X99655732Y-65434472D01*
X99778735Y-65516660D01*
X99883340Y-65621265D01*
X99965528Y-65744268D01*
X100022140Y-65880941D01*
X100051000Y-66026033D01*
X100051000Y-66173967D01*
X100022140Y-66319059D01*
X99965528Y-66455732D01*
X99883340Y-66578735D01*
X99778735Y-66683340D01*
X99655732Y-66765528D01*
X99655731Y-66765529D01*
X99655730Y-66765529D01*
X99519059Y-66822140D01*
X99373968Y-66851000D01*
X99226032Y-66851000D01*
X99080941Y-66822140D01*
X98944270Y-66765529D01*
X98944269Y-66765529D01*
X98944268Y-66765528D01*
X98821265Y-66683340D01*
X98716660Y-66578735D01*
X98634472Y-66455732D01*
X98577860Y-66319059D01*
X98549000Y-66173967D01*
X98549000Y-66026033D01*
X98577860Y-65880941D01*
X98634472Y-65744268D01*
X98716660Y-65621265D01*
X98821265Y-65516660D01*
X98944268Y-65434472D01*
X99080941Y-65377860D01*
X99226032Y-65349000D01*
X99373968Y-65349000D01*
X99519059Y-65377860D01*
X99519059Y-65377860D01*
G37*
G36*
X186725331Y-62368211D02*
G01*
X187053092Y-62503974D01*
X187348070Y-62701072D01*
X187598928Y-62951930D01*
X187796026Y-63246908D01*
X187931789Y-63574669D01*
X188001000Y-63922616D01*
X188001000Y-64277384D01*
X187931789Y-64625331D01*
X187796026Y-64953092D01*
X187598928Y-65248070D01*
X187348070Y-65498928D01*
X187053092Y-65696026D01*
X186725331Y-65831789D01*
X186377384Y-65901000D01*
X186022616Y-65901000D01*
X185674669Y-65831789D01*
X185346908Y-65696026D01*
X185051930Y-65498928D01*
X184801072Y-65248070D01*
X184603974Y-64953092D01*
X184468211Y-64625331D01*
X184399000Y-64277384D01*
X184399000Y-63922616D01*
X184468211Y-63574669D01*
X184603974Y-63246908D01*
X184801072Y-62951930D01*
X185051930Y-62701072D01*
X185346908Y-62503974D01*
X185674669Y-62368211D01*
X186022616Y-62299000D01*
X186377384Y-62299000D01*
X186725331Y-62368211D01*
X186725331Y-62368211D01*
G37*
G36*
X93725331Y-62368211D02*
G01*
X94053092Y-62503974D01*
X94348070Y-62701072D01*
X94598928Y-62951930D01*
X94796026Y-63246908D01*
X94931789Y-63574669D01*
X95001000Y-63922616D01*
X95001000Y-64277384D01*
X94931789Y-64625331D01*
X94796026Y-64953092D01*
X94598928Y-65248070D01*
X94348070Y-65498928D01*
X94053092Y-65696026D01*
X93725331Y-65831789D01*
X93377384Y-65901000D01*
X93022616Y-65901000D01*
X92674669Y-65831789D01*
X92346908Y-65696026D01*
X92051930Y-65498928D01*
X91801072Y-65248070D01*
X91603974Y-64953092D01*
X91468211Y-64625331D01*
X91399000Y-64277384D01*
X91399000Y-63922616D01*
X91468211Y-63574669D01*
X91603974Y-63246908D01*
X91801072Y-62951930D01*
X92051930Y-62701072D01*
X92346908Y-62503974D01*
X92674669Y-62368211D01*
X93022616Y-62299000D01*
X93377384Y-62299000D01*
X93725331Y-62368211D01*
X93725331Y-62368211D01*
G37*
M02*
