M48
; DRILL file {KiCad (5.1.2)-2} date 29.05.2020 08:27:23
; FORMAT={-:-/ absolute / inch / decimal}
; #@! TF.CreationDate,2020-05-29T08:27:23+02:00
; #@! TF.GenerationSoftware,Kicad,Pcbnew,(5.1.2)-2
; #@! TF.FileFunction,Plated,1,2,PTH
FMAT,2
INCH
T1C0.0276
T2C0.0315
T3C0.0394
%
G90
G05
T1
X4.122Y-2.6024
X4.2205Y-2.6024
X3.9094Y-2.6024
X4.0079Y-2.6024
T2
X4.4846Y-4.1976
X4.4846Y-4.2961
X3.915Y-2.9827
X3.915Y-3.5827
X4.015Y-2.9827
X4.015Y-3.5827
X4.115Y-2.9827
X4.115Y-3.5827
X4.215Y-2.9827
X4.215Y-3.5827
X4.315Y-2.9827
X4.315Y-3.5827
X4.415Y-2.9827
X4.415Y-3.5827
X4.515Y-2.9827
X4.515Y-3.5827
X4.615Y-2.9827
X4.615Y-3.5827
X4.715Y-2.9827
X4.715Y-3.5827
X4.815Y-2.9827
X4.815Y-3.5827
X4.915Y-2.9827
X4.915Y-3.5827
X5.015Y-2.9827
X5.015Y-3.5827
X5.115Y-2.9827
X5.115Y-3.5827
X5.215Y-2.9827
X5.215Y-3.5827
X5.315Y-2.9827
X5.315Y-3.5827
T3
X7.2913Y-2.7008
X7.2913Y-2.8008
X7.2913Y-2.9008
X7.2913Y-3.0008
X3.915Y-2.7953
X4.015Y-2.7953
X4.115Y-2.7953
X4.215Y-2.7953
X4.315Y-2.7953
X4.415Y-2.7953
X4.515Y-2.7953
X4.615Y-2.7953
X4.715Y-2.7953
X4.815Y-2.7953
X4.915Y-2.7953
X5.015Y-2.7953
X5.115Y-2.7953
X5.215Y-2.7953
X5.315Y-2.7953
X3.915Y-3.7795
X4.015Y-3.7795
X4.115Y-3.7795
X4.215Y-3.7795
X4.315Y-3.7795
X4.415Y-3.7795
X4.515Y-3.7795
X4.615Y-3.7795
X4.715Y-3.7795
X4.815Y-3.7795
X4.915Y-3.7795
X5.015Y-3.7795
X5.115Y-3.7795
X5.215Y-3.7795
X5.315Y-3.7795
X3.9197Y-4.0874
X4.0197Y-4.0874
X4.1197Y-4.0874
X4.2197Y-4.0874
X6.6295Y-3.9705
X6.6295Y-4.0705
X6.6295Y-4.1705
X5.5953Y-4.1181
X5.6953Y-4.1181
X5.7953Y-4.1181
X5.8953Y-4.1181
X5.9953Y-4.1181
X6.0953Y-4.1181
X6.1953Y-4.1181
X6.2953Y-4.1181
X4.0118Y-4.4134
X4.1118Y-4.4134
X4.2118Y-4.4134
T0
M30
