G04 #@! TF.GenerationSoftware,KiCad,Pcbnew,(5.1.2)-2*
G04 #@! TF.CreationDate,2020-05-29T08:27:19+02:00*
G04 #@! TF.ProjectId,Hauptplatine_Arduino,48617570-7470-46c6-9174-696e655f4172,rev?*
G04 #@! TF.SameCoordinates,Original*
G04 #@! TF.FileFunction,Copper,L2,Bot*
G04 #@! TF.FilePolarity,Positive*
%FSLAX46Y46*%
G04 Gerber Fmt 4.6, Leading zero omitted, Abs format (unit mm)*
G04 Created by KiCad (PCBNEW (5.1.2)-2) date 2020-05-29 08:27:19*
%MOMM*%
%LPD*%
G04 APERTURE LIST*
%ADD10C,0.300000*%
%ADD11C,0.600000*%
%ADD12R,1.700000X1.700000*%
%ADD13O,1.700000X1.700000*%
%ADD14R,1.600000X1.600000*%
%ADD15O,1.600000X1.600000*%
%ADD16C,1.400000*%
%ADD17C,1.600000*%
%ADD18C,0.250000*%
%ADD19C,0.500000*%
%ADD20C,0.254000*%
G04 APERTURE END LIST*
D10*
X169757142Y-93878571D02*
X169757142Y-92378571D01*
X169185714Y-92378571D01*
X169042857Y-92450000D01*
X168971428Y-92521428D01*
X168900000Y-92664285D01*
X168900000Y-92878571D01*
X168971428Y-93021428D01*
X169042857Y-93092857D01*
X169185714Y-93164285D01*
X169757142Y-93164285D01*
X167614285Y-93878571D02*
X167614285Y-93092857D01*
X167685714Y-92950000D01*
X167828571Y-92878571D01*
X168114285Y-92878571D01*
X168257142Y-92950000D01*
X167614285Y-93807142D02*
X167757142Y-93878571D01*
X168114285Y-93878571D01*
X168257142Y-93807142D01*
X168328571Y-93664285D01*
X168328571Y-93521428D01*
X168257142Y-93378571D01*
X168114285Y-93307142D01*
X167757142Y-93307142D01*
X167614285Y-93235714D01*
X166900000Y-92878571D02*
X166900000Y-93878571D01*
X166900000Y-93021428D02*
X166828571Y-92950000D01*
X166685714Y-92878571D01*
X166471428Y-92878571D01*
X166328571Y-92950000D01*
X166257142Y-93092857D01*
X166257142Y-93878571D01*
X164971428Y-93807142D02*
X165114285Y-93878571D01*
X165400000Y-93878571D01*
X165542857Y-93807142D01*
X165614285Y-93664285D01*
X165614285Y-93092857D01*
X165542857Y-92950000D01*
X165400000Y-92878571D01*
X165114285Y-92878571D01*
X164971428Y-92950000D01*
X164900000Y-93092857D01*
X164900000Y-93235714D01*
X165614285Y-93378571D01*
X164042857Y-93878571D02*
X164185714Y-93807142D01*
X164257142Y-93664285D01*
X164257142Y-92378571D01*
X162471428Y-92878571D02*
X162114285Y-93878571D01*
X161757142Y-92878571D01*
X161185714Y-93735714D02*
X161114285Y-93807142D01*
X161185714Y-93878571D01*
X161257142Y-93807142D01*
X161185714Y-93735714D01*
X161185714Y-93878571D01*
X158542857Y-93878571D02*
X159400000Y-93878571D01*
X158971428Y-93878571D02*
X158971428Y-92378571D01*
X159114285Y-92592857D01*
X159257142Y-92735714D01*
X159400000Y-92807142D01*
X157900000Y-93735714D02*
X157828571Y-93807142D01*
X157900000Y-93878571D01*
X157971428Y-93807142D01*
X157900000Y-93735714D01*
X157900000Y-93878571D01*
X156900000Y-92378571D02*
X156757142Y-92378571D01*
X156614285Y-92450000D01*
X156542857Y-92521428D01*
X156471428Y-92664285D01*
X156400000Y-92950000D01*
X156400000Y-93307142D01*
X156471428Y-93592857D01*
X156542857Y-93735714D01*
X156614285Y-93807142D01*
X156757142Y-93878571D01*
X156900000Y-93878571D01*
X157042857Y-93807142D01*
X157114285Y-93735714D01*
X157185714Y-93592857D01*
X157257142Y-93307142D01*
X157257142Y-92950000D01*
X157185714Y-92664285D01*
X157114285Y-92521428D01*
X157042857Y-92450000D01*
X156900000Y-92378571D01*
X155828571Y-92521428D02*
X155757142Y-92450000D01*
X155614285Y-92378571D01*
X155257142Y-92378571D01*
X155114285Y-92450000D01*
X155042857Y-92521428D01*
X154971428Y-92664285D01*
X154971428Y-92807142D01*
X155042857Y-93021428D01*
X155900000Y-93878571D01*
X154971428Y-93878571D01*
D11*
X176314285Y-84507142D02*
X176314285Y-81507142D01*
X176314285Y-82935714D02*
X174600000Y-82935714D01*
X174600000Y-84507142D02*
X174600000Y-81507142D01*
X173600000Y-81507142D02*
X171885714Y-81507142D01*
X172742857Y-84507142D02*
X172742857Y-81507142D01*
X171171428Y-81507142D02*
X170457142Y-84507142D01*
X169885714Y-82364285D01*
X169314285Y-84507142D01*
X168600000Y-81507142D01*
X167457142Y-84507142D02*
X167457142Y-81507142D01*
X165742857Y-84507142D02*
X167028571Y-82792857D01*
X165742857Y-81507142D02*
X167457142Y-83221428D01*
X160742857Y-84507142D02*
X162171428Y-84507142D01*
X162171428Y-81507142D01*
X158600000Y-84364285D02*
X158885714Y-84507142D01*
X159457142Y-84507142D01*
X159742857Y-84364285D01*
X159885714Y-84078571D01*
X159885714Y-82935714D01*
X159742857Y-82650000D01*
X159457142Y-82507142D01*
X158885714Y-82507142D01*
X158600000Y-82650000D01*
X158457142Y-82935714D01*
X158457142Y-83221428D01*
X159885714Y-83507142D01*
X157171428Y-84507142D02*
X157171428Y-82507142D01*
X157171428Y-81507142D02*
X157314285Y-81650000D01*
X157171428Y-81792857D01*
X157028571Y-81650000D01*
X157171428Y-81507142D01*
X157171428Y-81792857D01*
X155742857Y-82507142D02*
X155742857Y-85507142D01*
X155742857Y-82650000D02*
X155457142Y-82507142D01*
X154885714Y-82507142D01*
X154600000Y-82650000D01*
X154457142Y-82792857D01*
X154314285Y-83078571D01*
X154314285Y-83935714D01*
X154457142Y-84221428D01*
X154600000Y-84364285D01*
X154885714Y-84507142D01*
X155457142Y-84507142D01*
X155742857Y-84364285D01*
X153314285Y-82507142D02*
X151742857Y-82507142D01*
X153314285Y-84507142D01*
X151742857Y-84507142D01*
X150600000Y-84507142D02*
X150600000Y-82507142D01*
X150600000Y-81507142D02*
X150742857Y-81650000D01*
X150600000Y-81792857D01*
X150457142Y-81650000D01*
X150600000Y-81507142D01*
X150600000Y-81792857D01*
X147885714Y-82507142D02*
X147885714Y-84935714D01*
X148028571Y-85221428D01*
X148171428Y-85364285D01*
X148457142Y-85507142D01*
X148885714Y-85507142D01*
X149171428Y-85364285D01*
X147885714Y-84364285D02*
X148171428Y-84507142D01*
X148742857Y-84507142D01*
X149028571Y-84364285D01*
X149171428Y-84221428D01*
X149314285Y-83935714D01*
X149314285Y-83078571D01*
X149171428Y-82792857D01*
X149028571Y-82650000D01*
X148742857Y-82507142D01*
X148171428Y-82507142D01*
X147885714Y-82650000D01*
X172528571Y-88035714D02*
X172100000Y-88178571D01*
X171957142Y-88321428D01*
X171814285Y-88607142D01*
X171814285Y-89035714D01*
X171957142Y-89321428D01*
X172100000Y-89464285D01*
X172385714Y-89607142D01*
X173528571Y-89607142D01*
X173528571Y-86607142D01*
X172528571Y-86607142D01*
X172242857Y-86750000D01*
X172100000Y-86892857D01*
X171957142Y-87178571D01*
X171957142Y-87464285D01*
X172100000Y-87750000D01*
X172242857Y-87892857D01*
X172528571Y-88035714D01*
X173528571Y-88035714D01*
X170528571Y-88035714D02*
X169528571Y-88035714D01*
X169100000Y-89607142D02*
X170528571Y-89607142D01*
X170528571Y-86607142D01*
X169100000Y-86607142D01*
X167957142Y-88750000D02*
X166528571Y-88750000D01*
X168242857Y-89607142D02*
X167242857Y-86607142D01*
X166242857Y-89607142D01*
X165671428Y-86607142D02*
X163957142Y-86607142D01*
X164814285Y-89607142D02*
X164814285Y-86607142D01*
X160814285Y-86892857D02*
X160671428Y-86750000D01*
X160385714Y-86607142D01*
X159671428Y-86607142D01*
X159385714Y-86750000D01*
X159242857Y-86892857D01*
X159100000Y-87178571D01*
X159100000Y-87464285D01*
X159242857Y-87892857D01*
X160957142Y-89607142D01*
X159100000Y-89607142D01*
X157242857Y-86607142D02*
X156957142Y-86607142D01*
X156671428Y-86750000D01*
X156528571Y-86892857D01*
X156385714Y-87178571D01*
X156242857Y-87750000D01*
X156242857Y-88464285D01*
X156385714Y-89035714D01*
X156528571Y-89321428D01*
X156671428Y-89464285D01*
X156957142Y-89607142D01*
X157242857Y-89607142D01*
X157528571Y-89464285D01*
X157671428Y-89321428D01*
X157814285Y-89035714D01*
X157957142Y-88464285D01*
X157957142Y-87750000D01*
X157814285Y-87178571D01*
X157671428Y-86892857D01*
X157528571Y-86750000D01*
X157242857Y-86607142D01*
X155100000Y-86892857D02*
X154957142Y-86750000D01*
X154671428Y-86607142D01*
X153957142Y-86607142D01*
X153671428Y-86750000D01*
X153528571Y-86892857D01*
X153385714Y-87178571D01*
X153385714Y-87464285D01*
X153528571Y-87892857D01*
X155242857Y-89607142D01*
X153385714Y-89607142D01*
X151528571Y-86607142D02*
X151242857Y-86607142D01*
X150957142Y-86750000D01*
X150814285Y-86892857D01*
X150671428Y-87178571D01*
X150528571Y-87750000D01*
X150528571Y-88464285D01*
X150671428Y-89035714D01*
X150814285Y-89321428D01*
X150957142Y-89464285D01*
X151242857Y-89607142D01*
X151528571Y-89607142D01*
X151814285Y-89464285D01*
X151957142Y-89321428D01*
X152100000Y-89035714D01*
X152242857Y-88464285D01*
X152242857Y-87750000D01*
X152100000Y-87178571D01*
X151957142Y-86892857D01*
X151814285Y-86750000D01*
X151528571Y-86607142D01*
D12*
X101900000Y-112100000D03*
D13*
X104440000Y-112100000D03*
X106980000Y-112100000D03*
D14*
X99440000Y-91000000D03*
D15*
X132460000Y-75760000D03*
X101980000Y-91000000D03*
X129920000Y-75760000D03*
X104520000Y-91000000D03*
X127380000Y-75760000D03*
X107060000Y-91000000D03*
X124840000Y-75760000D03*
X109600000Y-91000000D03*
X122300000Y-75760000D03*
X112140000Y-91000000D03*
X119760000Y-75760000D03*
X114680000Y-91000000D03*
X117220000Y-75760000D03*
X117220000Y-91000000D03*
X114680000Y-75760000D03*
X119760000Y-91000000D03*
X112140000Y-75760000D03*
X122300000Y-91000000D03*
X109600000Y-75760000D03*
X124840000Y-91000000D03*
X107060000Y-75760000D03*
X127380000Y-91000000D03*
X104520000Y-75760000D03*
X129920000Y-91000000D03*
X101980000Y-75760000D03*
X132460000Y-91000000D03*
X99440000Y-75760000D03*
X135000000Y-91000000D03*
X135000000Y-75760000D03*
D16*
X104700000Y-66100000D03*
X107200000Y-66100000D03*
D14*
X113910000Y-109120000D03*
D17*
X113910000Y-106620000D03*
D12*
X107180000Y-103820000D03*
D13*
X104640000Y-103820000D03*
X102100000Y-103820000D03*
X99560000Y-103820000D03*
X135000000Y-96000000D03*
X132460000Y-96000000D03*
X129920000Y-96000000D03*
X127380000Y-96000000D03*
X124840000Y-96000000D03*
X122300000Y-96000000D03*
X119760000Y-96000000D03*
X117220000Y-96000000D03*
X114680000Y-96000000D03*
X112140000Y-96000000D03*
X109600000Y-96000000D03*
X107060000Y-96000000D03*
X104520000Y-96000000D03*
X101980000Y-96000000D03*
D12*
X99440000Y-96000000D03*
X135000000Y-71000000D03*
D13*
X132460000Y-71000000D03*
X129920000Y-71000000D03*
X127380000Y-71000000D03*
X124840000Y-71000000D03*
X122300000Y-71000000D03*
X119760000Y-71000000D03*
X117220000Y-71000000D03*
X114680000Y-71000000D03*
X112140000Y-71000000D03*
X109600000Y-71000000D03*
X107060000Y-71000000D03*
X104520000Y-71000000D03*
X101980000Y-71000000D03*
X99440000Y-71000000D03*
D12*
X185200000Y-68600000D03*
D13*
X185200000Y-71140000D03*
X185200000Y-73680000D03*
X185200000Y-76220000D03*
D12*
X159900000Y-104600000D03*
D13*
X157360000Y-104600000D03*
X154820000Y-104600000D03*
X152280000Y-104600000D03*
X149740000Y-104600000D03*
X147200000Y-104600000D03*
X144660000Y-104600000D03*
X142120000Y-104600000D03*
D16*
X99300000Y-66100000D03*
X101800000Y-66100000D03*
D12*
X168390000Y-105930000D03*
D13*
X168390000Y-103390000D03*
X168390000Y-100850000D03*
D18*
X99440000Y-91000000D02*
X99440000Y-96000000D01*
X99560000Y-96120000D02*
X99440000Y-96000000D01*
X99560000Y-103820000D02*
X99560000Y-96120000D01*
X132460000Y-74628630D02*
X132460000Y-71000000D01*
X132460000Y-75760000D02*
X132460000Y-74628630D01*
X101980000Y-96000000D02*
X101980000Y-91000000D01*
X101980000Y-103700000D02*
X102100000Y-103820000D01*
X101980000Y-96000000D02*
X101980000Y-103700000D01*
X129920000Y-74628630D02*
X129920000Y-71000000D01*
X129920000Y-75760000D02*
X129920000Y-74628630D01*
X104520000Y-91000000D02*
X104520000Y-96000000D01*
X127380000Y-71000000D02*
X127380000Y-75760000D01*
X107060000Y-92131370D02*
X107060000Y-96000000D01*
X107060000Y-91000000D02*
X107060000Y-92131370D01*
X101980000Y-71000000D02*
X101980000Y-75760000D01*
D19*
X107060000Y-103700000D02*
X107180000Y-103820000D01*
X107060000Y-96000000D02*
X107060000Y-103700000D01*
X111110000Y-103820000D02*
X107180000Y-103820000D01*
X113910000Y-106620000D02*
X111110000Y-103820000D01*
X101980000Y-66280000D02*
X101800000Y-66100000D01*
X101980000Y-71000000D02*
X101980000Y-66280000D01*
X104700000Y-66100000D02*
X101800000Y-66100000D01*
X109420000Y-63840000D02*
X104060000Y-63840000D01*
X104060000Y-63840000D02*
X101800000Y-66100000D01*
X181692806Y-68600000D02*
X179722796Y-66629990D01*
X185200000Y-68600000D02*
X181692806Y-68600000D01*
X112209990Y-66629990D02*
X109420000Y-63840000D01*
X179722796Y-66629990D02*
X112209990Y-66629990D01*
D18*
X124840000Y-75760000D02*
X124840000Y-71000000D01*
X109600000Y-91000000D02*
X109600000Y-96000000D01*
X109600000Y-98990000D02*
X109600000Y-98550000D01*
X113760010Y-103150010D02*
X109600000Y-98990000D01*
X140670010Y-103150010D02*
X113760010Y-103150010D01*
X142120000Y-104600000D02*
X140670010Y-103150010D01*
X109600000Y-98550000D02*
X109600000Y-96000000D01*
X122300000Y-72202081D02*
X122300000Y-75760000D01*
X122300000Y-71000000D02*
X122300000Y-72202081D01*
X112140000Y-92131370D02*
X112140000Y-96000000D01*
X112140000Y-91000000D02*
X112140000Y-92131370D01*
X144660000Y-103060000D02*
X144660000Y-104600000D01*
X144100000Y-102500000D02*
X144660000Y-103060000D01*
X115400000Y-102500000D02*
X144100000Y-102500000D01*
X112140000Y-99240000D02*
X112470000Y-99570000D01*
X112140000Y-96000000D02*
X112140000Y-99240000D01*
X112470000Y-99570000D02*
X115400000Y-102500000D01*
X119760000Y-74628630D02*
X119760000Y-71000000D01*
X119760000Y-75760000D02*
X119760000Y-74628630D01*
X114680000Y-91000000D02*
X114680000Y-96000000D01*
X147200000Y-103000000D02*
X147200000Y-104600000D01*
X146049990Y-101849990D02*
X147200000Y-103000000D01*
X120529990Y-101849990D02*
X120699990Y-101849990D01*
X120699990Y-101849990D02*
X146049990Y-101849990D01*
X117599990Y-101849990D02*
X120699990Y-101849990D01*
X117339990Y-101849990D02*
X117599990Y-101849990D01*
X114680000Y-99190000D02*
X117339990Y-101849990D01*
X114680000Y-96000000D02*
X114680000Y-99190000D01*
X117220000Y-74628630D02*
X117220000Y-71000000D01*
X117220000Y-75760000D02*
X117220000Y-74628630D01*
X183480000Y-73680000D02*
X185200000Y-73680000D01*
X178105010Y-68305010D02*
X178300000Y-68500000D01*
X118194990Y-68305010D02*
X178105010Y-68305010D01*
X117220000Y-69280000D02*
X118194990Y-68305010D01*
X117220000Y-71000000D02*
X117220000Y-69280000D01*
X178300000Y-68500000D02*
X183480000Y-73680000D01*
X117220000Y-92131370D02*
X117220000Y-96000000D01*
X117220000Y-91000000D02*
X117220000Y-92131370D01*
X149740000Y-101940000D02*
X149740000Y-104600000D01*
X148999980Y-101199980D02*
X149740000Y-101940000D01*
X117220000Y-96000000D02*
X117220000Y-98970000D01*
X119449980Y-101199980D02*
X122650020Y-101199980D01*
X117220000Y-98970000D02*
X119449980Y-101199980D01*
X122419980Y-101199980D02*
X122650020Y-101199980D01*
X122650020Y-101199980D02*
X148999980Y-101199980D01*
X114680000Y-71000000D02*
X114680000Y-75760000D01*
X183770001Y-75370001D02*
X177355020Y-68955020D01*
X185200000Y-76220000D02*
X184350001Y-75370001D01*
X184350001Y-75370001D02*
X183770001Y-75370001D01*
X177355020Y-68955020D02*
X140344980Y-68955020D01*
X140344980Y-68955020D02*
X137300000Y-72000000D01*
X137300000Y-72000000D02*
X137300000Y-76100000D01*
X137300000Y-76100000D02*
X135200000Y-78200000D01*
X114680000Y-75760000D02*
X114680000Y-77480000D01*
X115400000Y-78200000D02*
X117600000Y-78200000D01*
X114680000Y-77480000D02*
X115400000Y-78200000D01*
X135200000Y-78200000D02*
X117600000Y-78200000D01*
X117600000Y-78200000D02*
X117120000Y-78200000D01*
X119760000Y-91000000D02*
X119760000Y-96000000D01*
X152280000Y-101780000D02*
X152280000Y-104600000D01*
X151049970Y-100549970D02*
X152280000Y-101780000D01*
X121689970Y-100549970D02*
X151049970Y-100549970D01*
X119760000Y-98620000D02*
X121689970Y-100549970D01*
X119760000Y-96000000D02*
X119760000Y-98620000D01*
X112140000Y-74628630D02*
X112140000Y-71000000D01*
X112140000Y-75760000D02*
X112140000Y-74628630D01*
X122300000Y-92131370D02*
X122300000Y-96000000D01*
X122300000Y-91000000D02*
X122300000Y-92131370D01*
X122300000Y-96000000D02*
X122300000Y-98822829D01*
X123377131Y-99899960D02*
X153099960Y-99899960D01*
X122300000Y-98822829D02*
X123377131Y-99899960D01*
X154820000Y-101620000D02*
X154820000Y-103680000D01*
X153099960Y-99899960D02*
X154820000Y-101620000D01*
X154820000Y-104600000D02*
X154820000Y-103680000D01*
X109600000Y-74628630D02*
X109600000Y-71000000D01*
X109600000Y-75760000D02*
X109600000Y-74628630D01*
X124840000Y-92131370D02*
X124840000Y-96000000D01*
X124840000Y-91000000D02*
X124840000Y-92131370D01*
X153369202Y-99249950D02*
X153369252Y-99250000D01*
X157360000Y-101660000D02*
X157360000Y-104600000D01*
X153369252Y-99250000D02*
X154950000Y-99250000D01*
X154950000Y-99250000D02*
X157360000Y-101660000D01*
X124840000Y-96000000D02*
X124840000Y-98590000D01*
X125499950Y-99249950D02*
X127119950Y-99249950D01*
X124840000Y-98590000D02*
X125499950Y-99249950D01*
X126887869Y-99249950D02*
X127119950Y-99249950D01*
X127119950Y-99249950D02*
X153369202Y-99249950D01*
D19*
X104640000Y-111900000D02*
X104440000Y-112100000D01*
X104780000Y-109120000D02*
X104640000Y-109260000D01*
X113910000Y-109120000D02*
X104780000Y-109120000D01*
X104640000Y-103820000D02*
X104640000Y-109260000D01*
X104640000Y-109260000D02*
X104640000Y-111900000D01*
D18*
X127380000Y-91000000D02*
X127380000Y-96000000D01*
X159900000Y-101350000D02*
X159900000Y-104600000D01*
X157149940Y-98599940D02*
X159900000Y-101350000D01*
X128777859Y-98599940D02*
X157149940Y-98599940D01*
X127380000Y-97202081D02*
X128777859Y-98599940D01*
X127380000Y-96000000D02*
X127380000Y-97202081D01*
X104520000Y-74628630D02*
X104520000Y-71000000D01*
X104520000Y-75760000D02*
X104520000Y-74628630D01*
X129920000Y-91000000D02*
X129920000Y-96000000D01*
X165399252Y-105930000D02*
X157419182Y-97949930D01*
X168390000Y-105930000D02*
X165399252Y-105930000D01*
X130667849Y-97949930D02*
X132189930Y-97949930D01*
X129920000Y-97202081D02*
X130667849Y-97949930D01*
X129920000Y-96000000D02*
X129920000Y-97202081D01*
X157419182Y-97949930D02*
X132189930Y-97949930D01*
X132189930Y-97949930D02*
X131869930Y-97949930D01*
X132460000Y-92131370D02*
X132460000Y-96000000D01*
X132460000Y-91000000D02*
X132460000Y-92131370D01*
D19*
X104780000Y-114300000D02*
X106980000Y-112100000D01*
X100700000Y-114300000D02*
X104780000Y-114300000D01*
X99440000Y-75760000D02*
X99440000Y-71000000D01*
X99440000Y-66240000D02*
X99300000Y-66100000D01*
X99440000Y-71000000D02*
X99440000Y-66240000D01*
X95899990Y-109499990D02*
X100200000Y-113800000D01*
X95899990Y-89327204D02*
X95899990Y-109499990D01*
X99440000Y-85787194D02*
X95899990Y-89327204D01*
X99440000Y-75760000D02*
X99440000Y-85787194D01*
X99600000Y-113200000D02*
X100200000Y-113800000D01*
X100200000Y-113800000D02*
X100700000Y-114300000D01*
D18*
X135000000Y-92131370D02*
X135000000Y-96000000D01*
X135000000Y-91000000D02*
X135000000Y-92131370D01*
X135000000Y-74628630D02*
X135000000Y-71000000D01*
X135000000Y-75760000D02*
X135000000Y-74628630D01*
D19*
X101900000Y-110750000D02*
X96800000Y-105650000D01*
X101900000Y-112100000D02*
X101900000Y-110750000D01*
X107060000Y-79440000D02*
X96800000Y-89700000D01*
X107060000Y-75760000D02*
X107060000Y-79440000D01*
X96800000Y-105650000D02*
X96800000Y-89700000D01*
X107060000Y-75760000D02*
X107060000Y-71000000D01*
X107200000Y-70860000D02*
X107060000Y-71000000D01*
X107370000Y-67530000D02*
X107200000Y-67700000D01*
X179350000Y-67530000D02*
X107370000Y-67530000D01*
X182960000Y-71140000D02*
X179350000Y-67530000D01*
X185200000Y-71140000D02*
X182960000Y-71140000D01*
X107200000Y-66100000D02*
X107200000Y-67700000D01*
X107200000Y-67700000D02*
X107200000Y-70860000D01*
D20*
G36*
X184347450Y-62579651D02*
G01*
X184086440Y-62970279D01*
X183906654Y-63404321D01*
X183815000Y-63865098D01*
X183815000Y-64334902D01*
X183906654Y-64795679D01*
X184086440Y-65229721D01*
X184347450Y-65620349D01*
X184679651Y-65952550D01*
X185070279Y-66213560D01*
X185504321Y-66393346D01*
X185965098Y-66485000D01*
X186434902Y-66485000D01*
X186895679Y-66393346D01*
X187329721Y-66213560D01*
X187720349Y-65952550D01*
X188015000Y-65657899D01*
X188015001Y-117542102D01*
X187720349Y-117247450D01*
X187329721Y-116986440D01*
X186895679Y-116806654D01*
X186434902Y-116715000D01*
X185965098Y-116715000D01*
X185504321Y-116806654D01*
X185070279Y-116986440D01*
X184679651Y-117247450D01*
X184347450Y-117579651D01*
X184086440Y-117970279D01*
X183906654Y-118404321D01*
X183815000Y-118865098D01*
X183815000Y-119334902D01*
X183906654Y-119795679D01*
X184086440Y-120229721D01*
X184347450Y-120620349D01*
X184642101Y-120915000D01*
X94757899Y-120915000D01*
X95052550Y-120620349D01*
X95313560Y-120229721D01*
X95493346Y-119795679D01*
X95585000Y-119334902D01*
X95585000Y-118865098D01*
X95493346Y-118404321D01*
X95313560Y-117970279D01*
X95052550Y-117579651D01*
X94720349Y-117247450D01*
X94329721Y-116986440D01*
X93895679Y-116806654D01*
X93434902Y-116715000D01*
X92965098Y-116715000D01*
X92504321Y-116806654D01*
X92070279Y-116986440D01*
X91679651Y-117247450D01*
X91385000Y-117542101D01*
X91385000Y-89327204D01*
X95010709Y-89327204D01*
X95014990Y-89370673D01*
X95014991Y-109456511D01*
X95010709Y-109499990D01*
X95027795Y-109673480D01*
X95078402Y-109840303D01*
X95160580Y-109994049D01*
X95243458Y-110095036D01*
X95243461Y-110095039D01*
X95271174Y-110128807D01*
X95304941Y-110156520D01*
X99604953Y-114456532D01*
X99604959Y-114456537D01*
X100043466Y-114895044D01*
X100071183Y-114928817D01*
X100205941Y-115039411D01*
X100359687Y-115121589D01*
X100526510Y-115172195D01*
X100656523Y-115185000D01*
X100656531Y-115185000D01*
X100700000Y-115189281D01*
X100743469Y-115185000D01*
X104736531Y-115185000D01*
X104780000Y-115189281D01*
X104823469Y-115185000D01*
X104823477Y-115185000D01*
X104953490Y-115172195D01*
X105120313Y-115121589D01*
X105274059Y-115039411D01*
X105408817Y-114928817D01*
X105436534Y-114895044D01*
X106760967Y-113570612D01*
X106907050Y-113585000D01*
X107052950Y-113585000D01*
X107271111Y-113563513D01*
X107551034Y-113478599D01*
X107809014Y-113340706D01*
X108035134Y-113155134D01*
X108220706Y-112929014D01*
X108358599Y-112671034D01*
X108443513Y-112391111D01*
X108472185Y-112100000D01*
X108443513Y-111808889D01*
X108358599Y-111528966D01*
X108220706Y-111270986D01*
X108035134Y-111044866D01*
X107809014Y-110859294D01*
X107551034Y-110721401D01*
X107271111Y-110636487D01*
X107052950Y-110615000D01*
X106907050Y-110615000D01*
X106688889Y-110636487D01*
X106408966Y-110721401D01*
X106150986Y-110859294D01*
X105924866Y-111044866D01*
X105739294Y-111270986D01*
X105710000Y-111325791D01*
X105680706Y-111270986D01*
X105525000Y-111081258D01*
X105525000Y-110005000D01*
X112480299Y-110005000D01*
X112484188Y-110044482D01*
X112520498Y-110164180D01*
X112579463Y-110274494D01*
X112658815Y-110371185D01*
X112755506Y-110450537D01*
X112865820Y-110509502D01*
X112985518Y-110545812D01*
X113110000Y-110558072D01*
X114710000Y-110558072D01*
X114834482Y-110545812D01*
X114954180Y-110509502D01*
X115064494Y-110450537D01*
X115161185Y-110371185D01*
X115240537Y-110274494D01*
X115299502Y-110164180D01*
X115335812Y-110044482D01*
X115348072Y-109920000D01*
X115348072Y-108320000D01*
X115335812Y-108195518D01*
X115299502Y-108075820D01*
X115240537Y-107965506D01*
X115161185Y-107868815D01*
X115064494Y-107789463D01*
X114954180Y-107730498D01*
X114834482Y-107694188D01*
X114710000Y-107681928D01*
X114702785Y-107681928D01*
X114723097Y-107612702D01*
X113910000Y-106799605D01*
X113096903Y-107612702D01*
X113117215Y-107681928D01*
X113110000Y-107681928D01*
X112985518Y-107694188D01*
X112865820Y-107730498D01*
X112755506Y-107789463D01*
X112658815Y-107868815D01*
X112579463Y-107965506D01*
X112520498Y-108075820D01*
X112484188Y-108195518D01*
X112480299Y-108235000D01*
X105525000Y-108235000D01*
X105525000Y-106690512D01*
X112469783Y-106690512D01*
X112511213Y-106970130D01*
X112606397Y-107236292D01*
X112673329Y-107361514D01*
X112917298Y-107433097D01*
X113730395Y-106620000D01*
X114089605Y-106620000D01*
X114902702Y-107433097D01*
X115146671Y-107361514D01*
X115267571Y-107106004D01*
X115336300Y-106831816D01*
X115350217Y-106549488D01*
X115308787Y-106269870D01*
X115213603Y-106003708D01*
X115146671Y-105878486D01*
X114902702Y-105806903D01*
X114089605Y-106620000D01*
X113730395Y-106620000D01*
X112917298Y-105806903D01*
X112673329Y-105878486D01*
X112552429Y-106133996D01*
X112483700Y-106408184D01*
X112469783Y-106690512D01*
X105525000Y-106690512D01*
X105525000Y-105627298D01*
X113096903Y-105627298D01*
X113910000Y-106440395D01*
X114723097Y-105627298D01*
X114651514Y-105383329D01*
X114396004Y-105262429D01*
X114121816Y-105193700D01*
X113839488Y-105179783D01*
X113559870Y-105221213D01*
X113293708Y-105316397D01*
X113168486Y-105383329D01*
X113096903Y-105627298D01*
X105525000Y-105627298D01*
X105525000Y-105014759D01*
X105695134Y-104875134D01*
X105719607Y-104845313D01*
X105740498Y-104914180D01*
X105799463Y-105024494D01*
X105878815Y-105121185D01*
X105975506Y-105200537D01*
X106085820Y-105259502D01*
X106205518Y-105295812D01*
X106330000Y-105308072D01*
X106894250Y-105305000D01*
X107053000Y-105146250D01*
X107053000Y-103947000D01*
X107307000Y-103947000D01*
X107307000Y-105146250D01*
X107465750Y-105305000D01*
X108030000Y-105308072D01*
X108154482Y-105295812D01*
X108274180Y-105259502D01*
X108384494Y-105200537D01*
X108481185Y-105121185D01*
X108560537Y-105024494D01*
X108619502Y-104914180D01*
X108655812Y-104794482D01*
X108668072Y-104670000D01*
X108665000Y-104105750D01*
X108506250Y-103947000D01*
X107307000Y-103947000D01*
X107053000Y-103947000D01*
X107033000Y-103947000D01*
X107033000Y-103693000D01*
X107053000Y-103693000D01*
X107053000Y-102493750D01*
X107307000Y-102493750D01*
X107307000Y-103693000D01*
X108506250Y-103693000D01*
X108665000Y-103534250D01*
X108668072Y-102970000D01*
X108655812Y-102845518D01*
X108619502Y-102725820D01*
X108560537Y-102615506D01*
X108481185Y-102518815D01*
X108384494Y-102439463D01*
X108274180Y-102380498D01*
X108154482Y-102344188D01*
X108030000Y-102331928D01*
X107465750Y-102335000D01*
X107307000Y-102493750D01*
X107053000Y-102493750D01*
X106894250Y-102335000D01*
X106330000Y-102331928D01*
X106205518Y-102344188D01*
X106085820Y-102380498D01*
X105975506Y-102439463D01*
X105878815Y-102518815D01*
X105799463Y-102615506D01*
X105740498Y-102725820D01*
X105719607Y-102794687D01*
X105695134Y-102764866D01*
X105469014Y-102579294D01*
X105211034Y-102441401D01*
X104931111Y-102356487D01*
X104712950Y-102335000D01*
X104567050Y-102335000D01*
X104348889Y-102356487D01*
X104068966Y-102441401D01*
X103810986Y-102579294D01*
X103584866Y-102764866D01*
X103399294Y-102990986D01*
X103370000Y-103045791D01*
X103340706Y-102990986D01*
X103155134Y-102764866D01*
X102929014Y-102579294D01*
X102740000Y-102478264D01*
X102740000Y-97277595D01*
X102809014Y-97240706D01*
X103035134Y-97055134D01*
X103220706Y-96829014D01*
X103250000Y-96774209D01*
X103279294Y-96829014D01*
X103464866Y-97055134D01*
X103690986Y-97240706D01*
X103948966Y-97378599D01*
X104228889Y-97463513D01*
X104447050Y-97485000D01*
X104592950Y-97485000D01*
X104811111Y-97463513D01*
X105091034Y-97378599D01*
X105349014Y-97240706D01*
X105575134Y-97055134D01*
X105760706Y-96829014D01*
X105795201Y-96764477D01*
X105864822Y-96881355D01*
X106059731Y-97097588D01*
X106293080Y-97271641D01*
X106555901Y-97396825D01*
X106703110Y-97441476D01*
X106933000Y-97320155D01*
X106933000Y-96127000D01*
X106913000Y-96127000D01*
X106913000Y-95873000D01*
X106933000Y-95873000D01*
X106933000Y-94679845D01*
X106703110Y-94558524D01*
X106555901Y-94603175D01*
X106293080Y-94728359D01*
X106059731Y-94902412D01*
X105864822Y-95118645D01*
X105795201Y-95235523D01*
X105760706Y-95170986D01*
X105575134Y-94944866D01*
X105349014Y-94759294D01*
X105280000Y-94722405D01*
X105280000Y-92220901D01*
X105321101Y-92198932D01*
X105539608Y-92019608D01*
X105718932Y-91801101D01*
X105792579Y-91663318D01*
X105907615Y-91855131D01*
X106096586Y-92063519D01*
X106322580Y-92231037D01*
X106576913Y-92351246D01*
X106710961Y-92391904D01*
X106933000Y-92269915D01*
X106933000Y-91127000D01*
X106913000Y-91127000D01*
X106913000Y-90873000D01*
X106933000Y-90873000D01*
X106933000Y-89730085D01*
X107187000Y-89730085D01*
X107187000Y-90873000D01*
X107207000Y-90873000D01*
X107207000Y-91127000D01*
X107187000Y-91127000D01*
X107187000Y-92269915D01*
X107409039Y-92391904D01*
X107543087Y-92351246D01*
X107797420Y-92231037D01*
X108023414Y-92063519D01*
X108212385Y-91855131D01*
X108327421Y-91663318D01*
X108401068Y-91801101D01*
X108580392Y-92019608D01*
X108798899Y-92198932D01*
X108840000Y-92220901D01*
X108840001Y-94722405D01*
X108770986Y-94759294D01*
X108544866Y-94944866D01*
X108359294Y-95170986D01*
X108324799Y-95235523D01*
X108255178Y-95118645D01*
X108060269Y-94902412D01*
X107826920Y-94728359D01*
X107564099Y-94603175D01*
X107416890Y-94558524D01*
X107187000Y-94679845D01*
X107187000Y-95873000D01*
X107207000Y-95873000D01*
X107207000Y-96127000D01*
X107187000Y-96127000D01*
X107187000Y-97320155D01*
X107416890Y-97441476D01*
X107564099Y-97396825D01*
X107826920Y-97271641D01*
X108060269Y-97097588D01*
X108255178Y-96881355D01*
X108324799Y-96764477D01*
X108359294Y-96829014D01*
X108544866Y-97055134D01*
X108770986Y-97240706D01*
X108840000Y-97277595D01*
X108840000Y-98952678D01*
X108836324Y-98990000D01*
X108840000Y-99027322D01*
X108840000Y-99027332D01*
X108850997Y-99138985D01*
X108889218Y-99264986D01*
X108894454Y-99282246D01*
X108965026Y-99414276D01*
X108970557Y-99421015D01*
X109059999Y-99530001D01*
X109089003Y-99553804D01*
X113196210Y-103661012D01*
X113220009Y-103690011D01*
X113249007Y-103713809D01*
X113335734Y-103784984D01*
X113467763Y-103855556D01*
X113611024Y-103899013D01*
X113760010Y-103913687D01*
X113797343Y-103910010D01*
X140355209Y-103910010D01*
X140679203Y-104234004D01*
X140656487Y-104308889D01*
X140627815Y-104600000D01*
X140656487Y-104891111D01*
X140741401Y-105171034D01*
X140879294Y-105429014D01*
X141064866Y-105655134D01*
X141290986Y-105840706D01*
X141548966Y-105978599D01*
X141828889Y-106063513D01*
X142047050Y-106085000D01*
X142192950Y-106085000D01*
X142411111Y-106063513D01*
X142691034Y-105978599D01*
X142949014Y-105840706D01*
X143175134Y-105655134D01*
X143360706Y-105429014D01*
X143390000Y-105374209D01*
X143419294Y-105429014D01*
X143604866Y-105655134D01*
X143830986Y-105840706D01*
X144088966Y-105978599D01*
X144368889Y-106063513D01*
X144587050Y-106085000D01*
X144732950Y-106085000D01*
X144951111Y-106063513D01*
X145231034Y-105978599D01*
X145489014Y-105840706D01*
X145715134Y-105655134D01*
X145900706Y-105429014D01*
X145930000Y-105374209D01*
X145959294Y-105429014D01*
X146144866Y-105655134D01*
X146370986Y-105840706D01*
X146628966Y-105978599D01*
X146908889Y-106063513D01*
X147127050Y-106085000D01*
X147272950Y-106085000D01*
X147491111Y-106063513D01*
X147771034Y-105978599D01*
X148029014Y-105840706D01*
X148255134Y-105655134D01*
X148440706Y-105429014D01*
X148470000Y-105374209D01*
X148499294Y-105429014D01*
X148684866Y-105655134D01*
X148910986Y-105840706D01*
X149168966Y-105978599D01*
X149448889Y-106063513D01*
X149667050Y-106085000D01*
X149812950Y-106085000D01*
X150031111Y-106063513D01*
X150311034Y-105978599D01*
X150569014Y-105840706D01*
X150795134Y-105655134D01*
X150980706Y-105429014D01*
X151010000Y-105374209D01*
X151039294Y-105429014D01*
X151224866Y-105655134D01*
X151450986Y-105840706D01*
X151708966Y-105978599D01*
X151988889Y-106063513D01*
X152207050Y-106085000D01*
X152352950Y-106085000D01*
X152571111Y-106063513D01*
X152851034Y-105978599D01*
X153109014Y-105840706D01*
X153335134Y-105655134D01*
X153520706Y-105429014D01*
X153550000Y-105374209D01*
X153579294Y-105429014D01*
X153764866Y-105655134D01*
X153990986Y-105840706D01*
X154248966Y-105978599D01*
X154528889Y-106063513D01*
X154747050Y-106085000D01*
X154892950Y-106085000D01*
X155111111Y-106063513D01*
X155391034Y-105978599D01*
X155649014Y-105840706D01*
X155875134Y-105655134D01*
X156060706Y-105429014D01*
X156090000Y-105374209D01*
X156119294Y-105429014D01*
X156304866Y-105655134D01*
X156530986Y-105840706D01*
X156788966Y-105978599D01*
X157068889Y-106063513D01*
X157287050Y-106085000D01*
X157432950Y-106085000D01*
X157651111Y-106063513D01*
X157931034Y-105978599D01*
X158189014Y-105840706D01*
X158415134Y-105655134D01*
X158439607Y-105625313D01*
X158460498Y-105694180D01*
X158519463Y-105804494D01*
X158598815Y-105901185D01*
X158695506Y-105980537D01*
X158805820Y-106039502D01*
X158925518Y-106075812D01*
X159050000Y-106088072D01*
X160750000Y-106088072D01*
X160874482Y-106075812D01*
X160994180Y-106039502D01*
X161104494Y-105980537D01*
X161201185Y-105901185D01*
X161280537Y-105804494D01*
X161339502Y-105694180D01*
X161375812Y-105574482D01*
X161388072Y-105450000D01*
X161388072Y-103750000D01*
X161375812Y-103625518D01*
X161339502Y-103505820D01*
X161280537Y-103395506D01*
X161201185Y-103298815D01*
X161104494Y-103219463D01*
X160994180Y-103160498D01*
X160874482Y-103124188D01*
X160750000Y-103111928D01*
X160660000Y-103111928D01*
X160660000Y-102265549D01*
X164835453Y-106441003D01*
X164859251Y-106470001D01*
X164974976Y-106564974D01*
X165107005Y-106635546D01*
X165250266Y-106679003D01*
X165361919Y-106690000D01*
X165361928Y-106690000D01*
X165399251Y-106693676D01*
X165436574Y-106690000D01*
X166901928Y-106690000D01*
X166901928Y-106780000D01*
X166914188Y-106904482D01*
X166950498Y-107024180D01*
X167009463Y-107134494D01*
X167088815Y-107231185D01*
X167185506Y-107310537D01*
X167295820Y-107369502D01*
X167415518Y-107405812D01*
X167540000Y-107418072D01*
X169240000Y-107418072D01*
X169364482Y-107405812D01*
X169484180Y-107369502D01*
X169594494Y-107310537D01*
X169691185Y-107231185D01*
X169770537Y-107134494D01*
X169829502Y-107024180D01*
X169865812Y-106904482D01*
X169878072Y-106780000D01*
X169878072Y-105080000D01*
X169865812Y-104955518D01*
X169829502Y-104835820D01*
X169770537Y-104725506D01*
X169691185Y-104628815D01*
X169594494Y-104549463D01*
X169484180Y-104490498D01*
X169415313Y-104469607D01*
X169445134Y-104445134D01*
X169630706Y-104219014D01*
X169768599Y-103961034D01*
X169853513Y-103681111D01*
X169882185Y-103390000D01*
X169853513Y-103098889D01*
X169768599Y-102818966D01*
X169630706Y-102560986D01*
X169445134Y-102334866D01*
X169219014Y-102149294D01*
X169154477Y-102114799D01*
X169271355Y-102045178D01*
X169487588Y-101850269D01*
X169661641Y-101616920D01*
X169786825Y-101354099D01*
X169831476Y-101206890D01*
X169710155Y-100977000D01*
X168517000Y-100977000D01*
X168517000Y-100997000D01*
X168263000Y-100997000D01*
X168263000Y-100977000D01*
X167069845Y-100977000D01*
X166948524Y-101206890D01*
X166993175Y-101354099D01*
X167118359Y-101616920D01*
X167292412Y-101850269D01*
X167508645Y-102045178D01*
X167625523Y-102114799D01*
X167560986Y-102149294D01*
X167334866Y-102334866D01*
X167149294Y-102560986D01*
X167011401Y-102818966D01*
X166926487Y-103098889D01*
X166897815Y-103390000D01*
X166926487Y-103681111D01*
X167011401Y-103961034D01*
X167149294Y-104219014D01*
X167334866Y-104445134D01*
X167364687Y-104469607D01*
X167295820Y-104490498D01*
X167185506Y-104549463D01*
X167088815Y-104628815D01*
X167009463Y-104725506D01*
X166950498Y-104835820D01*
X166914188Y-104955518D01*
X166901928Y-105080000D01*
X166901928Y-105170000D01*
X165714054Y-105170000D01*
X161037164Y-100493110D01*
X166948524Y-100493110D01*
X167069845Y-100723000D01*
X168263000Y-100723000D01*
X168263000Y-99529186D01*
X168517000Y-99529186D01*
X168517000Y-100723000D01*
X169710155Y-100723000D01*
X169831476Y-100493110D01*
X169786825Y-100345901D01*
X169661641Y-100083080D01*
X169487588Y-99849731D01*
X169271355Y-99654822D01*
X169021252Y-99505843D01*
X168746891Y-99408519D01*
X168517000Y-99529186D01*
X168263000Y-99529186D01*
X168033109Y-99408519D01*
X167758748Y-99505843D01*
X167508645Y-99654822D01*
X167292412Y-99849731D01*
X167118359Y-100083080D01*
X166993175Y-100345901D01*
X166948524Y-100493110D01*
X161037164Y-100493110D01*
X157982986Y-97438933D01*
X157959183Y-97409929D01*
X157843458Y-97314956D01*
X157711429Y-97244384D01*
X157568168Y-97200927D01*
X157456515Y-97189930D01*
X157456504Y-97189930D01*
X157419182Y-97186254D01*
X157381860Y-97189930D01*
X135890885Y-97189930D01*
X136055134Y-97055134D01*
X136240706Y-96829014D01*
X136378599Y-96571034D01*
X136463513Y-96291111D01*
X136492185Y-96000000D01*
X136463513Y-95708889D01*
X136378599Y-95428966D01*
X136240706Y-95170986D01*
X136055134Y-94944866D01*
X135829014Y-94759294D01*
X135760000Y-94722405D01*
X135760000Y-92220901D01*
X135801101Y-92198932D01*
X136019608Y-92019608D01*
X136198932Y-91801101D01*
X136332182Y-91551808D01*
X136414236Y-91281309D01*
X136441943Y-91000000D01*
X136414236Y-90718691D01*
X136332182Y-90448192D01*
X136198932Y-90198899D01*
X136019608Y-89980392D01*
X135801101Y-89801068D01*
X135551808Y-89667818D01*
X135281309Y-89585764D01*
X135070492Y-89565000D01*
X134929508Y-89565000D01*
X134718691Y-89585764D01*
X134448192Y-89667818D01*
X134198899Y-89801068D01*
X133980392Y-89980392D01*
X133801068Y-90198899D01*
X133730000Y-90331858D01*
X133658932Y-90198899D01*
X133479608Y-89980392D01*
X133261101Y-89801068D01*
X133011808Y-89667818D01*
X132741309Y-89585764D01*
X132530492Y-89565000D01*
X132389508Y-89565000D01*
X132178691Y-89585764D01*
X131908192Y-89667818D01*
X131658899Y-89801068D01*
X131440392Y-89980392D01*
X131261068Y-90198899D01*
X131190000Y-90331858D01*
X131118932Y-90198899D01*
X130939608Y-89980392D01*
X130721101Y-89801068D01*
X130471808Y-89667818D01*
X130201309Y-89585764D01*
X129990492Y-89565000D01*
X129849508Y-89565000D01*
X129638691Y-89585764D01*
X129368192Y-89667818D01*
X129118899Y-89801068D01*
X128900392Y-89980392D01*
X128721068Y-90198899D01*
X128650000Y-90331858D01*
X128578932Y-90198899D01*
X128399608Y-89980392D01*
X128181101Y-89801068D01*
X127931808Y-89667818D01*
X127661309Y-89585764D01*
X127450492Y-89565000D01*
X127309508Y-89565000D01*
X127098691Y-89585764D01*
X126828192Y-89667818D01*
X126578899Y-89801068D01*
X126360392Y-89980392D01*
X126181068Y-90198899D01*
X126110000Y-90331858D01*
X126038932Y-90198899D01*
X125859608Y-89980392D01*
X125641101Y-89801068D01*
X125391808Y-89667818D01*
X125121309Y-89585764D01*
X124910492Y-89565000D01*
X124769508Y-89565000D01*
X124558691Y-89585764D01*
X124288192Y-89667818D01*
X124038899Y-89801068D01*
X123820392Y-89980392D01*
X123641068Y-90198899D01*
X123570000Y-90331858D01*
X123498932Y-90198899D01*
X123319608Y-89980392D01*
X123101101Y-89801068D01*
X122851808Y-89667818D01*
X122581309Y-89585764D01*
X122370492Y-89565000D01*
X122229508Y-89565000D01*
X122018691Y-89585764D01*
X121748192Y-89667818D01*
X121498899Y-89801068D01*
X121280392Y-89980392D01*
X121101068Y-90198899D01*
X121030000Y-90331858D01*
X120958932Y-90198899D01*
X120779608Y-89980392D01*
X120561101Y-89801068D01*
X120311808Y-89667818D01*
X120041309Y-89585764D01*
X119830492Y-89565000D01*
X119689508Y-89565000D01*
X119478691Y-89585764D01*
X119208192Y-89667818D01*
X118958899Y-89801068D01*
X118740392Y-89980392D01*
X118561068Y-90198899D01*
X118490000Y-90331858D01*
X118418932Y-90198899D01*
X118239608Y-89980392D01*
X118021101Y-89801068D01*
X117771808Y-89667818D01*
X117501309Y-89585764D01*
X117290492Y-89565000D01*
X117149508Y-89565000D01*
X116938691Y-89585764D01*
X116668192Y-89667818D01*
X116418899Y-89801068D01*
X116200392Y-89980392D01*
X116021068Y-90198899D01*
X115950000Y-90331858D01*
X115878932Y-90198899D01*
X115699608Y-89980392D01*
X115481101Y-89801068D01*
X115231808Y-89667818D01*
X114961309Y-89585764D01*
X114750492Y-89565000D01*
X114609508Y-89565000D01*
X114398691Y-89585764D01*
X114128192Y-89667818D01*
X113878899Y-89801068D01*
X113660392Y-89980392D01*
X113481068Y-90198899D01*
X113410000Y-90331858D01*
X113338932Y-90198899D01*
X113159608Y-89980392D01*
X112941101Y-89801068D01*
X112691808Y-89667818D01*
X112421309Y-89585764D01*
X112210492Y-89565000D01*
X112069508Y-89565000D01*
X111858691Y-89585764D01*
X111588192Y-89667818D01*
X111338899Y-89801068D01*
X111120392Y-89980392D01*
X110941068Y-90198899D01*
X110870000Y-90331858D01*
X110798932Y-90198899D01*
X110619608Y-89980392D01*
X110401101Y-89801068D01*
X110151808Y-89667818D01*
X109881309Y-89585764D01*
X109670492Y-89565000D01*
X109529508Y-89565000D01*
X109318691Y-89585764D01*
X109048192Y-89667818D01*
X108798899Y-89801068D01*
X108580392Y-89980392D01*
X108401068Y-90198899D01*
X108327421Y-90336682D01*
X108212385Y-90144869D01*
X108023414Y-89936481D01*
X107797420Y-89768963D01*
X107543087Y-89648754D01*
X107409039Y-89608096D01*
X107187000Y-89730085D01*
X106933000Y-89730085D01*
X106710961Y-89608096D01*
X106576913Y-89648754D01*
X106322580Y-89768963D01*
X106096586Y-89936481D01*
X105907615Y-90144869D01*
X105792579Y-90336682D01*
X105718932Y-90198899D01*
X105539608Y-89980392D01*
X105321101Y-89801068D01*
X105071808Y-89667818D01*
X104801309Y-89585764D01*
X104590492Y-89565000D01*
X104449508Y-89565000D01*
X104238691Y-89585764D01*
X103968192Y-89667818D01*
X103718899Y-89801068D01*
X103500392Y-89980392D01*
X103321068Y-90198899D01*
X103250000Y-90331858D01*
X103178932Y-90198899D01*
X102999608Y-89980392D01*
X102781101Y-89801068D01*
X102531808Y-89667818D01*
X102261309Y-89585764D01*
X102050492Y-89565000D01*
X101909508Y-89565000D01*
X101698691Y-89585764D01*
X101428192Y-89667818D01*
X101178899Y-89801068D01*
X100960392Y-89980392D01*
X100867581Y-90093482D01*
X100865812Y-90075518D01*
X100829502Y-89955820D01*
X100770537Y-89845506D01*
X100691185Y-89748815D01*
X100594494Y-89669463D01*
X100484180Y-89610498D01*
X100364482Y-89574188D01*
X100240000Y-89561928D01*
X98640000Y-89561928D01*
X98515518Y-89574188D01*
X98395820Y-89610498D01*
X98285506Y-89669463D01*
X98188815Y-89748815D01*
X98109463Y-89845506D01*
X98050498Y-89955820D01*
X98014188Y-90075518D01*
X98001928Y-90200000D01*
X98001928Y-91800000D01*
X98014188Y-91924482D01*
X98050498Y-92044180D01*
X98109463Y-92154494D01*
X98188815Y-92251185D01*
X98285506Y-92330537D01*
X98395820Y-92389502D01*
X98515518Y-92425812D01*
X98640000Y-92438072D01*
X98680000Y-92438072D01*
X98680001Y-94511928D01*
X98590000Y-94511928D01*
X98465518Y-94524188D01*
X98345820Y-94560498D01*
X98235506Y-94619463D01*
X98138815Y-94698815D01*
X98059463Y-94795506D01*
X98000498Y-94905820D01*
X97964188Y-95025518D01*
X97951928Y-95150000D01*
X97951928Y-96850000D01*
X97964188Y-96974482D01*
X98000498Y-97094180D01*
X98059463Y-97204494D01*
X98138815Y-97301185D01*
X98235506Y-97380537D01*
X98345820Y-97439502D01*
X98465518Y-97475812D01*
X98590000Y-97488072D01*
X98800001Y-97488072D01*
X98800000Y-102542405D01*
X98730986Y-102579294D01*
X98504866Y-102764866D01*
X98319294Y-102990986D01*
X98181401Y-103248966D01*
X98096487Y-103528889D01*
X98067815Y-103820000D01*
X98096487Y-104111111D01*
X98181401Y-104391034D01*
X98319294Y-104649014D01*
X98504866Y-104875134D01*
X98730986Y-105060706D01*
X98988966Y-105198599D01*
X99268889Y-105283513D01*
X99487050Y-105305000D01*
X99632950Y-105305000D01*
X99851111Y-105283513D01*
X100131034Y-105198599D01*
X100389014Y-105060706D01*
X100615134Y-104875134D01*
X100800706Y-104649014D01*
X100830000Y-104594209D01*
X100859294Y-104649014D01*
X101044866Y-104875134D01*
X101270986Y-105060706D01*
X101528966Y-105198599D01*
X101808889Y-105283513D01*
X102027050Y-105305000D01*
X102172950Y-105305000D01*
X102391111Y-105283513D01*
X102671034Y-105198599D01*
X102929014Y-105060706D01*
X103155134Y-104875134D01*
X103340706Y-104649014D01*
X103370000Y-104594209D01*
X103399294Y-104649014D01*
X103584866Y-104875134D01*
X103755000Y-105014760D01*
X103755001Y-109216514D01*
X103755000Y-109216524D01*
X103755000Y-109216531D01*
X103750719Y-109260000D01*
X103755000Y-109303469D01*
X103755001Y-110782317D01*
X103610986Y-110859294D01*
X103384866Y-111044866D01*
X103360393Y-111074687D01*
X103339502Y-111005820D01*
X103280537Y-110895506D01*
X103201185Y-110798815D01*
X103104494Y-110719463D01*
X102994180Y-110660498D01*
X102874482Y-110624188D01*
X102775935Y-110614482D01*
X102772195Y-110576510D01*
X102721589Y-110409687D01*
X102639411Y-110255941D01*
X102528817Y-110121183D01*
X102495049Y-110093470D01*
X97685000Y-105283422D01*
X97685000Y-90066578D01*
X107478546Y-80273032D01*
X145873000Y-80273032D01*
X145873000Y-94973032D01*
X145875288Y-94997030D01*
X145882366Y-95020899D01*
X145893964Y-95042928D01*
X145909638Y-95062272D01*
X145928784Y-95078186D01*
X145950667Y-95090059D01*
X145974446Y-95097434D01*
X145999206Y-95100030D01*
X153900715Y-95149414D01*
X153900715Y-95230000D01*
X166794406Y-95230000D01*
X177999206Y-95300030D01*
X178024776Y-95297592D01*
X178048601Y-95290365D01*
X178070557Y-95278629D01*
X178089803Y-95262835D01*
X178105597Y-95243589D01*
X178117333Y-95221633D01*
X178124560Y-95197808D01*
X178127000Y-95173032D01*
X178127000Y-80273032D01*
X178124560Y-80248256D01*
X178117333Y-80224431D01*
X178105597Y-80202475D01*
X178089803Y-80183229D01*
X178070557Y-80167435D01*
X178048601Y-80155699D01*
X178024776Y-80148472D01*
X178000000Y-80146032D01*
X146000000Y-80146032D01*
X145975224Y-80148472D01*
X145951399Y-80155699D01*
X145929443Y-80167435D01*
X145910197Y-80183229D01*
X145894403Y-80202475D01*
X145882667Y-80224431D01*
X145875440Y-80248256D01*
X145873000Y-80273032D01*
X107478546Y-80273032D01*
X107655049Y-80096530D01*
X107688817Y-80068817D01*
X107799411Y-79934059D01*
X107881589Y-79780313D01*
X107932195Y-79613490D01*
X107945000Y-79483477D01*
X107945000Y-79483467D01*
X107949281Y-79440001D01*
X107945000Y-79396535D01*
X107945000Y-76890078D01*
X108079608Y-76779608D01*
X108258932Y-76561101D01*
X108330000Y-76428142D01*
X108401068Y-76561101D01*
X108580392Y-76779608D01*
X108798899Y-76958932D01*
X109048192Y-77092182D01*
X109318691Y-77174236D01*
X109529508Y-77195000D01*
X109670492Y-77195000D01*
X109881309Y-77174236D01*
X110151808Y-77092182D01*
X110401101Y-76958932D01*
X110619608Y-76779608D01*
X110798932Y-76561101D01*
X110870000Y-76428142D01*
X110941068Y-76561101D01*
X111120392Y-76779608D01*
X111338899Y-76958932D01*
X111588192Y-77092182D01*
X111858691Y-77174236D01*
X112069508Y-77195000D01*
X112210492Y-77195000D01*
X112421309Y-77174236D01*
X112691808Y-77092182D01*
X112941101Y-76958932D01*
X113159608Y-76779608D01*
X113338932Y-76561101D01*
X113410000Y-76428142D01*
X113481068Y-76561101D01*
X113660392Y-76779608D01*
X113878899Y-76958932D01*
X113920001Y-76980901D01*
X113920001Y-77442668D01*
X113916324Y-77480000D01*
X113930998Y-77628985D01*
X113974454Y-77772246D01*
X114045026Y-77904276D01*
X114116201Y-77991002D01*
X114140000Y-78020001D01*
X114168998Y-78043799D01*
X114836201Y-78711002D01*
X114859999Y-78740001D01*
X114975724Y-78834974D01*
X115107753Y-78905546D01*
X115251014Y-78949003D01*
X115362667Y-78960000D01*
X115362675Y-78960000D01*
X115400000Y-78963676D01*
X115437325Y-78960000D01*
X135162678Y-78960000D01*
X135200000Y-78963676D01*
X135237322Y-78960000D01*
X135237333Y-78960000D01*
X135348986Y-78949003D01*
X135492247Y-78905546D01*
X135624276Y-78834974D01*
X135740001Y-78740001D01*
X135763804Y-78710998D01*
X137811008Y-76663795D01*
X137840001Y-76640001D01*
X137863795Y-76611008D01*
X137863799Y-76611004D01*
X137934973Y-76524277D01*
X137941404Y-76512246D01*
X138005546Y-76392247D01*
X138049003Y-76248986D01*
X138060000Y-76137333D01*
X138060000Y-76137324D01*
X138063676Y-76100001D01*
X138060000Y-76062678D01*
X138060000Y-72314801D01*
X140659782Y-69715020D01*
X177040219Y-69715020D01*
X183206201Y-75881003D01*
X183230000Y-75910002D01*
X183258998Y-75933800D01*
X183345724Y-76004975D01*
X183434163Y-76052247D01*
X183477754Y-76075547D01*
X183621015Y-76119004D01*
X183716833Y-76128441D01*
X183707815Y-76220000D01*
X183736487Y-76511111D01*
X183821401Y-76791034D01*
X183959294Y-77049014D01*
X184144866Y-77275134D01*
X184370986Y-77460706D01*
X184628966Y-77598599D01*
X184908889Y-77683513D01*
X185127050Y-77705000D01*
X185272950Y-77705000D01*
X185491111Y-77683513D01*
X185771034Y-77598599D01*
X186029014Y-77460706D01*
X186255134Y-77275134D01*
X186440706Y-77049014D01*
X186578599Y-76791034D01*
X186663513Y-76511111D01*
X186692185Y-76220000D01*
X186663513Y-75928889D01*
X186578599Y-75648966D01*
X186440706Y-75390986D01*
X186255134Y-75164866D01*
X186029014Y-74979294D01*
X185974209Y-74950000D01*
X186029014Y-74920706D01*
X186255134Y-74735134D01*
X186440706Y-74509014D01*
X186578599Y-74251034D01*
X186663513Y-73971111D01*
X186692185Y-73680000D01*
X186663513Y-73388889D01*
X186578599Y-73108966D01*
X186440706Y-72850986D01*
X186255134Y-72624866D01*
X186029014Y-72439294D01*
X185974209Y-72410000D01*
X186029014Y-72380706D01*
X186255134Y-72195134D01*
X186440706Y-71969014D01*
X186578599Y-71711034D01*
X186663513Y-71431111D01*
X186692185Y-71140000D01*
X186663513Y-70848889D01*
X186578599Y-70568966D01*
X186440706Y-70310986D01*
X186255134Y-70084866D01*
X186225313Y-70060393D01*
X186294180Y-70039502D01*
X186404494Y-69980537D01*
X186501185Y-69901185D01*
X186580537Y-69804494D01*
X186639502Y-69694180D01*
X186675812Y-69574482D01*
X186688072Y-69450000D01*
X186685000Y-68885750D01*
X186526250Y-68727000D01*
X185327000Y-68727000D01*
X185327000Y-68747000D01*
X185073000Y-68747000D01*
X185073000Y-68727000D01*
X183873750Y-68727000D01*
X183715000Y-68885750D01*
X183711928Y-69450000D01*
X183724188Y-69574482D01*
X183760498Y-69694180D01*
X183819463Y-69804494D01*
X183898815Y-69901185D01*
X183995506Y-69980537D01*
X184105820Y-70039502D01*
X184174687Y-70060393D01*
X184144866Y-70084866D01*
X184005241Y-70255000D01*
X183326579Y-70255000D01*
X180821579Y-67750000D01*
X183711928Y-67750000D01*
X183715000Y-68314250D01*
X183873750Y-68473000D01*
X185073000Y-68473000D01*
X185073000Y-67273750D01*
X185327000Y-67273750D01*
X185327000Y-68473000D01*
X186526250Y-68473000D01*
X186685000Y-68314250D01*
X186688072Y-67750000D01*
X186675812Y-67625518D01*
X186639502Y-67505820D01*
X186580537Y-67395506D01*
X186501185Y-67298815D01*
X186404494Y-67219463D01*
X186294180Y-67160498D01*
X186174482Y-67124188D01*
X186050000Y-67111928D01*
X185485750Y-67115000D01*
X185327000Y-67273750D01*
X185073000Y-67273750D01*
X184914250Y-67115000D01*
X184350000Y-67111928D01*
X184225518Y-67124188D01*
X184105820Y-67160498D01*
X183995506Y-67219463D01*
X183898815Y-67298815D01*
X183819463Y-67395506D01*
X183760498Y-67505820D01*
X183724188Y-67625518D01*
X183711928Y-67750000D01*
X180821579Y-67750000D01*
X180006534Y-66934956D01*
X179978817Y-66901183D01*
X179844059Y-66790589D01*
X179690313Y-66708411D01*
X179523490Y-66657805D01*
X179393477Y-66645000D01*
X179393469Y-66645000D01*
X179350000Y-66640719D01*
X179306531Y-66645000D01*
X108419246Y-66645000D01*
X108483696Y-66489405D01*
X108535000Y-66231486D01*
X108535000Y-65968514D01*
X108483696Y-65710595D01*
X108383061Y-65467641D01*
X108236962Y-65248987D01*
X108051013Y-65063038D01*
X107832359Y-64916939D01*
X107589405Y-64816304D01*
X107331486Y-64765000D01*
X107068514Y-64765000D01*
X106810595Y-64816304D01*
X106567641Y-64916939D01*
X106348987Y-65063038D01*
X106163038Y-65248987D01*
X106016939Y-65467641D01*
X105949639Y-65630118D01*
X105908935Y-65518634D01*
X105855037Y-65417797D01*
X105621269Y-65358336D01*
X104879605Y-66100000D01*
X105621269Y-66841664D01*
X105855037Y-66782203D01*
X105951592Y-66574596D01*
X106016939Y-66732359D01*
X106163038Y-66951013D01*
X106315001Y-67102976D01*
X106315001Y-67656514D01*
X106315000Y-67656524D01*
X106315000Y-67656531D01*
X106310719Y-67700000D01*
X106315000Y-67743469D01*
X106315001Y-69714387D01*
X106230986Y-69759294D01*
X106004866Y-69944866D01*
X105819294Y-70170986D01*
X105790000Y-70225791D01*
X105760706Y-70170986D01*
X105575134Y-69944866D01*
X105349014Y-69759294D01*
X105091034Y-69621401D01*
X104811111Y-69536487D01*
X104592950Y-69515000D01*
X104447050Y-69515000D01*
X104228889Y-69536487D01*
X103948966Y-69621401D01*
X103690986Y-69759294D01*
X103464866Y-69944866D01*
X103279294Y-70170986D01*
X103244799Y-70235523D01*
X103175178Y-70118645D01*
X102980269Y-69902412D01*
X102746920Y-69728359D01*
X102484099Y-69603175D01*
X102336890Y-69558524D01*
X102107000Y-69679845D01*
X102107000Y-70873000D01*
X102127000Y-70873000D01*
X102127000Y-71127000D01*
X102107000Y-71127000D01*
X102107000Y-72320155D01*
X102336890Y-72441476D01*
X102484099Y-72396825D01*
X102746920Y-72271641D01*
X102980269Y-72097588D01*
X103175178Y-71881355D01*
X103244799Y-71764477D01*
X103279294Y-71829014D01*
X103464866Y-72055134D01*
X103690986Y-72240706D01*
X103760001Y-72277595D01*
X103760000Y-74539099D01*
X103718899Y-74561068D01*
X103500392Y-74740392D01*
X103321068Y-74958899D01*
X103247421Y-75096682D01*
X103132385Y-74904869D01*
X102943414Y-74696481D01*
X102717420Y-74528963D01*
X102463087Y-74408754D01*
X102329039Y-74368096D01*
X102107000Y-74490085D01*
X102107000Y-75633000D01*
X102127000Y-75633000D01*
X102127000Y-75887000D01*
X102107000Y-75887000D01*
X102107000Y-77029915D01*
X102329039Y-77151904D01*
X102463087Y-77111246D01*
X102717420Y-76991037D01*
X102943414Y-76823519D01*
X103132385Y-76615131D01*
X103247421Y-76423318D01*
X103321068Y-76561101D01*
X103500392Y-76779608D01*
X103718899Y-76958932D01*
X103968192Y-77092182D01*
X104238691Y-77174236D01*
X104449508Y-77195000D01*
X104590492Y-77195000D01*
X104801309Y-77174236D01*
X105071808Y-77092182D01*
X105321101Y-76958932D01*
X105539608Y-76779608D01*
X105718932Y-76561101D01*
X105790000Y-76428142D01*
X105861068Y-76561101D01*
X106040392Y-76779608D01*
X106175000Y-76890078D01*
X106175001Y-79073420D01*
X100325000Y-84923422D01*
X100325000Y-76890078D01*
X100459608Y-76779608D01*
X100638932Y-76561101D01*
X100712579Y-76423318D01*
X100827615Y-76615131D01*
X101016586Y-76823519D01*
X101242580Y-76991037D01*
X101496913Y-77111246D01*
X101630961Y-77151904D01*
X101853000Y-77029915D01*
X101853000Y-75887000D01*
X101833000Y-75887000D01*
X101833000Y-75633000D01*
X101853000Y-75633000D01*
X101853000Y-74490085D01*
X101630961Y-74368096D01*
X101496913Y-74408754D01*
X101242580Y-74528963D01*
X101016586Y-74696481D01*
X100827615Y-74904869D01*
X100712579Y-75096682D01*
X100638932Y-74958899D01*
X100459608Y-74740392D01*
X100325000Y-74629922D01*
X100325000Y-72194759D01*
X100495134Y-72055134D01*
X100680706Y-71829014D01*
X100715201Y-71764477D01*
X100784822Y-71881355D01*
X100979731Y-72097588D01*
X101213080Y-72271641D01*
X101475901Y-72396825D01*
X101623110Y-72441476D01*
X101853000Y-72320155D01*
X101853000Y-71127000D01*
X101833000Y-71127000D01*
X101833000Y-70873000D01*
X101853000Y-70873000D01*
X101853000Y-69679845D01*
X101623110Y-69558524D01*
X101475901Y-69603175D01*
X101213080Y-69728359D01*
X100979731Y-69902412D01*
X100784822Y-70118645D01*
X100715201Y-70235523D01*
X100680706Y-70170986D01*
X100495134Y-69944866D01*
X100325000Y-69805241D01*
X100325000Y-67021269D01*
X101058336Y-67021269D01*
X101117797Y-67255037D01*
X101356242Y-67365934D01*
X101611740Y-67428183D01*
X101874473Y-67439390D01*
X102134344Y-67399125D01*
X102381366Y-67308935D01*
X102482203Y-67255037D01*
X102541664Y-67021269D01*
X103958336Y-67021269D01*
X104017797Y-67255037D01*
X104256242Y-67365934D01*
X104511740Y-67428183D01*
X104774473Y-67439390D01*
X105034344Y-67399125D01*
X105281366Y-67308935D01*
X105382203Y-67255037D01*
X105441664Y-67021269D01*
X104700000Y-66279605D01*
X103958336Y-67021269D01*
X102541664Y-67021269D01*
X101800000Y-66279605D01*
X101058336Y-67021269D01*
X100325000Y-67021269D01*
X100325000Y-66962975D01*
X100336962Y-66951013D01*
X100483061Y-66732359D01*
X100550361Y-66569882D01*
X100591065Y-66681366D01*
X100644963Y-66782203D01*
X100878731Y-66841664D01*
X101620395Y-66100000D01*
X101979605Y-66100000D01*
X102721269Y-66841664D01*
X102955037Y-66782203D01*
X103065934Y-66543758D01*
X103128183Y-66288260D01*
X103133036Y-66174473D01*
X103360610Y-66174473D01*
X103400875Y-66434344D01*
X103491065Y-66681366D01*
X103544963Y-66782203D01*
X103778731Y-66841664D01*
X104520395Y-66100000D01*
X103778731Y-65358336D01*
X103544963Y-65417797D01*
X103434066Y-65656242D01*
X103371817Y-65911740D01*
X103360610Y-66174473D01*
X103133036Y-66174473D01*
X103139390Y-66025527D01*
X103099125Y-65765656D01*
X103008935Y-65518634D01*
X102955037Y-65417797D01*
X102721269Y-65358336D01*
X101979605Y-66100000D01*
X101620395Y-66100000D01*
X100878731Y-65358336D01*
X100644963Y-65417797D01*
X100548408Y-65625404D01*
X100483061Y-65467641D01*
X100336962Y-65248987D01*
X100266706Y-65178731D01*
X101058336Y-65178731D01*
X101800000Y-65920395D01*
X102541664Y-65178731D01*
X103958336Y-65178731D01*
X104700000Y-65920395D01*
X105441664Y-65178731D01*
X105382203Y-64944963D01*
X105143758Y-64834066D01*
X104888260Y-64771817D01*
X104625527Y-64760610D01*
X104365656Y-64800875D01*
X104118634Y-64891065D01*
X104017797Y-64944963D01*
X103958336Y-65178731D01*
X102541664Y-65178731D01*
X102482203Y-64944963D01*
X102243758Y-64834066D01*
X101988260Y-64771817D01*
X101725527Y-64760610D01*
X101465656Y-64800875D01*
X101218634Y-64891065D01*
X101117797Y-64944963D01*
X101058336Y-65178731D01*
X100266706Y-65178731D01*
X100151013Y-65063038D01*
X99932359Y-64916939D01*
X99689405Y-64816304D01*
X99431486Y-64765000D01*
X99168514Y-64765000D01*
X98910595Y-64816304D01*
X98667641Y-64916939D01*
X98448987Y-65063038D01*
X98263038Y-65248987D01*
X98116939Y-65467641D01*
X98016304Y-65710595D01*
X97965000Y-65968514D01*
X97965000Y-66231486D01*
X98016304Y-66489405D01*
X98116939Y-66732359D01*
X98263038Y-66951013D01*
X98448987Y-67136962D01*
X98555001Y-67207798D01*
X98555000Y-69805240D01*
X98384866Y-69944866D01*
X98199294Y-70170986D01*
X98061401Y-70428966D01*
X97976487Y-70708889D01*
X97947815Y-71000000D01*
X97976487Y-71291111D01*
X98061401Y-71571034D01*
X98199294Y-71829014D01*
X98384866Y-72055134D01*
X98555001Y-72194760D01*
X98555000Y-74629922D01*
X98420392Y-74740392D01*
X98241068Y-74958899D01*
X98107818Y-75208192D01*
X98025764Y-75478691D01*
X97998057Y-75760000D01*
X98025764Y-76041309D01*
X98107818Y-76311808D01*
X98241068Y-76561101D01*
X98420392Y-76779608D01*
X98555000Y-76890078D01*
X98555001Y-85420614D01*
X95304946Y-88670670D01*
X95271173Y-88698387D01*
X95160579Y-88833146D01*
X95078401Y-88986892D01*
X95027795Y-89153715D01*
X95014990Y-89283728D01*
X95014990Y-89283735D01*
X95010709Y-89327204D01*
X91385000Y-89327204D01*
X91385000Y-65657899D01*
X91679651Y-65952550D01*
X92070279Y-66213560D01*
X92504321Y-66393346D01*
X92965098Y-66485000D01*
X93434902Y-66485000D01*
X93895679Y-66393346D01*
X94329721Y-66213560D01*
X94720349Y-65952550D01*
X95052550Y-65620349D01*
X95313560Y-65229721D01*
X95493346Y-64795679D01*
X95585000Y-64334902D01*
X95585000Y-63865098D01*
X95493346Y-63404321D01*
X95313560Y-62970279D01*
X95052550Y-62579651D01*
X94757899Y-62285000D01*
X184642101Y-62285000D01*
X184347450Y-62579651D01*
X184347450Y-62579651D01*
G37*
X184347450Y-62579651D02*
X184086440Y-62970279D01*
X183906654Y-63404321D01*
X183815000Y-63865098D01*
X183815000Y-64334902D01*
X183906654Y-64795679D01*
X184086440Y-65229721D01*
X184347450Y-65620349D01*
X184679651Y-65952550D01*
X185070279Y-66213560D01*
X185504321Y-66393346D01*
X185965098Y-66485000D01*
X186434902Y-66485000D01*
X186895679Y-66393346D01*
X187329721Y-66213560D01*
X187720349Y-65952550D01*
X188015000Y-65657899D01*
X188015001Y-117542102D01*
X187720349Y-117247450D01*
X187329721Y-116986440D01*
X186895679Y-116806654D01*
X186434902Y-116715000D01*
X185965098Y-116715000D01*
X185504321Y-116806654D01*
X185070279Y-116986440D01*
X184679651Y-117247450D01*
X184347450Y-117579651D01*
X184086440Y-117970279D01*
X183906654Y-118404321D01*
X183815000Y-118865098D01*
X183815000Y-119334902D01*
X183906654Y-119795679D01*
X184086440Y-120229721D01*
X184347450Y-120620349D01*
X184642101Y-120915000D01*
X94757899Y-120915000D01*
X95052550Y-120620349D01*
X95313560Y-120229721D01*
X95493346Y-119795679D01*
X95585000Y-119334902D01*
X95585000Y-118865098D01*
X95493346Y-118404321D01*
X95313560Y-117970279D01*
X95052550Y-117579651D01*
X94720349Y-117247450D01*
X94329721Y-116986440D01*
X93895679Y-116806654D01*
X93434902Y-116715000D01*
X92965098Y-116715000D01*
X92504321Y-116806654D01*
X92070279Y-116986440D01*
X91679651Y-117247450D01*
X91385000Y-117542101D01*
X91385000Y-89327204D01*
X95010709Y-89327204D01*
X95014990Y-89370673D01*
X95014991Y-109456511D01*
X95010709Y-109499990D01*
X95027795Y-109673480D01*
X95078402Y-109840303D01*
X95160580Y-109994049D01*
X95243458Y-110095036D01*
X95243461Y-110095039D01*
X95271174Y-110128807D01*
X95304941Y-110156520D01*
X99604953Y-114456532D01*
X99604959Y-114456537D01*
X100043466Y-114895044D01*
X100071183Y-114928817D01*
X100205941Y-115039411D01*
X100359687Y-115121589D01*
X100526510Y-115172195D01*
X100656523Y-115185000D01*
X100656531Y-115185000D01*
X100700000Y-115189281D01*
X100743469Y-115185000D01*
X104736531Y-115185000D01*
X104780000Y-115189281D01*
X104823469Y-115185000D01*
X104823477Y-115185000D01*
X104953490Y-115172195D01*
X105120313Y-115121589D01*
X105274059Y-115039411D01*
X105408817Y-114928817D01*
X105436534Y-114895044D01*
X106760967Y-113570612D01*
X106907050Y-113585000D01*
X107052950Y-113585000D01*
X107271111Y-113563513D01*
X107551034Y-113478599D01*
X107809014Y-113340706D01*
X108035134Y-113155134D01*
X108220706Y-112929014D01*
X108358599Y-112671034D01*
X108443513Y-112391111D01*
X108472185Y-112100000D01*
X108443513Y-111808889D01*
X108358599Y-111528966D01*
X108220706Y-111270986D01*
X108035134Y-111044866D01*
X107809014Y-110859294D01*
X107551034Y-110721401D01*
X107271111Y-110636487D01*
X107052950Y-110615000D01*
X106907050Y-110615000D01*
X106688889Y-110636487D01*
X106408966Y-110721401D01*
X106150986Y-110859294D01*
X105924866Y-111044866D01*
X105739294Y-111270986D01*
X105710000Y-111325791D01*
X105680706Y-111270986D01*
X105525000Y-111081258D01*
X105525000Y-110005000D01*
X112480299Y-110005000D01*
X112484188Y-110044482D01*
X112520498Y-110164180D01*
X112579463Y-110274494D01*
X112658815Y-110371185D01*
X112755506Y-110450537D01*
X112865820Y-110509502D01*
X112985518Y-110545812D01*
X113110000Y-110558072D01*
X114710000Y-110558072D01*
X114834482Y-110545812D01*
X114954180Y-110509502D01*
X115064494Y-110450537D01*
X115161185Y-110371185D01*
X115240537Y-110274494D01*
X115299502Y-110164180D01*
X115335812Y-110044482D01*
X115348072Y-109920000D01*
X115348072Y-108320000D01*
X115335812Y-108195518D01*
X115299502Y-108075820D01*
X115240537Y-107965506D01*
X115161185Y-107868815D01*
X115064494Y-107789463D01*
X114954180Y-107730498D01*
X114834482Y-107694188D01*
X114710000Y-107681928D01*
X114702785Y-107681928D01*
X114723097Y-107612702D01*
X113910000Y-106799605D01*
X113096903Y-107612702D01*
X113117215Y-107681928D01*
X113110000Y-107681928D01*
X112985518Y-107694188D01*
X112865820Y-107730498D01*
X112755506Y-107789463D01*
X112658815Y-107868815D01*
X112579463Y-107965506D01*
X112520498Y-108075820D01*
X112484188Y-108195518D01*
X112480299Y-108235000D01*
X105525000Y-108235000D01*
X105525000Y-106690512D01*
X112469783Y-106690512D01*
X112511213Y-106970130D01*
X112606397Y-107236292D01*
X112673329Y-107361514D01*
X112917298Y-107433097D01*
X113730395Y-106620000D01*
X114089605Y-106620000D01*
X114902702Y-107433097D01*
X115146671Y-107361514D01*
X115267571Y-107106004D01*
X115336300Y-106831816D01*
X115350217Y-106549488D01*
X115308787Y-106269870D01*
X115213603Y-106003708D01*
X115146671Y-105878486D01*
X114902702Y-105806903D01*
X114089605Y-106620000D01*
X113730395Y-106620000D01*
X112917298Y-105806903D01*
X112673329Y-105878486D01*
X112552429Y-106133996D01*
X112483700Y-106408184D01*
X112469783Y-106690512D01*
X105525000Y-106690512D01*
X105525000Y-105627298D01*
X113096903Y-105627298D01*
X113910000Y-106440395D01*
X114723097Y-105627298D01*
X114651514Y-105383329D01*
X114396004Y-105262429D01*
X114121816Y-105193700D01*
X113839488Y-105179783D01*
X113559870Y-105221213D01*
X113293708Y-105316397D01*
X113168486Y-105383329D01*
X113096903Y-105627298D01*
X105525000Y-105627298D01*
X105525000Y-105014759D01*
X105695134Y-104875134D01*
X105719607Y-104845313D01*
X105740498Y-104914180D01*
X105799463Y-105024494D01*
X105878815Y-105121185D01*
X105975506Y-105200537D01*
X106085820Y-105259502D01*
X106205518Y-105295812D01*
X106330000Y-105308072D01*
X106894250Y-105305000D01*
X107053000Y-105146250D01*
X107053000Y-103947000D01*
X107307000Y-103947000D01*
X107307000Y-105146250D01*
X107465750Y-105305000D01*
X108030000Y-105308072D01*
X108154482Y-105295812D01*
X108274180Y-105259502D01*
X108384494Y-105200537D01*
X108481185Y-105121185D01*
X108560537Y-105024494D01*
X108619502Y-104914180D01*
X108655812Y-104794482D01*
X108668072Y-104670000D01*
X108665000Y-104105750D01*
X108506250Y-103947000D01*
X107307000Y-103947000D01*
X107053000Y-103947000D01*
X107033000Y-103947000D01*
X107033000Y-103693000D01*
X107053000Y-103693000D01*
X107053000Y-102493750D01*
X107307000Y-102493750D01*
X107307000Y-103693000D01*
X108506250Y-103693000D01*
X108665000Y-103534250D01*
X108668072Y-102970000D01*
X108655812Y-102845518D01*
X108619502Y-102725820D01*
X108560537Y-102615506D01*
X108481185Y-102518815D01*
X108384494Y-102439463D01*
X108274180Y-102380498D01*
X108154482Y-102344188D01*
X108030000Y-102331928D01*
X107465750Y-102335000D01*
X107307000Y-102493750D01*
X107053000Y-102493750D01*
X106894250Y-102335000D01*
X106330000Y-102331928D01*
X106205518Y-102344188D01*
X106085820Y-102380498D01*
X105975506Y-102439463D01*
X105878815Y-102518815D01*
X105799463Y-102615506D01*
X105740498Y-102725820D01*
X105719607Y-102794687D01*
X105695134Y-102764866D01*
X105469014Y-102579294D01*
X105211034Y-102441401D01*
X104931111Y-102356487D01*
X104712950Y-102335000D01*
X104567050Y-102335000D01*
X104348889Y-102356487D01*
X104068966Y-102441401D01*
X103810986Y-102579294D01*
X103584866Y-102764866D01*
X103399294Y-102990986D01*
X103370000Y-103045791D01*
X103340706Y-102990986D01*
X103155134Y-102764866D01*
X102929014Y-102579294D01*
X102740000Y-102478264D01*
X102740000Y-97277595D01*
X102809014Y-97240706D01*
X103035134Y-97055134D01*
X103220706Y-96829014D01*
X103250000Y-96774209D01*
X103279294Y-96829014D01*
X103464866Y-97055134D01*
X103690986Y-97240706D01*
X103948966Y-97378599D01*
X104228889Y-97463513D01*
X104447050Y-97485000D01*
X104592950Y-97485000D01*
X104811111Y-97463513D01*
X105091034Y-97378599D01*
X105349014Y-97240706D01*
X105575134Y-97055134D01*
X105760706Y-96829014D01*
X105795201Y-96764477D01*
X105864822Y-96881355D01*
X106059731Y-97097588D01*
X106293080Y-97271641D01*
X106555901Y-97396825D01*
X106703110Y-97441476D01*
X106933000Y-97320155D01*
X106933000Y-96127000D01*
X106913000Y-96127000D01*
X106913000Y-95873000D01*
X106933000Y-95873000D01*
X106933000Y-94679845D01*
X106703110Y-94558524D01*
X106555901Y-94603175D01*
X106293080Y-94728359D01*
X106059731Y-94902412D01*
X105864822Y-95118645D01*
X105795201Y-95235523D01*
X105760706Y-95170986D01*
X105575134Y-94944866D01*
X105349014Y-94759294D01*
X105280000Y-94722405D01*
X105280000Y-92220901D01*
X105321101Y-92198932D01*
X105539608Y-92019608D01*
X105718932Y-91801101D01*
X105792579Y-91663318D01*
X105907615Y-91855131D01*
X106096586Y-92063519D01*
X106322580Y-92231037D01*
X106576913Y-92351246D01*
X106710961Y-92391904D01*
X106933000Y-92269915D01*
X106933000Y-91127000D01*
X106913000Y-91127000D01*
X106913000Y-90873000D01*
X106933000Y-90873000D01*
X106933000Y-89730085D01*
X107187000Y-89730085D01*
X107187000Y-90873000D01*
X107207000Y-90873000D01*
X107207000Y-91127000D01*
X107187000Y-91127000D01*
X107187000Y-92269915D01*
X107409039Y-92391904D01*
X107543087Y-92351246D01*
X107797420Y-92231037D01*
X108023414Y-92063519D01*
X108212385Y-91855131D01*
X108327421Y-91663318D01*
X108401068Y-91801101D01*
X108580392Y-92019608D01*
X108798899Y-92198932D01*
X108840000Y-92220901D01*
X108840001Y-94722405D01*
X108770986Y-94759294D01*
X108544866Y-94944866D01*
X108359294Y-95170986D01*
X108324799Y-95235523D01*
X108255178Y-95118645D01*
X108060269Y-94902412D01*
X107826920Y-94728359D01*
X107564099Y-94603175D01*
X107416890Y-94558524D01*
X107187000Y-94679845D01*
X107187000Y-95873000D01*
X107207000Y-95873000D01*
X107207000Y-96127000D01*
X107187000Y-96127000D01*
X107187000Y-97320155D01*
X107416890Y-97441476D01*
X107564099Y-97396825D01*
X107826920Y-97271641D01*
X108060269Y-97097588D01*
X108255178Y-96881355D01*
X108324799Y-96764477D01*
X108359294Y-96829014D01*
X108544866Y-97055134D01*
X108770986Y-97240706D01*
X108840000Y-97277595D01*
X108840000Y-98952678D01*
X108836324Y-98990000D01*
X108840000Y-99027322D01*
X108840000Y-99027332D01*
X108850997Y-99138985D01*
X108889218Y-99264986D01*
X108894454Y-99282246D01*
X108965026Y-99414276D01*
X108970557Y-99421015D01*
X109059999Y-99530001D01*
X109089003Y-99553804D01*
X113196210Y-103661012D01*
X113220009Y-103690011D01*
X113249007Y-103713809D01*
X113335734Y-103784984D01*
X113467763Y-103855556D01*
X113611024Y-103899013D01*
X113760010Y-103913687D01*
X113797343Y-103910010D01*
X140355209Y-103910010D01*
X140679203Y-104234004D01*
X140656487Y-104308889D01*
X140627815Y-104600000D01*
X140656487Y-104891111D01*
X140741401Y-105171034D01*
X140879294Y-105429014D01*
X141064866Y-105655134D01*
X141290986Y-105840706D01*
X141548966Y-105978599D01*
X141828889Y-106063513D01*
X142047050Y-106085000D01*
X142192950Y-106085000D01*
X142411111Y-106063513D01*
X142691034Y-105978599D01*
X142949014Y-105840706D01*
X143175134Y-105655134D01*
X143360706Y-105429014D01*
X143390000Y-105374209D01*
X143419294Y-105429014D01*
X143604866Y-105655134D01*
X143830986Y-105840706D01*
X144088966Y-105978599D01*
X144368889Y-106063513D01*
X144587050Y-106085000D01*
X144732950Y-106085000D01*
X144951111Y-106063513D01*
X145231034Y-105978599D01*
X145489014Y-105840706D01*
X145715134Y-105655134D01*
X145900706Y-105429014D01*
X145930000Y-105374209D01*
X145959294Y-105429014D01*
X146144866Y-105655134D01*
X146370986Y-105840706D01*
X146628966Y-105978599D01*
X146908889Y-106063513D01*
X147127050Y-106085000D01*
X147272950Y-106085000D01*
X147491111Y-106063513D01*
X147771034Y-105978599D01*
X148029014Y-105840706D01*
X148255134Y-105655134D01*
X148440706Y-105429014D01*
X148470000Y-105374209D01*
X148499294Y-105429014D01*
X148684866Y-105655134D01*
X148910986Y-105840706D01*
X149168966Y-105978599D01*
X149448889Y-106063513D01*
X149667050Y-106085000D01*
X149812950Y-106085000D01*
X150031111Y-106063513D01*
X150311034Y-105978599D01*
X150569014Y-105840706D01*
X150795134Y-105655134D01*
X150980706Y-105429014D01*
X151010000Y-105374209D01*
X151039294Y-105429014D01*
X151224866Y-105655134D01*
X151450986Y-105840706D01*
X151708966Y-105978599D01*
X151988889Y-106063513D01*
X152207050Y-106085000D01*
X152352950Y-106085000D01*
X152571111Y-106063513D01*
X152851034Y-105978599D01*
X153109014Y-105840706D01*
X153335134Y-105655134D01*
X153520706Y-105429014D01*
X153550000Y-105374209D01*
X153579294Y-105429014D01*
X153764866Y-105655134D01*
X153990986Y-105840706D01*
X154248966Y-105978599D01*
X154528889Y-106063513D01*
X154747050Y-106085000D01*
X154892950Y-106085000D01*
X155111111Y-106063513D01*
X155391034Y-105978599D01*
X155649014Y-105840706D01*
X155875134Y-105655134D01*
X156060706Y-105429014D01*
X156090000Y-105374209D01*
X156119294Y-105429014D01*
X156304866Y-105655134D01*
X156530986Y-105840706D01*
X156788966Y-105978599D01*
X157068889Y-106063513D01*
X157287050Y-106085000D01*
X157432950Y-106085000D01*
X157651111Y-106063513D01*
X157931034Y-105978599D01*
X158189014Y-105840706D01*
X158415134Y-105655134D01*
X158439607Y-105625313D01*
X158460498Y-105694180D01*
X158519463Y-105804494D01*
X158598815Y-105901185D01*
X158695506Y-105980537D01*
X158805820Y-106039502D01*
X158925518Y-106075812D01*
X159050000Y-106088072D01*
X160750000Y-106088072D01*
X160874482Y-106075812D01*
X160994180Y-106039502D01*
X161104494Y-105980537D01*
X161201185Y-105901185D01*
X161280537Y-105804494D01*
X161339502Y-105694180D01*
X161375812Y-105574482D01*
X161388072Y-105450000D01*
X161388072Y-103750000D01*
X161375812Y-103625518D01*
X161339502Y-103505820D01*
X161280537Y-103395506D01*
X161201185Y-103298815D01*
X161104494Y-103219463D01*
X160994180Y-103160498D01*
X160874482Y-103124188D01*
X160750000Y-103111928D01*
X160660000Y-103111928D01*
X160660000Y-102265549D01*
X164835453Y-106441003D01*
X164859251Y-106470001D01*
X164974976Y-106564974D01*
X165107005Y-106635546D01*
X165250266Y-106679003D01*
X165361919Y-106690000D01*
X165361928Y-106690000D01*
X165399251Y-106693676D01*
X165436574Y-106690000D01*
X166901928Y-106690000D01*
X166901928Y-106780000D01*
X166914188Y-106904482D01*
X166950498Y-107024180D01*
X167009463Y-107134494D01*
X167088815Y-107231185D01*
X167185506Y-107310537D01*
X167295820Y-107369502D01*
X167415518Y-107405812D01*
X167540000Y-107418072D01*
X169240000Y-107418072D01*
X169364482Y-107405812D01*
X169484180Y-107369502D01*
X169594494Y-107310537D01*
X169691185Y-107231185D01*
X169770537Y-107134494D01*
X169829502Y-107024180D01*
X169865812Y-106904482D01*
X169878072Y-106780000D01*
X169878072Y-105080000D01*
X169865812Y-104955518D01*
X169829502Y-104835820D01*
X169770537Y-104725506D01*
X169691185Y-104628815D01*
X169594494Y-104549463D01*
X169484180Y-104490498D01*
X169415313Y-104469607D01*
X169445134Y-104445134D01*
X169630706Y-104219014D01*
X169768599Y-103961034D01*
X169853513Y-103681111D01*
X169882185Y-103390000D01*
X169853513Y-103098889D01*
X169768599Y-102818966D01*
X169630706Y-102560986D01*
X169445134Y-102334866D01*
X169219014Y-102149294D01*
X169154477Y-102114799D01*
X169271355Y-102045178D01*
X169487588Y-101850269D01*
X169661641Y-101616920D01*
X169786825Y-101354099D01*
X169831476Y-101206890D01*
X169710155Y-100977000D01*
X168517000Y-100977000D01*
X168517000Y-100997000D01*
X168263000Y-100997000D01*
X168263000Y-100977000D01*
X167069845Y-100977000D01*
X166948524Y-101206890D01*
X166993175Y-101354099D01*
X167118359Y-101616920D01*
X167292412Y-101850269D01*
X167508645Y-102045178D01*
X167625523Y-102114799D01*
X167560986Y-102149294D01*
X167334866Y-102334866D01*
X167149294Y-102560986D01*
X167011401Y-102818966D01*
X166926487Y-103098889D01*
X166897815Y-103390000D01*
X166926487Y-103681111D01*
X167011401Y-103961034D01*
X167149294Y-104219014D01*
X167334866Y-104445134D01*
X167364687Y-104469607D01*
X167295820Y-104490498D01*
X167185506Y-104549463D01*
X167088815Y-104628815D01*
X167009463Y-104725506D01*
X166950498Y-104835820D01*
X166914188Y-104955518D01*
X166901928Y-105080000D01*
X166901928Y-105170000D01*
X165714054Y-105170000D01*
X161037164Y-100493110D01*
X166948524Y-100493110D01*
X167069845Y-100723000D01*
X168263000Y-100723000D01*
X168263000Y-99529186D01*
X168517000Y-99529186D01*
X168517000Y-100723000D01*
X169710155Y-100723000D01*
X169831476Y-100493110D01*
X169786825Y-100345901D01*
X169661641Y-100083080D01*
X169487588Y-99849731D01*
X169271355Y-99654822D01*
X169021252Y-99505843D01*
X168746891Y-99408519D01*
X168517000Y-99529186D01*
X168263000Y-99529186D01*
X168033109Y-99408519D01*
X167758748Y-99505843D01*
X167508645Y-99654822D01*
X167292412Y-99849731D01*
X167118359Y-100083080D01*
X166993175Y-100345901D01*
X166948524Y-100493110D01*
X161037164Y-100493110D01*
X157982986Y-97438933D01*
X157959183Y-97409929D01*
X157843458Y-97314956D01*
X157711429Y-97244384D01*
X157568168Y-97200927D01*
X157456515Y-97189930D01*
X157456504Y-97189930D01*
X157419182Y-97186254D01*
X157381860Y-97189930D01*
X135890885Y-97189930D01*
X136055134Y-97055134D01*
X136240706Y-96829014D01*
X136378599Y-96571034D01*
X136463513Y-96291111D01*
X136492185Y-96000000D01*
X136463513Y-95708889D01*
X136378599Y-95428966D01*
X136240706Y-95170986D01*
X136055134Y-94944866D01*
X135829014Y-94759294D01*
X135760000Y-94722405D01*
X135760000Y-92220901D01*
X135801101Y-92198932D01*
X136019608Y-92019608D01*
X136198932Y-91801101D01*
X136332182Y-91551808D01*
X136414236Y-91281309D01*
X136441943Y-91000000D01*
X136414236Y-90718691D01*
X136332182Y-90448192D01*
X136198932Y-90198899D01*
X136019608Y-89980392D01*
X135801101Y-89801068D01*
X135551808Y-89667818D01*
X135281309Y-89585764D01*
X135070492Y-89565000D01*
X134929508Y-89565000D01*
X134718691Y-89585764D01*
X134448192Y-89667818D01*
X134198899Y-89801068D01*
X133980392Y-89980392D01*
X133801068Y-90198899D01*
X133730000Y-90331858D01*
X133658932Y-90198899D01*
X133479608Y-89980392D01*
X133261101Y-89801068D01*
X133011808Y-89667818D01*
X132741309Y-89585764D01*
X132530492Y-89565000D01*
X132389508Y-89565000D01*
X132178691Y-89585764D01*
X131908192Y-89667818D01*
X131658899Y-89801068D01*
X131440392Y-89980392D01*
X131261068Y-90198899D01*
X131190000Y-90331858D01*
X131118932Y-90198899D01*
X130939608Y-89980392D01*
X130721101Y-89801068D01*
X130471808Y-89667818D01*
X130201309Y-89585764D01*
X129990492Y-89565000D01*
X129849508Y-89565000D01*
X129638691Y-89585764D01*
X129368192Y-89667818D01*
X129118899Y-89801068D01*
X128900392Y-89980392D01*
X128721068Y-90198899D01*
X128650000Y-90331858D01*
X128578932Y-90198899D01*
X128399608Y-89980392D01*
X128181101Y-89801068D01*
X127931808Y-89667818D01*
X127661309Y-89585764D01*
X127450492Y-89565000D01*
X127309508Y-89565000D01*
X127098691Y-89585764D01*
X126828192Y-89667818D01*
X126578899Y-89801068D01*
X126360392Y-89980392D01*
X126181068Y-90198899D01*
X126110000Y-90331858D01*
X126038932Y-90198899D01*
X125859608Y-89980392D01*
X125641101Y-89801068D01*
X125391808Y-89667818D01*
X125121309Y-89585764D01*
X124910492Y-89565000D01*
X124769508Y-89565000D01*
X124558691Y-89585764D01*
X124288192Y-89667818D01*
X124038899Y-89801068D01*
X123820392Y-89980392D01*
X123641068Y-90198899D01*
X123570000Y-90331858D01*
X123498932Y-90198899D01*
X123319608Y-89980392D01*
X123101101Y-89801068D01*
X122851808Y-89667818D01*
X122581309Y-89585764D01*
X122370492Y-89565000D01*
X122229508Y-89565000D01*
X122018691Y-89585764D01*
X121748192Y-89667818D01*
X121498899Y-89801068D01*
X121280392Y-89980392D01*
X121101068Y-90198899D01*
X121030000Y-90331858D01*
X120958932Y-90198899D01*
X120779608Y-89980392D01*
X120561101Y-89801068D01*
X120311808Y-89667818D01*
X120041309Y-89585764D01*
X119830492Y-89565000D01*
X119689508Y-89565000D01*
X119478691Y-89585764D01*
X119208192Y-89667818D01*
X118958899Y-89801068D01*
X118740392Y-89980392D01*
X118561068Y-90198899D01*
X118490000Y-90331858D01*
X118418932Y-90198899D01*
X118239608Y-89980392D01*
X118021101Y-89801068D01*
X117771808Y-89667818D01*
X117501309Y-89585764D01*
X117290492Y-89565000D01*
X117149508Y-89565000D01*
X116938691Y-89585764D01*
X116668192Y-89667818D01*
X116418899Y-89801068D01*
X116200392Y-89980392D01*
X116021068Y-90198899D01*
X115950000Y-90331858D01*
X115878932Y-90198899D01*
X115699608Y-89980392D01*
X115481101Y-89801068D01*
X115231808Y-89667818D01*
X114961309Y-89585764D01*
X114750492Y-89565000D01*
X114609508Y-89565000D01*
X114398691Y-89585764D01*
X114128192Y-89667818D01*
X113878899Y-89801068D01*
X113660392Y-89980392D01*
X113481068Y-90198899D01*
X113410000Y-90331858D01*
X113338932Y-90198899D01*
X113159608Y-89980392D01*
X112941101Y-89801068D01*
X112691808Y-89667818D01*
X112421309Y-89585764D01*
X112210492Y-89565000D01*
X112069508Y-89565000D01*
X111858691Y-89585764D01*
X111588192Y-89667818D01*
X111338899Y-89801068D01*
X111120392Y-89980392D01*
X110941068Y-90198899D01*
X110870000Y-90331858D01*
X110798932Y-90198899D01*
X110619608Y-89980392D01*
X110401101Y-89801068D01*
X110151808Y-89667818D01*
X109881309Y-89585764D01*
X109670492Y-89565000D01*
X109529508Y-89565000D01*
X109318691Y-89585764D01*
X109048192Y-89667818D01*
X108798899Y-89801068D01*
X108580392Y-89980392D01*
X108401068Y-90198899D01*
X108327421Y-90336682D01*
X108212385Y-90144869D01*
X108023414Y-89936481D01*
X107797420Y-89768963D01*
X107543087Y-89648754D01*
X107409039Y-89608096D01*
X107187000Y-89730085D01*
X106933000Y-89730085D01*
X106710961Y-89608096D01*
X106576913Y-89648754D01*
X106322580Y-89768963D01*
X106096586Y-89936481D01*
X105907615Y-90144869D01*
X105792579Y-90336682D01*
X105718932Y-90198899D01*
X105539608Y-89980392D01*
X105321101Y-89801068D01*
X105071808Y-89667818D01*
X104801309Y-89585764D01*
X104590492Y-89565000D01*
X104449508Y-89565000D01*
X104238691Y-89585764D01*
X103968192Y-89667818D01*
X103718899Y-89801068D01*
X103500392Y-89980392D01*
X103321068Y-90198899D01*
X103250000Y-90331858D01*
X103178932Y-90198899D01*
X102999608Y-89980392D01*
X102781101Y-89801068D01*
X102531808Y-89667818D01*
X102261309Y-89585764D01*
X102050492Y-89565000D01*
X101909508Y-89565000D01*
X101698691Y-89585764D01*
X101428192Y-89667818D01*
X101178899Y-89801068D01*
X100960392Y-89980392D01*
X100867581Y-90093482D01*
X100865812Y-90075518D01*
X100829502Y-89955820D01*
X100770537Y-89845506D01*
X100691185Y-89748815D01*
X100594494Y-89669463D01*
X100484180Y-89610498D01*
X100364482Y-89574188D01*
X100240000Y-89561928D01*
X98640000Y-89561928D01*
X98515518Y-89574188D01*
X98395820Y-89610498D01*
X98285506Y-89669463D01*
X98188815Y-89748815D01*
X98109463Y-89845506D01*
X98050498Y-89955820D01*
X98014188Y-90075518D01*
X98001928Y-90200000D01*
X98001928Y-91800000D01*
X98014188Y-91924482D01*
X98050498Y-92044180D01*
X98109463Y-92154494D01*
X98188815Y-92251185D01*
X98285506Y-92330537D01*
X98395820Y-92389502D01*
X98515518Y-92425812D01*
X98640000Y-92438072D01*
X98680000Y-92438072D01*
X98680001Y-94511928D01*
X98590000Y-94511928D01*
X98465518Y-94524188D01*
X98345820Y-94560498D01*
X98235506Y-94619463D01*
X98138815Y-94698815D01*
X98059463Y-94795506D01*
X98000498Y-94905820D01*
X97964188Y-95025518D01*
X97951928Y-95150000D01*
X97951928Y-96850000D01*
X97964188Y-96974482D01*
X98000498Y-97094180D01*
X98059463Y-97204494D01*
X98138815Y-97301185D01*
X98235506Y-97380537D01*
X98345820Y-97439502D01*
X98465518Y-97475812D01*
X98590000Y-97488072D01*
X98800001Y-97488072D01*
X98800000Y-102542405D01*
X98730986Y-102579294D01*
X98504866Y-102764866D01*
X98319294Y-102990986D01*
X98181401Y-103248966D01*
X98096487Y-103528889D01*
X98067815Y-103820000D01*
X98096487Y-104111111D01*
X98181401Y-104391034D01*
X98319294Y-104649014D01*
X98504866Y-104875134D01*
X98730986Y-105060706D01*
X98988966Y-105198599D01*
X99268889Y-105283513D01*
X99487050Y-105305000D01*
X99632950Y-105305000D01*
X99851111Y-105283513D01*
X100131034Y-105198599D01*
X100389014Y-105060706D01*
X100615134Y-104875134D01*
X100800706Y-104649014D01*
X100830000Y-104594209D01*
X100859294Y-104649014D01*
X101044866Y-104875134D01*
X101270986Y-105060706D01*
X101528966Y-105198599D01*
X101808889Y-105283513D01*
X102027050Y-105305000D01*
X102172950Y-105305000D01*
X102391111Y-105283513D01*
X102671034Y-105198599D01*
X102929014Y-105060706D01*
X103155134Y-104875134D01*
X103340706Y-104649014D01*
X103370000Y-104594209D01*
X103399294Y-104649014D01*
X103584866Y-104875134D01*
X103755000Y-105014760D01*
X103755001Y-109216514D01*
X103755000Y-109216524D01*
X103755000Y-109216531D01*
X103750719Y-109260000D01*
X103755000Y-109303469D01*
X103755001Y-110782317D01*
X103610986Y-110859294D01*
X103384866Y-111044866D01*
X103360393Y-111074687D01*
X103339502Y-111005820D01*
X103280537Y-110895506D01*
X103201185Y-110798815D01*
X103104494Y-110719463D01*
X102994180Y-110660498D01*
X102874482Y-110624188D01*
X102775935Y-110614482D01*
X102772195Y-110576510D01*
X102721589Y-110409687D01*
X102639411Y-110255941D01*
X102528817Y-110121183D01*
X102495049Y-110093470D01*
X97685000Y-105283422D01*
X97685000Y-90066578D01*
X107478546Y-80273032D01*
X145873000Y-80273032D01*
X145873000Y-94973032D01*
X145875288Y-94997030D01*
X145882366Y-95020899D01*
X145893964Y-95042928D01*
X145909638Y-95062272D01*
X145928784Y-95078186D01*
X145950667Y-95090059D01*
X145974446Y-95097434D01*
X145999206Y-95100030D01*
X153900715Y-95149414D01*
X153900715Y-95230000D01*
X166794406Y-95230000D01*
X177999206Y-95300030D01*
X178024776Y-95297592D01*
X178048601Y-95290365D01*
X178070557Y-95278629D01*
X178089803Y-95262835D01*
X178105597Y-95243589D01*
X178117333Y-95221633D01*
X178124560Y-95197808D01*
X178127000Y-95173032D01*
X178127000Y-80273032D01*
X178124560Y-80248256D01*
X178117333Y-80224431D01*
X178105597Y-80202475D01*
X178089803Y-80183229D01*
X178070557Y-80167435D01*
X178048601Y-80155699D01*
X178024776Y-80148472D01*
X178000000Y-80146032D01*
X146000000Y-80146032D01*
X145975224Y-80148472D01*
X145951399Y-80155699D01*
X145929443Y-80167435D01*
X145910197Y-80183229D01*
X145894403Y-80202475D01*
X145882667Y-80224431D01*
X145875440Y-80248256D01*
X145873000Y-80273032D01*
X107478546Y-80273032D01*
X107655049Y-80096530D01*
X107688817Y-80068817D01*
X107799411Y-79934059D01*
X107881589Y-79780313D01*
X107932195Y-79613490D01*
X107945000Y-79483477D01*
X107945000Y-79483467D01*
X107949281Y-79440001D01*
X107945000Y-79396535D01*
X107945000Y-76890078D01*
X108079608Y-76779608D01*
X108258932Y-76561101D01*
X108330000Y-76428142D01*
X108401068Y-76561101D01*
X108580392Y-76779608D01*
X108798899Y-76958932D01*
X109048192Y-77092182D01*
X109318691Y-77174236D01*
X109529508Y-77195000D01*
X109670492Y-77195000D01*
X109881309Y-77174236D01*
X110151808Y-77092182D01*
X110401101Y-76958932D01*
X110619608Y-76779608D01*
X110798932Y-76561101D01*
X110870000Y-76428142D01*
X110941068Y-76561101D01*
X111120392Y-76779608D01*
X111338899Y-76958932D01*
X111588192Y-77092182D01*
X111858691Y-77174236D01*
X112069508Y-77195000D01*
X112210492Y-77195000D01*
X112421309Y-77174236D01*
X112691808Y-77092182D01*
X112941101Y-76958932D01*
X113159608Y-76779608D01*
X113338932Y-76561101D01*
X113410000Y-76428142D01*
X113481068Y-76561101D01*
X113660392Y-76779608D01*
X113878899Y-76958932D01*
X113920001Y-76980901D01*
X113920001Y-77442668D01*
X113916324Y-77480000D01*
X113930998Y-77628985D01*
X113974454Y-77772246D01*
X114045026Y-77904276D01*
X114116201Y-77991002D01*
X114140000Y-78020001D01*
X114168998Y-78043799D01*
X114836201Y-78711002D01*
X114859999Y-78740001D01*
X114975724Y-78834974D01*
X115107753Y-78905546D01*
X115251014Y-78949003D01*
X115362667Y-78960000D01*
X115362675Y-78960000D01*
X115400000Y-78963676D01*
X115437325Y-78960000D01*
X135162678Y-78960000D01*
X135200000Y-78963676D01*
X135237322Y-78960000D01*
X135237333Y-78960000D01*
X135348986Y-78949003D01*
X135492247Y-78905546D01*
X135624276Y-78834974D01*
X135740001Y-78740001D01*
X135763804Y-78710998D01*
X137811008Y-76663795D01*
X137840001Y-76640001D01*
X137863795Y-76611008D01*
X137863799Y-76611004D01*
X137934973Y-76524277D01*
X137941404Y-76512246D01*
X138005546Y-76392247D01*
X138049003Y-76248986D01*
X138060000Y-76137333D01*
X138060000Y-76137324D01*
X138063676Y-76100001D01*
X138060000Y-76062678D01*
X138060000Y-72314801D01*
X140659782Y-69715020D01*
X177040219Y-69715020D01*
X183206201Y-75881003D01*
X183230000Y-75910002D01*
X183258998Y-75933800D01*
X183345724Y-76004975D01*
X183434163Y-76052247D01*
X183477754Y-76075547D01*
X183621015Y-76119004D01*
X183716833Y-76128441D01*
X183707815Y-76220000D01*
X183736487Y-76511111D01*
X183821401Y-76791034D01*
X183959294Y-77049014D01*
X184144866Y-77275134D01*
X184370986Y-77460706D01*
X184628966Y-77598599D01*
X184908889Y-77683513D01*
X185127050Y-77705000D01*
X185272950Y-77705000D01*
X185491111Y-77683513D01*
X185771034Y-77598599D01*
X186029014Y-77460706D01*
X186255134Y-77275134D01*
X186440706Y-77049014D01*
X186578599Y-76791034D01*
X186663513Y-76511111D01*
X186692185Y-76220000D01*
X186663513Y-75928889D01*
X186578599Y-75648966D01*
X186440706Y-75390986D01*
X186255134Y-75164866D01*
X186029014Y-74979294D01*
X185974209Y-74950000D01*
X186029014Y-74920706D01*
X186255134Y-74735134D01*
X186440706Y-74509014D01*
X186578599Y-74251034D01*
X186663513Y-73971111D01*
X186692185Y-73680000D01*
X186663513Y-73388889D01*
X186578599Y-73108966D01*
X186440706Y-72850986D01*
X186255134Y-72624866D01*
X186029014Y-72439294D01*
X185974209Y-72410000D01*
X186029014Y-72380706D01*
X186255134Y-72195134D01*
X186440706Y-71969014D01*
X186578599Y-71711034D01*
X186663513Y-71431111D01*
X186692185Y-71140000D01*
X186663513Y-70848889D01*
X186578599Y-70568966D01*
X186440706Y-70310986D01*
X186255134Y-70084866D01*
X186225313Y-70060393D01*
X186294180Y-70039502D01*
X186404494Y-69980537D01*
X186501185Y-69901185D01*
X186580537Y-69804494D01*
X186639502Y-69694180D01*
X186675812Y-69574482D01*
X186688072Y-69450000D01*
X186685000Y-68885750D01*
X186526250Y-68727000D01*
X185327000Y-68727000D01*
X185327000Y-68747000D01*
X185073000Y-68747000D01*
X185073000Y-68727000D01*
X183873750Y-68727000D01*
X183715000Y-68885750D01*
X183711928Y-69450000D01*
X183724188Y-69574482D01*
X183760498Y-69694180D01*
X183819463Y-69804494D01*
X183898815Y-69901185D01*
X183995506Y-69980537D01*
X184105820Y-70039502D01*
X184174687Y-70060393D01*
X184144866Y-70084866D01*
X184005241Y-70255000D01*
X183326579Y-70255000D01*
X180821579Y-67750000D01*
X183711928Y-67750000D01*
X183715000Y-68314250D01*
X183873750Y-68473000D01*
X185073000Y-68473000D01*
X185073000Y-67273750D01*
X185327000Y-67273750D01*
X185327000Y-68473000D01*
X186526250Y-68473000D01*
X186685000Y-68314250D01*
X186688072Y-67750000D01*
X186675812Y-67625518D01*
X186639502Y-67505820D01*
X186580537Y-67395506D01*
X186501185Y-67298815D01*
X186404494Y-67219463D01*
X186294180Y-67160498D01*
X186174482Y-67124188D01*
X186050000Y-67111928D01*
X185485750Y-67115000D01*
X185327000Y-67273750D01*
X185073000Y-67273750D01*
X184914250Y-67115000D01*
X184350000Y-67111928D01*
X184225518Y-67124188D01*
X184105820Y-67160498D01*
X183995506Y-67219463D01*
X183898815Y-67298815D01*
X183819463Y-67395506D01*
X183760498Y-67505820D01*
X183724188Y-67625518D01*
X183711928Y-67750000D01*
X180821579Y-67750000D01*
X180006534Y-66934956D01*
X179978817Y-66901183D01*
X179844059Y-66790589D01*
X179690313Y-66708411D01*
X179523490Y-66657805D01*
X179393477Y-66645000D01*
X179393469Y-66645000D01*
X179350000Y-66640719D01*
X179306531Y-66645000D01*
X108419246Y-66645000D01*
X108483696Y-66489405D01*
X108535000Y-66231486D01*
X108535000Y-65968514D01*
X108483696Y-65710595D01*
X108383061Y-65467641D01*
X108236962Y-65248987D01*
X108051013Y-65063038D01*
X107832359Y-64916939D01*
X107589405Y-64816304D01*
X107331486Y-64765000D01*
X107068514Y-64765000D01*
X106810595Y-64816304D01*
X106567641Y-64916939D01*
X106348987Y-65063038D01*
X106163038Y-65248987D01*
X106016939Y-65467641D01*
X105949639Y-65630118D01*
X105908935Y-65518634D01*
X105855037Y-65417797D01*
X105621269Y-65358336D01*
X104879605Y-66100000D01*
X105621269Y-66841664D01*
X105855037Y-66782203D01*
X105951592Y-66574596D01*
X106016939Y-66732359D01*
X106163038Y-66951013D01*
X106315001Y-67102976D01*
X106315001Y-67656514D01*
X106315000Y-67656524D01*
X106315000Y-67656531D01*
X106310719Y-67700000D01*
X106315000Y-67743469D01*
X106315001Y-69714387D01*
X106230986Y-69759294D01*
X106004866Y-69944866D01*
X105819294Y-70170986D01*
X105790000Y-70225791D01*
X105760706Y-70170986D01*
X105575134Y-69944866D01*
X105349014Y-69759294D01*
X105091034Y-69621401D01*
X104811111Y-69536487D01*
X104592950Y-69515000D01*
X104447050Y-69515000D01*
X104228889Y-69536487D01*
X103948966Y-69621401D01*
X103690986Y-69759294D01*
X103464866Y-69944866D01*
X103279294Y-70170986D01*
X103244799Y-70235523D01*
X103175178Y-70118645D01*
X102980269Y-69902412D01*
X102746920Y-69728359D01*
X102484099Y-69603175D01*
X102336890Y-69558524D01*
X102107000Y-69679845D01*
X102107000Y-70873000D01*
X102127000Y-70873000D01*
X102127000Y-71127000D01*
X102107000Y-71127000D01*
X102107000Y-72320155D01*
X102336890Y-72441476D01*
X102484099Y-72396825D01*
X102746920Y-72271641D01*
X102980269Y-72097588D01*
X103175178Y-71881355D01*
X103244799Y-71764477D01*
X103279294Y-71829014D01*
X103464866Y-72055134D01*
X103690986Y-72240706D01*
X103760001Y-72277595D01*
X103760000Y-74539099D01*
X103718899Y-74561068D01*
X103500392Y-74740392D01*
X103321068Y-74958899D01*
X103247421Y-75096682D01*
X103132385Y-74904869D01*
X102943414Y-74696481D01*
X102717420Y-74528963D01*
X102463087Y-74408754D01*
X102329039Y-74368096D01*
X102107000Y-74490085D01*
X102107000Y-75633000D01*
X102127000Y-75633000D01*
X102127000Y-75887000D01*
X102107000Y-75887000D01*
X102107000Y-77029915D01*
X102329039Y-77151904D01*
X102463087Y-77111246D01*
X102717420Y-76991037D01*
X102943414Y-76823519D01*
X103132385Y-76615131D01*
X103247421Y-76423318D01*
X103321068Y-76561101D01*
X103500392Y-76779608D01*
X103718899Y-76958932D01*
X103968192Y-77092182D01*
X104238691Y-77174236D01*
X104449508Y-77195000D01*
X104590492Y-77195000D01*
X104801309Y-77174236D01*
X105071808Y-77092182D01*
X105321101Y-76958932D01*
X105539608Y-76779608D01*
X105718932Y-76561101D01*
X105790000Y-76428142D01*
X105861068Y-76561101D01*
X106040392Y-76779608D01*
X106175000Y-76890078D01*
X106175001Y-79073420D01*
X100325000Y-84923422D01*
X100325000Y-76890078D01*
X100459608Y-76779608D01*
X100638932Y-76561101D01*
X100712579Y-76423318D01*
X100827615Y-76615131D01*
X101016586Y-76823519D01*
X101242580Y-76991037D01*
X101496913Y-77111246D01*
X101630961Y-77151904D01*
X101853000Y-77029915D01*
X101853000Y-75887000D01*
X101833000Y-75887000D01*
X101833000Y-75633000D01*
X101853000Y-75633000D01*
X101853000Y-74490085D01*
X101630961Y-74368096D01*
X101496913Y-74408754D01*
X101242580Y-74528963D01*
X101016586Y-74696481D01*
X100827615Y-74904869D01*
X100712579Y-75096682D01*
X100638932Y-74958899D01*
X100459608Y-74740392D01*
X100325000Y-74629922D01*
X100325000Y-72194759D01*
X100495134Y-72055134D01*
X100680706Y-71829014D01*
X100715201Y-71764477D01*
X100784822Y-71881355D01*
X100979731Y-72097588D01*
X101213080Y-72271641D01*
X101475901Y-72396825D01*
X101623110Y-72441476D01*
X101853000Y-72320155D01*
X101853000Y-71127000D01*
X101833000Y-71127000D01*
X101833000Y-70873000D01*
X101853000Y-70873000D01*
X101853000Y-69679845D01*
X101623110Y-69558524D01*
X101475901Y-69603175D01*
X101213080Y-69728359D01*
X100979731Y-69902412D01*
X100784822Y-70118645D01*
X100715201Y-70235523D01*
X100680706Y-70170986D01*
X100495134Y-69944866D01*
X100325000Y-69805241D01*
X100325000Y-67021269D01*
X101058336Y-67021269D01*
X101117797Y-67255037D01*
X101356242Y-67365934D01*
X101611740Y-67428183D01*
X101874473Y-67439390D01*
X102134344Y-67399125D01*
X102381366Y-67308935D01*
X102482203Y-67255037D01*
X102541664Y-67021269D01*
X103958336Y-67021269D01*
X104017797Y-67255037D01*
X104256242Y-67365934D01*
X104511740Y-67428183D01*
X104774473Y-67439390D01*
X105034344Y-67399125D01*
X105281366Y-67308935D01*
X105382203Y-67255037D01*
X105441664Y-67021269D01*
X104700000Y-66279605D01*
X103958336Y-67021269D01*
X102541664Y-67021269D01*
X101800000Y-66279605D01*
X101058336Y-67021269D01*
X100325000Y-67021269D01*
X100325000Y-66962975D01*
X100336962Y-66951013D01*
X100483061Y-66732359D01*
X100550361Y-66569882D01*
X100591065Y-66681366D01*
X100644963Y-66782203D01*
X100878731Y-66841664D01*
X101620395Y-66100000D01*
X101979605Y-66100000D01*
X102721269Y-66841664D01*
X102955037Y-66782203D01*
X103065934Y-66543758D01*
X103128183Y-66288260D01*
X103133036Y-66174473D01*
X103360610Y-66174473D01*
X103400875Y-66434344D01*
X103491065Y-66681366D01*
X103544963Y-66782203D01*
X103778731Y-66841664D01*
X104520395Y-66100000D01*
X103778731Y-65358336D01*
X103544963Y-65417797D01*
X103434066Y-65656242D01*
X103371817Y-65911740D01*
X103360610Y-66174473D01*
X103133036Y-66174473D01*
X103139390Y-66025527D01*
X103099125Y-65765656D01*
X103008935Y-65518634D01*
X102955037Y-65417797D01*
X102721269Y-65358336D01*
X101979605Y-66100000D01*
X101620395Y-66100000D01*
X100878731Y-65358336D01*
X100644963Y-65417797D01*
X100548408Y-65625404D01*
X100483061Y-65467641D01*
X100336962Y-65248987D01*
X100266706Y-65178731D01*
X101058336Y-65178731D01*
X101800000Y-65920395D01*
X102541664Y-65178731D01*
X103958336Y-65178731D01*
X104700000Y-65920395D01*
X105441664Y-65178731D01*
X105382203Y-64944963D01*
X105143758Y-64834066D01*
X104888260Y-64771817D01*
X104625527Y-64760610D01*
X104365656Y-64800875D01*
X104118634Y-64891065D01*
X104017797Y-64944963D01*
X103958336Y-65178731D01*
X102541664Y-65178731D01*
X102482203Y-64944963D01*
X102243758Y-64834066D01*
X101988260Y-64771817D01*
X101725527Y-64760610D01*
X101465656Y-64800875D01*
X101218634Y-64891065D01*
X101117797Y-64944963D01*
X101058336Y-65178731D01*
X100266706Y-65178731D01*
X100151013Y-65063038D01*
X99932359Y-64916939D01*
X99689405Y-64816304D01*
X99431486Y-64765000D01*
X99168514Y-64765000D01*
X98910595Y-64816304D01*
X98667641Y-64916939D01*
X98448987Y-65063038D01*
X98263038Y-65248987D01*
X98116939Y-65467641D01*
X98016304Y-65710595D01*
X97965000Y-65968514D01*
X97965000Y-66231486D01*
X98016304Y-66489405D01*
X98116939Y-66732359D01*
X98263038Y-66951013D01*
X98448987Y-67136962D01*
X98555001Y-67207798D01*
X98555000Y-69805240D01*
X98384866Y-69944866D01*
X98199294Y-70170986D01*
X98061401Y-70428966D01*
X97976487Y-70708889D01*
X97947815Y-71000000D01*
X97976487Y-71291111D01*
X98061401Y-71571034D01*
X98199294Y-71829014D01*
X98384866Y-72055134D01*
X98555001Y-72194760D01*
X98555000Y-74629922D01*
X98420392Y-74740392D01*
X98241068Y-74958899D01*
X98107818Y-75208192D01*
X98025764Y-75478691D01*
X97998057Y-75760000D01*
X98025764Y-76041309D01*
X98107818Y-76311808D01*
X98241068Y-76561101D01*
X98420392Y-76779608D01*
X98555000Y-76890078D01*
X98555001Y-85420614D01*
X95304946Y-88670670D01*
X95271173Y-88698387D01*
X95160579Y-88833146D01*
X95078401Y-88986892D01*
X95027795Y-89153715D01*
X95014990Y-89283728D01*
X95014990Y-89283735D01*
X95010709Y-89327204D01*
X91385000Y-89327204D01*
X91385000Y-65657899D01*
X91679651Y-65952550D01*
X92070279Y-66213560D01*
X92504321Y-66393346D01*
X92965098Y-66485000D01*
X93434902Y-66485000D01*
X93895679Y-66393346D01*
X94329721Y-66213560D01*
X94720349Y-65952550D01*
X95052550Y-65620349D01*
X95313560Y-65229721D01*
X95493346Y-64795679D01*
X95585000Y-64334902D01*
X95585000Y-63865098D01*
X95493346Y-63404321D01*
X95313560Y-62970279D01*
X95052550Y-62579651D01*
X94757899Y-62285000D01*
X184642101Y-62285000D01*
X184347450Y-62579651D01*
M02*
